<?xml version="1.0" standalone="no"?>
<!DOCTYPE svg PUBLIC "-//W3C//DTD SVG 1.1//EN" "http://www.w3.org/Graphics/SVG/1.1/DTD/svg11.dtd" >
<svg xmlns="http://www.w3.org/2000/svg" width="100%" height="100%">
<metadata>
Created by FontXChange 20110222 at Mon Feb 25 15:57:21 2019
 By Suzi Rubino
 The digitally encoded machine readable software for producing the Typefaces licensed to you is copyrighted (c) 1989 Adobe Systems. All rights reserved. This software is the property of Adobe Systems Incorporated and its licensors, and may not be reproduced, used, displayed, modified, disclosed, or transferred  without the express written approval of Adobe. The digitally encoded machine readable outline data for producing the Typefaces licensed to you is copyrighted (c) 1981 Linotype AG and/or its subsidiaries. All Rights Reserved. This data is the property of Linotype AG and/or its subsidiaries and may not be reproduced, used, displayed, modified, disclosed or transferred without the express written approval of Linotype AG and/or its subsidiaries. 
</metadata>
<defs>
<font id="Copperplate-ThirtyTwoAB" horiz-adv-x="778" >
  <font-face 
    font-family="Copperplate"
    font-weight="500"
    font-stretch="normal"
    units-per-em="1000"
    panose-1="2 0 6 3 0 0 0 0 0 0"
    ascent="800"
    descent="-200"
    x-height="610"
    cap-height="728"
    bbox="-167 -228 1377 963"
    underline-thickness="50"
    underline-position="-100"
    unicode-range="U+0020-FB02"
  />
    <missing-glyph />
    <glyph glyph-name="space" unicode=" " horiz-adv-x="389" 
 />
    <glyph glyph-name="exclam" unicode="!" horiz-adv-x="333" 
d="M96 728h142v-12c-13 -1 -21 -5 -22 -17l-22 -420c-1 -28 -2 -49 -2 -62c0 -10 4 -15 18 -15v-12h-86v12c14 0 18 5 18 15c0 13 -1 34 -2 62l-22 420c-1 12 -9 16 -22 17v12zM115 42c0 28 23 52 52 52s52 -24 52 -52s-23 -52 -52 -52s-52 24 -52 52z" />
    <glyph glyph-name="quotedbl" unicode="&#x22;" horiz-adv-x="333" 
d="M271 634l-15 -181c-2 -25 -6 -31 -17 -31s-15 6 -17 31l-15 181c-2 19 -3 34 -3 44c0 45 13 60 35 60s35 -15 35 -60c0 -10 -1 -25 -3 -44zM127 634l-15 -181c-2 -25 -6 -31 -17 -31s-15 6 -17 31l-15 181c-2 19 -3 34 -3 44c0 45 13 60 35 60s35 -15 35 -60
c0 -10 -1 -25 -3 -44z" />
    <glyph glyph-name="numbersign" unicode="#" 
d="M640 291v-64h-113l-32 -227h-78l32 227h-148l-31 -227h-80l33 227h-115v64h123l22 146h-115v64h121l35 227h80l-37 -227h150l32 227h78l-32 -227h105v-64h-115l-20 -146h105zM477 437h-146l-20 -146h146z" />
    <glyph glyph-name="dollar" unicode="$" 
d="M370 728v62h64v-62c142 0 243 -66 254 -66c8 0 14 5 22 16l12 -8l-62 -142l-14 8c4 5 6 14 6 19c0 33 -113 82 -218 89v-236c191 -22 286 -82 286 -204c0 -146 -159 -218 -286 -214v-115h-64v115c-183 0 -259 81 -287 81c-8 0 -13 -5 -15 -11l-12 6l65 136l10 -8
c-2 -3 -4 -7 -4 -11c0 -18 105 -108 243 -109v238c-190 14 -284 96 -284 202c0 137 143 214 284 214zM370 412v232c-88 -7 -188 -38 -188 -129c0 -65 86 -95 188 -103zM434 306v-232c98 2 184 49 184 125c0 63 -49 91 -184 107z" />
    <glyph glyph-name="percent" unicode="%" horiz-adv-x="1000" 
d="M110 560c0 101 81 178 178 178s178 -77 178 -178s-81 -178 -178 -178s-178 77 -178 178zM176 560c0 -66 51 -112 112 -112s112 46 112 112s-51 112 -112 112s-112 -46 -112 -112zM696 738h58l-455 -748h-58zM534 168c0 101 81 178 178 178s178 -77 178 -178
s-81 -178 -178 -178s-178 77 -178 178zM600 168c0 -66 51 -112 112 -112s112 46 112 112s-51 112 -112 112s-112 -46 -112 -112z" />
    <glyph glyph-name="ampersand" unicode="&#x26;" horiz-adv-x="889" 
d="M818 484v-144h-12c-2 11 -6 16 -17 16c-39 0 -119 -116 -126 -147c44 -102 95 -117 119 -117c14 0 20 3 24 16h12v-102c-14 -4 -29 -6 -43 -6c-87 0 -133 45 -178 115c-71 -81 -133 -125 -263 -125c-120 0 -268 72 -268 224c0 109 73 183 168 224c-42 33 -68 73 -68 128
c0 106 108 172 218 172c126 0 234 -62 234 -174c0 -72 -41 -119 -103 -151c42 -30 73 -69 95 -116c45 82 112 164 208 187zM168 221c0 -95 82 -147 182 -147s193 74 193 136c-7 35 -51 158 -193 158c-100 0 -182 -52 -182 -147zM268 556c0 -62 52 -100 124 -100
s124 38 124 100s-52 98 -124 98s-124 -36 -124 -98z" />
    <glyph glyph-name="quoteright" unicode="&#x2019;" horiz-adv-x="222" 
d="M47 504v30c41 13 86 57 86 103c0 7 -7 11 -13 11c-5 0 -9 -4 -16 -4c-26 0 -45 16 -45 46c0 28 27 48 51 48c42 0 65 -25 65 -82c0 -66 -69 -136 -128 -152z" />
    <glyph glyph-name="parenleft" unicode="(" horiz-adv-x="389" 
d="M326 -110v-12c-156 44 -264 235 -264 430s108 386 264 430v-12c-140 -86 -176 -229 -176 -418s36 -332 176 -418z" />
    <glyph glyph-name="parenright" unicode=")" horiz-adv-x="389" 
d="M63 726v12c156 -44 264 -235 264 -430c0 -196 -108 -387 -264 -430v12c140 85 176 228 176 418c0 189 -36 332 -176 418z" />
    <glyph glyph-name="asterisk" unicode="*" horiz-adv-x="500" 
d="M268 570l8 -6l146 72l24 -78l-158 -26l-4 -10l114 -120l-62 -44l-78 142h-8l-79 -142l-61 44l110 120l-4 10l-162 26l24 78l146 -72l8 6l-20 158h76z" />
    <glyph glyph-name="plus" unicode="+" horiz-adv-x="600" 
d="M265 288v218h70v-218h218v-70h-218v-218h-70v218h-218v70h218z" />
    <glyph glyph-name="comma" unicode="," horiz-adv-x="389" 
d="M130 -150v30c41 13 86 57 86 103c0 7 -7 11 -13 11c-5 0 -9 -4 -16 -4c-26 0 -45 16 -45 46c0 33 27 58 51 58c42 0 65 -35 65 -92c0 -66 -69 -136 -128 -152z" />
    <glyph glyph-name="hyphen" unicode="-" horiz-adv-x="389" 
d="M317 342v-74h-246v74h246z" />
    <glyph glyph-name="period" unicode="." horiz-adv-x="389" 
d="M142 42c0 28 23 52 52 52s52 -24 52 -52s-23 -52 -52 -52s-52 24 -52 52z" />
    <glyph glyph-name="slash" unicode="/" horiz-adv-x="278" 
d="M53 -10h-67l239 748h67z" />
    <glyph glyph-name="zero" unicode="0" 
d="M28 364c0 198 146 374 361 374s361 -176 361 -374s-146 -374 -361 -374s-361 176 -361 374zM130 364c0 -153 88 -290 259 -290s259 137 259 290s-88 290 -259 290s-259 -137 -259 -290z" />
    <glyph glyph-name="one" unicode="1" 
d="M268 536h-12v136h12c1 -19 15 -22 32 -22c21 0 60 20 60 45c0 12 -10 20 -24 21v12h150v-12c-22 0 -28 -4 -28 -23v-658c0 -19 6 -23 30 -23v-12h-166v12c28 0 34 4 34 23v543c-33 -14 -88 -13 -88 -42z" />
    <glyph glyph-name="two" unicode="2" 
d="M192 88h474c18 0 26 4 30 29h12v-139h-12c-4 18 -12 22 -30 22h-596c26 333 498 320 498 528c0 78 -69 126 -161 126c-115 0 -233 -101 -233 -141c0 -5 2 -12 6 -15l-12 -6l-82 104l12 12c2 -5 7 -6 12 -6c31 0 100 136 308 136c136 0 252 -86 252 -210
c0 -264 -410 -250 -478 -440z" />
    <glyph glyph-name="three" unicode="3" 
d="M294 321v136h12c1 -21 14 -27 61 -27c135 0 209 34 209 108c0 70 -66 116 -180 116c-118 0 -227 -83 -227 -117c0 -5 2 -10 4 -13l-12 -12l-87 106l12 8c5 -4 9 -5 16 -5c30 0 97 117 305 117c140 0 271 -73 271 -199c0 -66 -45 -120 -107 -148c82 -28 137 -80 137 -171
c0 -141 -126 -230 -321 -230c-186 0 -289 98 -315 98c-7 0 -11 -3 -14 -8l-13 6l77 130l10 -8c-3 -6 -6 -9 -6 -17c0 -23 116 -117 276 -117c127 0 204 62 204 143c0 104 -86 129 -242 129c-51 0 -57 -5 -58 -25h-12z" />
    <glyph glyph-name="four" unicode="4" 
d="M164 232h326v380zM490 140h-416c-18 0 -26 -4 -30 -28h-12v92l406 468c15 18 20 23 20 29c0 10 -5 14 -24 15v12h186v-12c-22 0 -28 -4 -28 -23v-461h92c18 0 26 4 30 32h12v-156h-12c-4 27 -12 32 -30 32h-92v-105c0 -19 6 -23 28 -23v-12h-158v12c25 0 28 4 28 23v105z
" />
    <glyph glyph-name="five" unicode="5" 
d="M210 318l-132 116l10 8c4 -2 8 -7 13 -7c6 0 11 7 11 15v243c0 19 -6 23 -28 23v12h552c18 0 26 4 30 28h12v-148h-12c-4 24 -12 28 -30 28h-426v-185c51 25 113 51 223 51c165 0 287 -95 287 -251c0 -172 -148 -261 -325 -261c-188 0 -266 98 -299 98
c-10 0 -18 -7 -26 -14l-12 10l88 124l12 -10c-2 -6 -4 -10 -4 -17c0 -31 109 -107 235 -107c113 0 229 55 229 181c0 105 -88 163 -185 163c-142 0 -217 -54 -217 -80c0 -4 3 -8 4 -11z" />
    <glyph glyph-name="six" unicode="6" 
d="M687 672l-62 -128l-14 7c1 5 2 9 2 16c0 33 -88 87 -179 87c-170 0 -258 -114 -262 -281c77 83 133 107 255 107c146 0 287 -78 287 -228c0 -168 -135 -262 -308 -262c-204 0 -342 154 -342 354c0 222 134 394 366 394c66 0 119 -17 158 -34c38 -17 62 -34 70 -34
s11 4 17 9zM406 396c-120 0 -206 -72 -206 -161s86 -161 206 -161s206 60 206 161s-86 161 -206 161z" />
    <glyph glyph-name="seven" unicode="7" 
d="M601 640h-491c-18 0 -26 -4 -30 -32h-12v152h12c4 -28 12 -32 30 -32h558c18 0 26 4 30 32h12v-114l-332 -586c-8 -15 -19 -30 -19 -38c0 -7 4 -9 18 -10v-12h-151v12c16 0 25 8 32 21z" />
    <glyph glyph-name="eight" unicode="8" 
d="M577 384v-2c86 -23 150 -85 150 -178c0 -122 -124 -214 -338 -214s-338 92 -338 214c0 93 64 155 150 178v2c-74 28 -120 70 -120 168c0 102 122 186 308 186s308 -84 308 -186c0 -98 -46 -140 -120 -168zM153 205c0 -67 58 -131 236 -131s236 64 236 131
c0 85 -61 131 -236 131s-236 -46 -236 -131zM183 535c0 -62 40 -115 206 -115s206 53 206 115s-40 119 -206 119s-206 -57 -206 -119z" />
    <glyph glyph-name="nine" unicode="9" 
d="M91 56l62 128l14 -7c-1 -5 -2 -9 -2 -16c0 -33 88 -87 179 -87c170 0 258 114 262 281c-77 -83 -133 -107 -255 -107c-146 0 -287 78 -287 228c0 168 135 262 308 262c204 0 342 -154 342 -354c0 -222 -134 -394 -366 -394c-66 0 -119 17 -158 34c-38 17 -62 34 -70 34
s-11 -4 -17 -9zM372 332c120 0 206 72 206 161s-86 161 -206 161s-206 -60 -206 -161s86 -161 206 -161z" />
    <glyph glyph-name="colon" unicode=":" horiz-adv-x="389" 
d="M142 42c0 28 23 52 52 52s52 -24 52 -52s-23 -52 -52 -52s-52 24 -52 52zM142 400c0 28 23 52 52 52s52 -24 52 -52s-23 -52 -52 -52s-52 24 -52 52z" />
    <glyph glyph-name="semicolon" unicode=";" horiz-adv-x="389" 
d="M130 -150v30c41 13 86 57 86 103c0 7 -7 11 -13 11c-5 0 -9 -4 -16 -4c-26 0 -45 16 -45 46c0 33 27 58 51 58c42 0 65 -35 65 -92c0 -66 -69 -136 -128 -152zM140 400c0 28 23 52 52 52s52 -24 52 -52s-23 -52 -52 -52s-52 24 -52 52z" />
    <glyph glyph-name="less" unicode="&#x3c;" horiz-adv-x="600" 
d="M553 60v-74l-506 232v70l506 232v-74l-422 -193z" />
    <glyph glyph-name="equal" unicode="=" horiz-adv-x="600" 
d="M553 386v-70h-506v70h506zM553 190v-70h-506v70h506z" />
    <glyph glyph-name="greater" unicode="&#x3e;" horiz-adv-x="600" 
d="M47 -14v74l422 193l-422 193v74l506 -232v-70z" />
    <glyph glyph-name="question" unicode="?" horiz-adv-x="500" 
d="M321 190h-128v12c18 1 24 5 26 39c11 180 162 193 162 317c0 62 -44 100 -108 100c-92 0 -160 -66 -160 -85c0 -6 2 -12 6 -15l-8 -8l-80 88l8 8c3 -4 6 -7 11 -7c30 0 70 99 214 99c104 0 205 -60 205 -172c0 -184 -174 -182 -174 -344c0 -14 4 -19 26 -20v-12zM205 42
c0 28 23 52 52 52s52 -24 52 -52s-23 -52 -52 -52s-52 24 -52 52z" />
    <glyph glyph-name="at" unicode="@" horiz-adv-x="800" 
d="M318 296c0 -67 25 -92 65 -92c68 0 129 146 129 224c0 46 -18 71 -46 71c-47 0 -148 -68 -148 -203zM539 498l9 44h74l-71 -275c-2 -9 -3 -21 -3 -32c0 -26 15 -33 43 -33c73 0 137 108 137 216c0 120 -105 274 -309 274c-174 0 -311 -126 -311 -334
c0 -184 124 -322 321 -322c97 0 153 23 215 51l15 -36c-70 -31 -135 -61 -247 -61c-232 0 -388 176 -388 357c0 234 181 391 395 391c209 0 357 -136 357 -319c0 -111 -66 -257 -202 -257c-72 0 -98 32 -96 59h-2c-14 -19 -64 -59 -126 -59s-106 42 -106 134
c0 86 70 259 215 259c51 0 67 -25 78 -57h2z" />
    <glyph glyph-name="A" unicode="A" horiz-adv-x="833" 
d="M601 202h-389c-64 -155 -70 -168 -70 -173c0 -8 3 -14 18 -17v-12h-148v12c32 1 31 9 59 72l257 595c3 9 6 16 6 20c0 11 -5 14 -21 17v12h190v-12c-9 -3 -21 -6 -21 -17c0 -4 4 -13 10 -27l292 -631c10 -22 11 -25 38 -29v-12h-166v12c13 1 19 5 19 12
c0 15 -10 25 -74 178zM402 648l-153 -358h314z" />
    <glyph glyph-name="B" unicode="B" horiz-adv-x="889" 
d="M114 35v658c0 19 -6 23 -22 23v12h481c111 0 213 -70 213 -198c0 -65 -38 -121 -110 -148v-2c88 -29 136 -85 136 -179c0 -136 -108 -201 -223 -201h-497v12c16 0 22 4 22 23zM216 334v-246h351c83 0 143 41 143 121c0 94 -84 125 -188 125h-306zM216 640v-218h336
c79 0 132 52 132 117c0 57 -43 101 -137 101h-331z" />
    <glyph glyph-name="C" unicode="C" horiz-adv-x="889" 
d="M828 668l-73 -140l-15 8c2 6 3 12 3 15c0 43 -107 103 -259 103c-180 0 -328 -107 -328 -288s142 -292 316 -292c154 0 288 93 288 131c0 11 -2 19 -4 25l8 6l94 -120l-8 -6c-6 5 -13 10 -25 10c-33 0 -115 -130 -365 -130c-204 0 -406 151 -406 374s202 374 422 374
c196 0 292 -78 320 -78c6 0 13 5 20 15z" />
    <glyph glyph-name="D" unicode="D" horiz-adv-x="944" 
d="M116 35v658c0 19 -6 23 -28 23v12h454c181 0 340 -114 340 -364s-159 -364 -340 -364h-454v12c22 0 28 4 28 23zM218 640v-552h324c126 0 238 84 238 276s-112 276 -238 276h-324z" />
    <glyph glyph-name="E" unicode="E" horiz-adv-x="833" 
d="M216 322v-234h514c18 0 26 4 30 32h12v-152h-12c-4 28 -12 32 -30 32h-646v12c24 0 30 4 30 23v658c0 19 -6 23 -30 23v12h646c18 0 26 4 30 32h12v-152h-12c-4 28 -12 32 -30 32h-514v-230h360c18 0 26 4 30 32h12v-156h-12c-4 32 -12 36 -30 36h-360z" />
    <glyph glyph-name="F" unicode="F" 
d="M218 322v-287c0 -19 6 -23 32 -23v-12h-166v12c26 0 32 4 32 23v658c0 19 -6 23 -30 23v12h624c18 0 26 4 30 32h12v-152h-12c-4 28 -12 32 -30 32h-492v-230h330c18 0 26 4 30 32h12v-156h-12c-4 32 -12 36 -30 36h-330z" />
    <glyph glyph-name="G" unicode="G" horiz-adv-x="944" 
d="M840 652l-80 -137l-9 7c2 5 3 10 3 18c0 31 -135 114 -269 114c-179 0 -325 -116 -325 -299c0 -165 152 -281 305 -281c99 0 197 22 277 83v117h-188c-18 0 -26 0 -30 -26h-12v136h12c4 -18 12 -26 30 -26h314v-12c-16 -4 -24 -12 -24 -34v-193
c-108 -91 -213 -129 -369 -129c-219 0 -417 136 -417 370c0 226 204 378 424 378c185 0 302 -95 324 -95c10 0 16 7 24 13z" />
    <glyph glyph-name="H" unicode="H" horiz-adv-x="944" 
d="M250 0h-162v12c24 0 30 4 30 23v658c0 19 -6 23 -30 23v12h162v-12c-24 0 -30 -4 -30 -23v-267h504v267c0 19 -6 23 -30 23v12h162v-12c-24 0 -30 -4 -30 -23v-658c0 -19 6 -23 30 -23v-12h-162v12c24 0 30 4 30 23v303h-504v-303c0 -19 6 -23 30 -23v-12z" />
    <glyph glyph-name="I" unicode="I" horiz-adv-x="333" 
d="M242 0h-150v12c18 0 24 4 24 23v658c0 19 -6 23 -24 23v12h150v-12c-18 0 -24 -4 -24 -23v-658c0 -19 6 -23 24 -23v-12z" />
    <glyph glyph-name="J" unicode="J" horiz-adv-x="667" 
d="M417 728h158v-12c-22 0 -28 -4 -28 -23v-475c0 -136 -74 -228 -271 -228c-67 0 -135 20 -156 28c-41 15 -68 30 -87 30c-8 0 -18 -9 -22 -14l-10 4l68 150l12 -6c-2 -7 -4 -11 -4 -17c0 -27 107 -91 209 -91c98 0 159 39 159 136v483c0 19 -6 23 -28 23v12z" />
    <glyph glyph-name="K" unicode="K" horiz-adv-x="833" 
d="M248 0h-160v12c20 0 26 4 26 23v658c0 19 -6 23 -26 23v12h160v-12c-26 0 -32 -4 -32 -23v-311c385 307 400 310 400 320s-5 13 -16 14v12h208v-12c-29 -1 -55 -26 -78 -43l-276 -209l341 -441c6 -7 8 -11 35 -11v-12h-184v12c14 0 24 3 24 10s-9 16 -29 42l-264 340
l-161 -128v-241c0 -19 6 -23 32 -23v-12z" />
    <glyph glyph-name="L" unicode="L" 
d="M84 728h166v-12c-27 0 -33 -4 -33 -23v-605h491c39 0 41 11 46 36h12v-169h-12c-10 35 -16 45 -46 45h-624v12c25 0 31 4 31 23v658c0 19 -6 23 -31 23v12z" />
    <glyph glyph-name="M" unicode="M" horiz-adv-x="1000" 
d="M244 0h-156v12c26 0 32 4 32 23v658c0 19 -6 23 -32 23v12h208v-12c-16 0 -26 -5 -26 -21c0 -14 12 -23 232 -483c229 467 236 472 236 486c0 12 -8 17 -28 18v12h202v-12c-24 0 -30 -4 -30 -23v-658c0 -19 6 -23 30 -23v-12h-156v12c24 0 30 4 30 23v555h2l-290 -580
l-280 580h-2v-555c0 -19 6 -23 28 -23v-12z" />
    <glyph glyph-name="N" unicode="N" horiz-adv-x="944" 
d="M122 35v658c0 19 -6 23 -34 23v12h202v-12c-11 0 -26 -4 -26 -14s16 -25 32 -45l438 -513v549c0 19 -6 23 -32 23v12h154v-12c-28 0 -34 -4 -34 -23v-658c0 -19 6 -23 34 -23v-12h-172v12c20 1 24 5 24 13c0 10 -6 14 -16 27l-482 562v-579c0 -19 6 -23 32 -23v-12h-154
v12c28 0 34 4 34 23z" />
    <glyph glyph-name="O" unicode="O" horiz-adv-x="944" 
d="M160 364c0 -192 146 -290 312 -290s312 98 312 290s-146 290 -312 290s-312 -98 -312 -290zM58 364c0 234 193 374 414 374s414 -140 414 -374s-193 -374 -414 -374s-414 140 -414 374z" />
    <glyph glyph-name="P" unicode="P" horiz-adv-x="833" 
d="M250 0h-158v12c22 0 28 4 28 23v658c0 19 -6 23 -28 23v12h456c143 0 230 -82 230 -202c0 -122 -85 -204 -229 -204h-327v-287c0 -19 6 -23 28 -23v-12zM222 640v-230h324c97 0 130 47 130 121c0 72 -52 109 -124 109h-330z" />
    <glyph glyph-name="Q" unicode="Q" horiz-adv-x="944" 
d="M472 74c59 0 115 12 163 37c-72 55 -185 70 -185 79c0 18 50 28 100 28c47 0 113 -21 163 -49c44 48 71 113 71 195c0 192 -146 290 -312 290s-312 -98 -312 -290s146 -290 312 -290zM910 84l-77 -124l-12 8c2 7 7 9 7 19c0 6 -2 10 -16 18l-92 54
c-70 -45 -156 -69 -248 -69c-221 0 -414 140 -414 374s193 374 414 374s414 -140 414 -374c0 -99 -34 -181 -92 -243c21 -11 72 -49 82 -49s16 12 22 18z" />
    <glyph glyph-name="R" unicode="R" horiz-adv-x="889" 
d="M258 0h-166v12c26 0 32 4 32 23v658c0 19 -6 23 -32 23v12h467c147 0 245 -78 245 -206c0 -120 -79 -196 -196 -197l180 -292c10 -16 17 -20 40 -21v-12h-189v12c27 1 34 5 34 17c0 11 -6 19 -24 49l-145 236h-278v-279c0 -19 6 -23 32 -23v-12zM226 640v-238h353
c63 0 123 30 123 126c0 59 -47 112 -143 112h-333z" />
    <glyph glyph-name="S" unicode="S" horiz-adv-x="833" 
d="M757 674l-62 -130l-13 6c0 5 1 9 1 12c0 27 -120 92 -286 92c-125 0 -218 -50 -218 -131c0 -201 592 7 592 -304c0 -150 -148 -229 -341 -229c-227 0 -323 91 -343 91c-12 0 -17 -5 -24 -15l-13 6l73 142l12 -7c-1 -6 -4 -12 -4 -18c0 -43 152 -115 303 -115
c163 0 247 59 247 139c0 205 -592 -15 -592 309c0 124 136 216 326 216c89 0 162 -18 214 -36c53 -18 85 -36 93 -36c9 0 14 5 23 12z" />
    <glyph glyph-name="T" unicode="T" 
d="M30 608v152h12c4 -28 12 -32 30 -32h634c18 0 26 4 30 32h12v-152h-12c-4 28 -12 32 -30 32h-266v-605c0 -19 6 -23 32 -23v-12h-166v12c26 0 32 4 32 23v605h-266c-18 0 -26 -4 -30 -32h-12z" />
    <glyph glyph-name="U" unicode="U" horiz-adv-x="944" 
d="M100 728h142v-12c-14 0 -20 -4 -20 -23v-447c0 -107 44 -172 248 -172s248 65 248 172v447c0 19 -6 23 -20 23v12h146v-12c-18 0 -24 -4 -24 -23v-447c0 -142 -86 -256 -350 -256s-350 114 -350 256v447c0 19 -6 23 -20 23v12z" />
    <glyph glyph-name="V" unicode="V" horiz-adv-x="833" 
d="M19 728h187v-12c-33 -2 -37 -7 -37 -21c0 -8 11 -32 253 -600c246 585 252 595 252 605c0 9 -19 14 -30 16v12h169v-12c-30 -2 -34 -8 -45 -34l-272 -641c-2 -6 -3 -10 -3 -16c0 -9 6 -13 23 -13v-12h-190v12c16 0 20 4 20 11c0 4 0 11 -6 24l-273 640
c-7 16 -16 27 -48 29v12z" />
    <glyph glyph-name="W" unicode="W" horiz-adv-x="1000" 
d="M11 728h142v-12c-10 -1 -19 -6 -19 -14c0 -10 8 -25 149 -539h2c151 515 156 530 157 539c1 11 -6 11 -21 14v12h162v-12c-11 -1 -21 -4 -21 -16c0 -7 3 -12 162 -538h2c48 174 151 521 151 537c0 10 -9 15 -22 17v12h134v-12c-14 0 -19 -4 -28 -34l-179 -632
c-1 -5 -7 -21 -7 -25c0 -8 4 -13 22 -13v-12h-148v12c14 0 20 3 20 13c0 14 -5 24 -170 571h-2c-157 -548 -163 -561 -163 -569c-1 -10 6 -15 19 -15v-12h-150v12c20 0 23 5 23 11c0 7 -2 14 -6 29l-186 649c-3 11 -10 15 -23 15v12z" />
    <glyph glyph-name="X" unicode="X" horiz-adv-x="833" 
d="M215 0h-176v12c21 0 28 6 46 29l274 343l-238 312c-11 14 -23 19 -42 20v12h194v-12c-21 -2 -27 -7 -27 -16c0 -7 8 -12 176 -237c182 222 189 230 189 239s-9 14 -26 14v12h184v-12c-33 0 -45 -20 -56 -34l-234 -293l268 -355c12 -15 20 -22 46 -22v-12h-194v12
c19 0 26 4 26 15c0 13 -8 15 -212 284c-214 -268 -222 -272 -222 -283s8 -16 24 -16v-12z" />
    <glyph glyph-name="Y" unicode="Y" 
d="M18 728h196v-12c-26 -1 -30 -9 -30 -16c0 -9 13 -14 218 -290c209 281 215 285 215 293c0 6 -4 12 -21 13v12h164v-12c-22 -1 -32 -13 -43 -28l-267 -364v-289c0 -19 6 -23 30 -23v-12h-162v12c24 0 30 4 30 23v285l-282 374c-9 11 -16 20 -48 22v12z" />
    <glyph glyph-name="Z" unicode="Z" 
d="M45 0l500 640h-444c-18 0 -26 -4 -30 -32h-12v152h12c4 -28 12 -32 30 -32h632l-502 -640h442c18 0 26 4 30 32h12v-152h-12c-4 28 -12 32 -30 32h-628z" />
    <glyph glyph-name="bracketleft" unicode="[" horiz-adv-x="389" 
d="M64 -108v836h256v-42h-172v-752h172v-42h-256z" />
    <glyph glyph-name="backslash" unicode="\" horiz-adv-x="278" 
d="M-71 738h66l354 -748h-66z" />
    <glyph glyph-name="bracketright" unicode="]" horiz-adv-x="389" 
d="M325 728v-836h-256v42h172v752h-172v42h256z" />
    <glyph glyph-name="asciicircum" unicode="^" horiz-adv-x="600" 
d="M152 348h-76l192 380h66l190 -380h-76l-148 294z" />
    <glyph glyph-name="underscore" unicode="_" horiz-adv-x="500" 
d="M500 -125h-500v50h500v-50z" />
    <glyph glyph-name="quoteleft" unicode="&#x2018;" horiz-adv-x="222" 
d="M175 738v-30c-41 -13 -86 -57 -86 -103c0 -7 7 -11 13 -11c5 0 9 4 16 4c26 0 45 -16 45 -46c0 -28 -27 -48 -51 -48c-42 0 -65 25 -65 82c0 66 69 136 128 152z" />
    <glyph glyph-name="a" unicode="a" horiz-adv-x="667" 
d="M323 524l-119 -286h243zM146 0h-134v12c18 0 25 7 32 23l221 531c3 8 5 14 5 18c0 9 -9 13 -28 14v12h168v-12c-16 -1 -26 -4 -26 -12c0 -5 2 -11 5 -18l236 -542c5 -12 9 -13 29 -14v-12h-142v12c18 0 23 5 23 13s-4 16 -59 139h-300c-50 -125 -56 -126 -56 -139
c0 -9 5 -12 26 -13v-12z" />
    <glyph glyph-name="b" unicode="b" 
d="M118 35v540c0 19 -6 23 -28 23v12h388c126 0 196 -66 196 -156c0 -59 -29 -99 -78 -130c57 -31 96 -79 96 -146c0 -100 -69 -178 -234 -178h-368v12c22 0 28 4 28 23zM202 286v-212h269c81 0 137 29 137 103c0 69 -56 109 -134 109h-272zM202 536v-176h291
c64 0 97 25 97 95c0 47 -43 81 -110 81h-278z" />
    <glyph glyph-name="c" unicode="c" horiz-adv-x="722" 
d="M660 566l-66 -118l-8 4c2 6 4 12 4 22c0 20 -109 72 -208 72c-148 0 -264 -86 -264 -243c0 -149 116 -239 261 -239c81 0 223 55 223 101c0 9 -3 13 -8 19l10 8l84 -105l-10 -6c-5 4 -15 9 -21 9c-18 0 -129 -100 -274 -100c-191 0 -349 120 -349 320
c0 178 140 310 338 310c145 0 239 -68 252 -68c16 0 18 9 28 18z" />
    <glyph glyph-name="d" unicode="d" 
d="M118 35v540c0 19 -6 23 -28 23v12h358c151 0 281 -103 281 -293c0 -207 -110 -317 -287 -317h-352v12c22 0 28 4 28 23zM202 536v-462h238c122 0 205 74 205 241c0 119 -61 221 -231 221h-212z" />
    <glyph glyph-name="e" unicode="e" horiz-adv-x="722" 
d="M656 634v-122h-12c-4 20 -12 24 -30 24h-408v-192h272c18 0 26 4 30 24h12v-122h-12c-4 20 -12 24 -30 24h-272v-196h418c18 0 26 4 30 30h12v-128h-12c-4 20 -12 24 -30 24h-522v12c14 0 20 4 20 23v540c0 19 -6 23 -20 23v12h512c18 0 26 4 30 24h12z" />
    <glyph glyph-name="f" unicode="f" horiz-adv-x="667" 
d="M226 0h-136v12c22 0 28 4 28 23v540c0 19 -6 23 -28 23v12h516c18 0 26 4 30 24h12v-122h-12c-4 20 -12 24 -30 24h-404v-192h268c18 0 26 4 30 24h12v-122h-12c-4 20 -12 24 -30 24h-268v-235c0 -19 6 -23 24 -23v-12z" />
    <glyph glyph-name="g" unicode="g" 
d="M470 302h238v-12c-10 -1 -14 -5 -14 -15v-126c0 -14 3 -21 15 -23v-18c-57 -43 -154 -118 -311 -118c-183 0 -352 111 -352 308c0 207 154 322 351 322c148 0 252 -76 273 -76c10 0 17 7 23 12l10 -5l-71 -113l-10 6c2 8 4 12 4 21c0 18 -108 81 -232 81
c-152 0 -264 -91 -264 -247c0 -157 132 -235 277 -235c66 0 158 34 203 68v96h-140c-18 0 -26 -4 -30 -24h-12v122h12c4 -20 12 -24 30 -24z" />
    <glyph glyph-name="h" unicode="h" horiz-adv-x="833" 
d="M234 0h-144v12c26 0 32 4 32 23v540c0 19 -6 23 -32 23v12h144v-12c-22 0 -28 -4 -28 -23v-225h422v225c0 19 -6 23 -28 23v12h144v-12c-26 0 -32 -4 -32 -23v-540c0 -19 6 -23 32 -23v-12h-144v12c22 0 28 4 28 23v241h-422v-241c0 -19 6 -23 28 -23v-12z" />
    <glyph glyph-name="i" unicode="i" horiz-adv-x="333" 
d="M236 0h-140v12c22 0 28 4 28 23v540c0 19 -6 23 -28 23v12h140v-12c-22 0 -28 -4 -28 -23v-540c0 -19 6 -23 28 -23v-12z" />
    <glyph glyph-name="j" unicode="j" horiz-adv-x="556" 
d="M436 575v-395c0 -118 -81 -190 -213 -190c-65 0 -113 13 -147 26c-33 13 -53 26 -63 26c-7 0 -12 -4 -17 -14l-10 6l48 116l13 -8c-2 -3 -3 -8 -3 -12c0 -30 114 -66 175 -66c82 0 133 38 133 113v398c0 19 -6 23 -24 23v12h132v-12c-18 0 -24 -4 -24 -23z" />
    <glyph glyph-name="k" unicode="k" horiz-adv-x="722" 
d="M522 610h180v-12c-20 -2 -29 -12 -47 -26l-248 -190l260 -342c15 -20 23 -26 51 -28v-12h-167v12c20 1 25 4 25 10c0 9 -2 11 -17 30l-217 285l-140 -107v-195c0 -19 6 -23 28 -23v-12h-140v12c22 0 28 4 28 23v540c0 19 -6 23 -28 23v12h140v-12c-22 0 -28 -4 -28 -23
v-255l327 248c7 6 13 10 13 17c0 9 -8 12 -20 13v12z" />
    <glyph glyph-name="l" unicode="l" horiz-adv-x="667" 
d="M102 610h120v-12c-12 0 -18 -4 -18 -23v-501h398c18 0 26 4 30 26h12v-124h-12c-4 20 -12 24 -30 24h-500v12c12 0 18 4 18 23v540c0 19 -6 23 -18 23v12z" />
    <glyph glyph-name="m" unicode="m" horiz-adv-x="889" 
d="M220 0h-136v12c22 0 28 4 28 23v540c0 19 -6 23 -28 23v12h174v-12c-19 -1 -24 -5 -24 -14c0 -8 26 -52 209 -425c183 373 201 418 201 424c0 8 -10 14 -30 15v12h190v-12c-26 0 -32 -4 -32 -23v-540c0 -19 6 -23 32 -23v-12h-148l8 12c26 0 32 4 32 23v479h-2l-256 -518
l-248 518h-2v-479c0 -19 6 -23 32 -23v-12z" />
    <glyph glyph-name="n" unicode="n" horiz-adv-x="833" 
d="M222 0h-124v12c18 0 24 4 24 23v540c0 19 -6 23 -24 23v12h166v-12c-13 -1 -18 -4 -18 -10c0 -13 23 -29 384 -464h2v451c0 19 -6 23 -26 23v12h128v-12c-20 0 -26 -4 -26 -23v-540c0 -19 6 -23 26 -23v-12h-144v12c18 1 24 3 24 11c0 6 -12 13 -414 497h-2v-485
c0 -19 6 -23 24 -23v-12z" />
    <glyph glyph-name="o" unicode="o" 
d="M124 305c0 -162 136 -241 267 -241c127 0 263 79 263 241s-136 241 -263 241c-131 0 -267 -79 -267 -241zM40 305c0 201 159 315 349 315s349 -114 349 -315s-159 -315 -349 -315s-349 114 -349 315z" />
    <glyph glyph-name="p" unicode="p" horiz-adv-x="722" 
d="M230 0h-140v12c22 0 28 4 28 23v540c0 19 -6 23 -28 23v12h386c136 0 210 -63 210 -173c0 -106 -73 -177 -176 -177h-308v-225c0 -19 6 -23 28 -23v-12zM202 536v-202h288c72 0 112 39 112 97c0 73 -54 105 -129 105h-271z" />
    <glyph glyph-name="q" unicode="q" 
d="M391 64c39 0 79 8 115 24c-39 36 -92 60 -146 60c-14 0 -24 -7 -34 -7c-4 0 -8 4 -8 8c0 17 37 39 88 39c62 0 119 -24 169 -60c47 39 79 98 79 177c0 162 -136 241 -263 241c-131 0 -267 -79 -267 -241s136 -241 267 -241zM742 48l-80 -102l-12 8c3 5 8 11 8 17
c0 21 -55 51 -74 67c-55 -32 -123 -48 -195 -48c-190 0 -349 114 -349 315s159 315 349 315s349 -114 349 -315c0 -94 -34 -168 -91 -222c13 -8 55 -41 62 -41c12 0 16 7 23 14z" />
    <glyph glyph-name="r" unicode="r" 
d="M232 0h-148v12c26 0 32 4 32 23v540c0 19 -6 23 -32 23v12h387c145 0 219 -65 219 -169c0 -105 -74 -166 -172 -171l149 -238c8 -13 17 -20 49 -20v-12h-166v12c21 1 26 5 26 16c0 7 -12 23 -26 45l-123 191h-227v-229c0 -19 6 -23 32 -23v-12zM200 536v-198h301
c42 0 105 25 105 99c0 60 -37 99 -174 99h-232z" />
    <glyph glyph-name="s" unicode="s" horiz-adv-x="722" 
d="M637 590l-52 -127l-10 6c1 3 2 10 2 16c0 31 -127 61 -212 61c-129 0 -200 -54 -200 -108c0 -182 490 24 490 -253c0 -115 -111 -194 -265 -195c-85 0 -117 7 -198 33c-52 16 -66 33 -92 33c-11 0 -17 -9 -21 -14l-12 5l67 131l10 -7c-2 -5 -4 -12 -4 -20
c0 -34 128 -87 245 -87c115 0 190 46 190 116c0 185 -490 -24 -490 254c0 130 129 186 289 186c46 0 103 -10 149 -20s81 -20 86 -20s13 7 16 13z" />
    <glyph glyph-name="t" unicode="t" horiz-adv-x="667" 
d="M42 512h-12v122h12c4 -20 12 -24 30 -24h522c18 0 26 4 30 24h12v-122h-12c-4 20 -12 24 -30 24h-219v-501c0 -19 6 -23 28 -23v-12h-140v12c22 0 28 4 28 23v501h-219c-18 0 -26 -4 -30 -24z" />
    <glyph glyph-name="u" unicode="u" horiz-adv-x="833" 
d="M98 610h140v-12c-22 0 -28 -4 -28 -23v-387c0 -91 71 -124 210 -124s210 33 210 124v387c0 19 -6 23 -20 23v12h124v-12c-14 0 -20 -4 -20 -23v-381c0 -140 -103 -204 -294 -204s-294 64 -294 204v381c0 19 -6 23 -28 23v12z" />
    <glyph glyph-name="v" unicode="v" horiz-adv-x="667" 
d="M418 0h-160v12c19 1 24 4 24 13s-3 15 -7 23l-231 528c-8 18 -12 20 -32 22v12h154v-12c-24 -1 -34 -5 -34 -20c0 -10 12 -30 205 -487c197 465 205 477 205 492c0 7 -9 14 -26 15v12h140v-12c-25 -1 -29 -9 -34 -19l-220 -531c-4 -10 -8 -17 -8 -24s3 -11 24 -12v-12z
" />
    <glyph glyph-name="w" unicode="w" horiz-adv-x="1000" 
d="M16 610h138v-12c-20 -1 -26 -8 -26 -20c0 -11 10 -16 164 -474h2c148 444 160 466 160 479c0 10 -6 14 -22 15v12h146v-12c-18 -1 -24 -6 -24 -15c0 -10 9 -30 160 -479h2c144 432 156 463 156 478c0 10 -4 15 -24 16v12h136v-12c-25 -2 -29 -8 -40 -41l-150 -446
c-13 -40 -26 -68 -26 -84c0 -10 4 -14 24 -15v-12h-154v12c16 1 22 3 22 14c0 17 -8 32 -158 474h-2c-148 -446 -158 -459 -158 -473c0 -10 7 -15 24 -15v-12h-150v12c17 1 24 4 24 11c0 13 -8 31 -19 60l-177 491c-7 19 -10 22 -28 24v12z" />
    <glyph glyph-name="x" unicode="x" horiz-adv-x="667" 
d="M170 0h-158v12c11 1 19 4 25 11l251 311l-197 250c-7 10 -17 13 -37 14v12h162v-12c-15 -1 -24 -4 -24 -14c0 -8 16 -18 144 -186c138 172 154 178 154 189c0 7 -8 10 -24 11v12h156v-12c-23 -1 -32 -5 -42 -19l-196 -243l241 -308c8 -10 12 -15 31 -16v-12h-160v12
c18 1 24 4 24 15c0 10 -10 17 -186 245c-174 -222 -192 -233 -192 -247c0 -10 6 -12 28 -13v-12z" />
    <glyph glyph-name="y" unicode="y" horiz-adv-x="667" 
d="M404 0h-140v12c22 0 28 4 28 23v231l-235 310c-11 15 -20 21 -45 22v12h168v-12c-22 -1 -28 -6 -28 -16c0 -9 118 -156 184 -248c64 90 184 238 184 251c0 9 -4 12 -26 13v12h160v-12c-19 -1 -29 -7 -35 -15l-243 -319v-229c0 -19 6 -23 28 -23v-12z" />
    <glyph glyph-name="z" unicode="z" horiz-adv-x="667" 
d="M54 512v122h12c4 -20 12 -24 30 -24h526l-420 -536h360c18 0 26 4 30 24h12v-122h-12c-4 20 -12 24 -30 24h-516l420 536h-370c-18 0 -26 -4 -30 -24h-12z" />
    <glyph glyph-name="braceleft" unicode="{" horiz-adv-x="389" 
d="M100 422v176c0 102 54 142 178 140v-14c-71 -12 -94 -36 -94 -102v-186c0 -69 -12 -109 -61 -127v-2c49 -18 61 -58 61 -127v-186c0 -66 23 -90 94 -102v-14c-124 -2 -178 38 -178 140v176c0 64 -14 95 -56 114c42 19 56 50 56 114z" />
    <glyph glyph-name="bar" unicode="|" horiz-adv-x="222" 
d="M76 0v728h70v-728h-70z" />
    <glyph glyph-name="braceright" unicode="}" horiz-adv-x="389" 
d="M289 194v-176c0 -102 -54 -142 -178 -140v14c71 12 94 36 94 102v186c0 69 12 109 61 127v2c-49 18 -61 58 -61 127v186c0 66 -23 90 -94 102v14c124 2 178 -38 178 -140v-176c0 -64 14 -95 56 -114c-42 -19 -56 -50 -56 -114z" />
    <glyph glyph-name="asciitilde" unicode="~" horiz-adv-x="600" 
d="M496 325l36 -54c-23 -42 -59 -86 -126 -86c-34 0 -73 15 -111 32c-37 16 -75 36 -102 36c-40 0 -65 -37 -89 -72l-36 54c23 42 59 86 126 86c34 0 73 -15 111 -32c37 -16 75 -36 102 -36c40 0 65 37 89 72z" />
    <glyph glyph-name="exclamdown" unicode="&#xa1;" horiz-adv-x="333" 
d="M237 0h-142v12c13 1 21 5 22 17l22 420c1 28 2 49 2 62c0 10 -4 15 -18 15v12h86v-12c-14 0 -18 -5 -18 -15c0 -13 1 -34 2 -62l22 -420c1 -12 9 -16 22 -17v-12zM218 686c0 -28 -23 -52 -52 -52s-52 24 -52 52s23 52 52 52s52 -24 52 -52z" />
    <glyph glyph-name="cent" unicode="&#xa2;" 
d="M296 98l140 344c-8 1 -17 2 -26 2c-123 0 -207 -80 -207 -196c0 -68 37 -120 93 -150zM271 -122h-64l62 152c-83 42 -142 124 -142 222c0 164 128 260 282 260c19 0 38 -1 54 -2l50 122h64l-55 -134c63 -18 105 -42 107 -42c4 0 7 4 10 8l12 -8l-48 -84l-12 6
c1 3 2 7 2 10c0 8 -40 32 -97 46l-144 -358c21 -5 44 -8 68 -8c92 0 171 50 171 67c0 3 -2 7 -4 11l12 4l52 -86l-10 -8c-2 4 -6 6 -11 6c-9 0 -81 -62 -236 -62c-25 0 -49 3 -70 8z" />
    <glyph glyph-name="sterling" unicode="&#xa3;" 
d="M46 -10v81c93 33 124 83 124 223c0 23 -1 46 -2 68h-110v64h102c-4 23 -8 49 -8 72c0 169 112 240 272 240c150 0 260 -69 266 -225h-88c-11 98 -86 141 -178 141c-130 0 -174 -52 -174 -126c0 -35 2 -70 10 -102h140v-64h-131c1 -14 3 -28 3 -43
c0 -113 -33 -177 -96 -240l2 -2c49 19 105 29 159 29c43 0 78 -5 111 -11s64 -13 97 -13c43 0 82 18 85 122h88c0 -149 -52 -214 -203 -214c-52 0 -99 10 -142 19c-44 9 -85 19 -127 19c-69 0 -118 -33 -200 -38z" />
    <glyph glyph-name="fraction" unicode="&#x2044;" horiz-adv-x="167" 
d="M334 738l-427 -748h-74l427 748h74z" />
    <glyph glyph-name="yen" unicode="&#xa5;" 
d="M338 35v198h-238v64h238v31l-33 45h-205v64h158l-190 257c-8 11 -18 20 -44 22v12h176v-12c-25 -2 -30 -6 -30 -16s18 -28 219 -306c201 278 219 296 219 306s-5 14 -30 16v12h176v-12c-26 -2 -36 -11 -44 -22l-189 -257h157v-64h-205l-33 -45v-31h238v-64h-238v-198
c0 -19 6 -23 30 -23v-12h-162v12c24 0 30 4 30 23z" />
    <glyph glyph-name="florin" unicode="&#x192;" 
d="M334 388h-108v64h120c32 146 32 286 186 286c37 0 59 -9 69 -13c18 -7 37 -21 50 -21c5 0 12 3 13 10l12 -4l-34 -110l-12 4c1 5 2 10 2 15c0 23 -26 51 -76 51c-90 0 -83 -118 -106 -218h116v-64h-128c-23 -119 -45 -240 -68 -356c-16 -85 -59 -154 -155 -154
c-61 0 -102 32 -117 32c-8 0 -11 -6 -14 -12l-12 4l34 116l12 -6c-1 -6 -2 -9 -2 -17c0 -35 45 -49 76 -49c36 0 67 19 80 90c31 162 47 257 62 352z" />
    <glyph glyph-name="section" unicode="&#xa7;" horiz-adv-x="500" 
d="M395 657l-52 -32c-22 29 -53 59 -93 59c-35 0 -63 -20 -63 -58c0 -93 252 -217 252 -350c0 -66 -49 -107 -116 -107c25 -34 62 -79 62 -125c0 -89 -66 -128 -147 -128c-60 0 -107 36 -143 83l52 40c18 -37 50 -69 93 -69c50 0 77 30 77 65c0 99 -256 235 -256 363
c0 73 49 108 117 109c-28 29 -59 67 -59 109c0 76 51 122 124 122c67 0 112 -28 152 -81zM129 408c0 -30 15 -55 72 -115c52 -53 86 -78 113 -78c34 0 57 24 57 58c0 24 -11 55 -78 122c-55 55 -84 66 -104 66c-32 0 -60 -18 -60 -53z" />
    <glyph glyph-name="currency" unicode="&#xa4;" 
d="M168 99l-44 44l58 58c-40 44 -57 104 -57 163s17 119 57 163l-58 58l44 44l60 -59c44 38 102 57 161 57s117 -19 161 -57l60 59l44 -44l-58 -58c40 -44 57 -104 57 -163s-17 -119 -57 -163l58 -58l-44 -44l-60 59c-44 -38 -102 -57 -161 -57s-117 19 -161 57zM203 364
c0 -106 83 -191 186 -191s186 85 186 191s-83 191 -186 191s-186 -85 -186 -191z" />
    <glyph glyph-name="quotesingle" unicode="'" horiz-adv-x="222" 
d="M94 453l-15 181c-2 19 -3 34 -3 44c0 45 13 60 35 60s35 -15 35 -60c0 -10 -1 -25 -3 -44l-15 -181c-2 -25 -6 -31 -17 -31s-15 6 -17 31z" />
    <glyph glyph-name="quotedblleft" unicode="&#x201c;" horiz-adv-x="389" 
d="M351 738v-30c-41 -13 -86 -57 -86 -103c0 -7 7 -11 13 -11c5 0 9 4 16 4c26 0 45 -16 45 -46c0 -28 -27 -48 -51 -48c-42 0 -65 25 -65 82c0 66 69 136 128 152zM166 738v-30c-41 -13 -86 -57 -86 -103c0 -7 7 -11 13 -11c5 0 9 4 16 4c26 0 45 -16 45 -46
c0 -28 -27 -48 -51 -48c-42 0 -65 25 -65 82c0 66 69 136 128 152z" />
    <glyph glyph-name="guillemotleft" unicode="&#xab;" horiz-adv-x="500" 
d="M320 305l122 -153h-84l-126 153l126 153h84zM146 305l122 -153h-84l-126 153l126 153h84z" />
    <glyph glyph-name="guilsinglleft" unicode="&#x2039;" horiz-adv-x="278" 
d="M122 305l122 -153h-84l-126 153l126 153h84z" />
    <glyph glyph-name="guilsinglright" unicode="&#x203a;" horiz-adv-x="278" 
d="M156 305l-122 153h84l126 -153l-126 -153h-84z" />
    <glyph glyph-name="fi" unicode="&#xfb01;" horiz-adv-x="1000" 
d="M226 0h-136v12c22 0 28 4 28 23v540c0 19 -6 23 -28 23v12h516c18 0 26 4 30 24h12v-122h-12c-4 20 -12 24 -30 24h-404v-192h268c18 0 26 4 30 24h12v-122h-12c-4 20 -12 24 -30 24h-268v-235c0 -19 6 -23 24 -23v-12zM903 0h-140v12c22 0 28 4 28 23v540
c0 19 -6 23 -28 23v12h140v-12c-22 0 -28 -4 -28 -23v-540c0 -19 6 -23 28 -23v-12z" />
    <glyph glyph-name="fl" unicode="&#xfb02;" horiz-adv-x="1334" 
d="M226 0h-136v12c22 0 28 4 28 23v540c0 19 -6 23 -28 23v12h516c18 0 26 4 30 24h12v-122h-12c-4 20 -12 24 -30 24h-404v-192h268c18 0 26 4 30 24h12v-122h-12c-4 20 -12 24 -30 24h-268v-235c0 -19 6 -23 24 -23v-12zM769 610h120v-12c-12 0 -18 -4 -18 -23v-501h398
c18 0 26 4 30 26h12v-124h-12c-4 20 -12 24 -30 24h-500v12c12 0 18 4 18 23v540c0 19 -6 23 -18 23v12z" />
    <glyph glyph-name="endash" unicode="&#x2013;" horiz-adv-x="500" 
d="M500 336v-62h-500v62h500z" />
    <glyph glyph-name="dagger" unicode="&#x2020;" horiz-adv-x="500" 
d="M271 -84h-42l-26 406l26 170l-154 -28v94l154 -28l-26 198h94l-26 -198l154 28v-94l-154 28l26 -170z" />
    <glyph glyph-name="daggerdbl" unicode="&#x2021;" horiz-adv-x="500" 
d="M203 728h94l-26 -198l154 28v-95l-154 29l26 -166l-26 -174l154 28v-94l-154 28l26 -198h-94l26 198l-154 -28v94l154 -28l-26 173l26 167l-154 -28v94l154 -28z" />
    <glyph glyph-name="periodcentered" unicode="&#xb7;" horiz-adv-x="389" 
d="M138 253c0 31 25 56 56 56s56 -25 56 -56s-25 -56 -56 -56s-56 25 -56 56z" />
    <glyph glyph-name="paragraph" unicode="&#xb6;" horiz-adv-x="600" 
d="M506 728v-24c-71 -5 -82 -15 -82 -48v-740h-58v782h-61v-782h-58v401c-137 0 -198 87 -198 213c0 139 59 198 209 198h248z" />
    <glyph glyph-name="bullet" unicode="&#x2022;" horiz-adv-x="500" 
d="M68 364c0 101 81 182 182 182s182 -81 182 -182s-81 -182 -182 -182s-182 81 -182 182z" />
    <glyph glyph-name="quotesinglbase" unicode="&#x201a;" horiz-adv-x="222" 
d="M47 -150v30c41 13 86 57 86 103c0 7 -7 11 -13 11c-5 0 -9 -4 -16 -4c-26 0 -45 16 -45 46c0 33 27 58 51 58c42 0 65 -35 65 -92c0 -66 -69 -136 -128 -152z" />
    <glyph glyph-name="quotedblbase" unicode="&#x201e;" horiz-adv-x="389" 
d="M38 -150v30c41 13 86 57 86 103c0 7 -7 11 -13 11c-5 0 -9 -4 -16 -4c-26 0 -45 16 -45 46c0 33 27 58 51 58c42 0 65 -35 65 -92c0 -66 -69 -136 -128 -152zM223 -150v30c41 13 86 57 86 103c0 7 -7 11 -13 11c-5 0 -9 -4 -16 -4c-26 0 -45 16 -45 46c0 33 27 58 51 58
c42 0 65 -35 65 -92c0 -66 -69 -136 -128 -152z" />
    <glyph glyph-name="quotedblright" unicode="&#x201d;" horiz-adv-x="389" 
d="M38 504v30c41 13 86 57 86 103c0 7 -7 11 -13 11c-5 0 -9 -4 -16 -4c-26 0 -45 16 -45 46c0 28 27 48 51 48c42 0 65 -25 65 -82c0 -66 -69 -136 -128 -152zM223 504v30c41 13 86 57 86 103c0 7 -7 11 -13 11c-5 0 -9 -4 -16 -4c-26 0 -45 16 -45 46c0 28 27 48 51 48
c42 0 65 -25 65 -82c0 -66 -69 -136 -128 -152z" />
    <glyph glyph-name="guillemotright" unicode="&#xbb;" horiz-adv-x="500" 
d="M180 305l-122 153h84l126 -153l-126 -153h-84zM354 305l-122 153h84l126 -153l-126 -153h-84z" />
    <glyph glyph-name="ellipsis" unicode="&#x2026;" horiz-adv-x="1000" 
d="M115 42c0 28 23 52 52 52s52 -24 52 -52s-23 -52 -52 -52s-52 24 -52 52zM448 42c0 28 23 52 52 52s52 -24 52 -52s-23 -52 -52 -52s-52 24 -52 52zM781 42c0 28 23 52 52 52s52 -24 52 -52s-23 -52 -52 -52s-52 24 -52 52z" />
    <glyph glyph-name="perthousand" unicode="&#x2030;" horiz-adv-x="1000" 
d="M0 583c0 89 71 155 155 155s155 -66 155 -155s-71 -155 -155 -155s-155 66 -155 155zM56 583c0 -57 45 -99 99 -99s99 42 99 99s-45 99 -99 99s-99 -42 -99 -99zM330 145c0 89 71 155 155 155s155 -66 155 -155s-71 -155 -155 -155s-155 66 -155 155zM386 145
c0 -57 45 -99 99 -99s99 42 99 99s-45 99 -99 99s-99 -42 -99 -99zM686 145c0 89 71 155 155 155s155 -66 155 -155s-71 -155 -155 -155s-155 66 -155 155zM742 145c0 -57 45 -99 99 -99s99 42 99 99s-45 99 -99 99s-99 -42 -99 -99zM498 738h52l-408 -748h-52z" />
    <glyph glyph-name="questiondown" unicode="&#xbf;" horiz-adv-x="500" 
d="M179 538h128v-12c-18 -1 -24 -5 -26 -39c-11 -180 -162 -193 -162 -317c0 -62 44 -100 108 -100c92 0 160 66 160 85c0 6 -2 12 -6 15l8 8l80 -88l-8 -8c-3 4 -6 7 -11 7c-30 0 -70 -99 -214 -99c-104 0 -205 60 -205 172c0 184 174 182 174 344c0 14 -4 19 -26 20v12z
M295 686c0 -28 -23 -52 -52 -52s-52 24 -52 52s23 52 52 52s52 -24 52 -52z" />
    <glyph glyph-name="grave" unicode="`" horiz-adv-x="333" 
d="M16 810h136l90 -142h-84z" />
    <glyph glyph-name="acute" unicode="&#xb4;" horiz-adv-x="333" 
d="M91 668l90 142h136l-142 -142h-84z" />
    <glyph glyph-name="circumflex" unicode="&#x2c6;" horiz-adv-x="333" 
d="M166 756l-71 -88h-92l107 142h112l107 -142h-92z" />
    <glyph glyph-name="tilde" unicode="&#x2dc;" horiz-adv-x="333" 
d="M288 796h56c-12 -61 -40 -116 -114 -116c-31 0 -112 38 -138 38c-30 0 -37 -19 -46 -44h-56c11 64 42 116 112 116c50 0 98 -38 139 -38c26 0 41 21 47 44z" />
    <glyph glyph-name="macron" unicode="&#xaf;" horiz-adv-x="333" 
d="M329 700h-326v66h326v-66z" />
    <glyph glyph-name="breve" unicode="&#x2d8;" horiz-adv-x="333" 
d="M5 810h58c9 -51 50 -74 100 -74c55 0 97 17 108 74h58c-7 -88 -73 -142 -160 -142c-96 0 -155 43 -164 142z" />
    <glyph glyph-name="dotaccent" unicode="&#x2d9;" horiz-adv-x="333" 
d="M222 678h-110v110h110v-110z" />
    <glyph glyph-name="dieresis" unicode="&#xa8;" horiz-adv-x="333" 
d="M310 678h-110v110h110v-110zM134 678h-110v110h110v-110z" />
    <glyph glyph-name="ring" unicode="&#x2da;" horiz-adv-x="333" 
d="M64 761c0 57 46 103 103 103s103 -46 103 -103s-46 -103 -103 -103s-103 46 -103 103zM108 761c0 -33 26 -59 59 -59s59 26 59 59s-26 59 -59 59s-59 -26 -59 -59z" />
    <glyph glyph-name="cedilla" unicode="&#xb8;" horiz-adv-x="333" 
d="M55 -203l18 41c17 -8 46 -16 65 -16c38 0 61 11 61 40c0 23 -21 36 -47 36c-14 0 -28 -3 -38 -7l-22 19l66 90h48l-44 -61l2 -2c7 3 16 5 25 5c45 0 90 -28 90 -76c0 -71 -66 -94 -127 -94c-34 0 -66 12 -97 25z" />
    <glyph glyph-name="hungarumlaut" unicode="&#x2dd;" horiz-adv-x="333" 
d="M13 668l76 142h130l-126 -142h-80zM179 668l90 142h136l-142 -142h-84z" />
    <glyph glyph-name="ogonek" unicode="&#x2db;" horiz-adv-x="333" 
d="M268 4v-12c-53 -17 -146 -54 -146 -121c0 -38 19 -49 55 -49c29 0 73 23 99 39l16 -32c-41 -28 -98 -57 -148 -57c-55 0 -102 26 -102 86c0 102 148 130 226 146z" />
    <glyph glyph-name="caron" unicode="&#x2c7;" horiz-adv-x="333" 
d="M329 810l-107 -142h-112l-107 142h92l71 -88l71 88h92z" />
    <glyph glyph-name="emdash" unicode="&#x2014;" horiz-adv-x="1000" 
d="M1000 274h-1000v62h1000v-62z" />
    <glyph glyph-name="AE" unicode="&#xc6;" horiz-adv-x="1000" 
d="M249 290h211v376c0 14 -6 18 -13 18c-12 0 -19 -18 -36 -53zM143 0h-139v12c20 0 24 12 31 26l282 590c12 26 30 61 30 71s-6 16 -21 17v12h618c18 0 26 4 30 32h12v-152h-12c-4 28 -12 32 -30 32h-382v-230h250c18 0 26 4 30 32h12v-152h-12c-4 28 -12 32 -30 32h-250
v-234h382c18 0 26 4 30 32h12v-152h-12c-4 28 -12 32 -30 32h-514v12c24 0 30 4 30 23v167h-253c-73 -160 -81 -165 -81 -179c0 -8 4 -10 17 -11v-12z" />
    <glyph glyph-name="ordfeminine" unicode="&#xaa;" horiz-adv-x="400" 
d="M193 662l-63 -148h131zM85 366h-94v12c8 1 13 4 17 13l127 281c9 21 15 35 15 39c0 6 -4 8 -12 9v12h116v-12c-9 -1 -14 -3 -14 -8s5 -13 10 -25l142 -299c3 -7 7 -9 17 -10v-12h-102v12c7 1 11 3 11 8c0 6 -26 59 -34 72h-179c-8 -16 -31 -66 -31 -72c0 -5 4 -7 11 -8
v-12z" />
    <glyph glyph-name="Lslash" unicode="&#x141;" 
d="M115 35v252l-89 -39v90l89 39v316c0 19 -6 23 -31 23v12h166v-12c-27 0 -33 -4 -33 -23v-272l217 95v-90l-217 -95v-243h491c39 0 41 11 46 36h12v-169h-12c-10 35 -16 45 -46 45h-624v12c25 0 31 4 31 23z" />
    <glyph glyph-name="Oslash" unicode="&#xd8;" horiz-adv-x="944" 
d="M249 152l389 463c-49 26 -106 39 -166 39c-166 0 -312 -98 -312 -290c0 -92 34 -163 89 -212zM695 576l-389 -463c48 -26 106 -39 166 -39c166 0 312 98 312 290c0 93 -35 164 -89 212zM858 770l-105 -125c81 -63 133 -159 133 -281c0 -234 -193 -374 -414 -374
c-81 0 -158 19 -223 55l-73 -87h-90l105 125c-81 64 -133 160 -133 281c0 234 193 374 414 374c80 0 157 -18 223 -55l73 87h90z" />
    <glyph glyph-name="OE" unicode="&#x152;" horiz-adv-x="1000" 
d="M574 322v-234h370c18 0 26 4 30 32h12v-152h-12c-4 28 -12 32 -30 32h-602c-149 0 -328 107 -328 364c0 258 180 364 368 364h562c18 0 26 4 30 32h12v-152h-12c-4 28 -12 32 -30 32h-370v-230h238c18 0 26 4 30 32h12v-156h-12c-4 32 -12 36 -30 36h-238zM472 194v340
c0 84 -42 110 -118 110c-147 0 -238 -127 -238 -280s91 -280 238 -280c76 0 118 26 118 110z" />
    <glyph glyph-name="ordmasculine" unicode="&#xba;" horiz-adv-x="467" 
d="M235 678c-75 0 -145 -40 -145 -129s70 -129 145 -129c72 0 142 40 142 129s-70 129 -142 129zM24 549c0 121 95 189 209 189s210 -68 210 -189s-96 -189 -210 -189s-209 68 -209 189z" />
    <glyph glyph-name="ae" unicode="&#xe6;" horiz-adv-x="1000" 
d="M137 0h-141v12c15 1 17 6 25 18l343 516c12 18 23 31 23 40c0 7 -5 12 -26 12v12h571c18 0 26 4 30 24h12v-122h-12c-4 20 -12 24 -30 24h-350v-192h214c18 0 26 4 30 24h12v-122h-12c-4 20 -12 24 -30 24h-214v-196h360c18 0 26 4 30 30h12v-128h-12
c-4 20 -12 24 -30 24h-465v12c15 0 21 4 21 23v129h-294c-85 -133 -89 -133 -89 -142c0 -7 4 -9 22 -10v-12zM247 238h251v280c0 29 -9 44 -24 44c-13 0 -24 -10 -42 -38z" />
    <glyph glyph-name="dotlessi" unicode="&#x131;" horiz-adv-x="333" 
d="M236 0h-140v12c22 0 28 4 28 23v540c0 19 -6 23 -28 23v12h140v-12c-22 0 -28 -4 -28 -23v-540c0 -19 6 -23 28 -23v-12z" />
    <glyph glyph-name="lslash" unicode="&#x142;" horiz-adv-x="667" 
d="M378 416v-74l-174 -63v-205h398c18 0 26 4 30 26h12v-124h-12c-4 20 -12 24 -30 24h-500v12c12 0 18 4 18 23v214l-70 -25v74l70 25v252c0 19 -6 23 -18 23v12h120v-12c-12 0 -18 -4 -18 -23v-222z" />
    <glyph glyph-name="oslash" unicode="&#xf8;" 
d="M185 145l358 359c-46 29 -100 42 -152 42c-131 0 -267 -79 -267 -241c0 -67 24 -121 61 -160zM593 465l-358 -359c45 -28 101 -42 156 -42c127 0 263 79 263 241c0 68 -24 122 -61 160zM758 630l-107 -107c54 -52 87 -126 87 -218c0 -201 -159 -315 -349 -315
c-80 0 -154 20 -212 58l-68 -68h-89l107 107c-54 53 -87 127 -87 218c0 201 159 315 349 315c79 0 153 -19 212 -57l67 67h90z" />
    <glyph glyph-name="oe" unicode="&#x153;" horiz-adv-x="1000" 
d="M484 215v202c0 80 -54 119 -164 119c-130 0 -220 -67 -220 -231c0 -162 64 -231 220 -231c128 0 164 29 164 141zM302 610h630c18 0 26 4 30 24h12v-122h-12c-4 20 -12 24 -30 24h-364v-192h228c18 0 26 4 30 24h12v-122h-12c-4 20 -12 24 -30 24h-228v-196h374
c18 0 26 4 30 30h12v-128h-12c-4 20 -12 24 -30 24h-640c-184 0 -286 120 -286 305s102 305 286 305z" />
    <glyph glyph-name="germandbls" unicode="&#xdf;" horiz-adv-x="1444" 
d="M637 590l-52 -127l-10 6c1 3 2 10 2 16c0 31 -127 61 -212 61c-129 0 -200 -54 -200 -108c0 -182 490 24 490 -253c0 -115 -111 -194 -265 -195c-85 0 -117 7 -198 33c-52 16 -66 33 -92 33c-11 0 -17 -9 -21 -14l-12 5l67 131l10 -7c-2 -5 -4 -12 -4 -20
c0 -34 128 -87 245 -87c115 0 190 46 190 116c0 185 -490 -24 -490 254c0 130 129 186 289 186c46 0 103 -10 149 -20s81 -20 86 -20s13 7 16 13zM1359 590l-52 -127l-10 6c1 3 2 10 2 16c0 31 -127 61 -212 61c-129 0 -200 -54 -200 -108c0 -182 490 24 490 -253
c0 -115 -111 -194 -265 -195c-85 0 -117 7 -198 33c-52 16 -66 33 -92 33c-11 0 -17 -9 -21 -14l-12 5l67 131l10 -7c-2 -5 -4 -12 -4 -20c0 -34 128 -87 245 -87c115 0 190 46 190 116c0 185 -490 -24 -490 254c0 130 129 186 289 186c46 0 103 -10 149 -20s81 -20 86 -20
s13 7 16 13z" />
    <glyph glyph-name="onesuperior" unicode="&#xb9;" horiz-adv-x="466" 
d="M301 295h-118v10c15 0 18 3 18 14v314h-2c-8 -12 -44 -7 -44 -23h-10v92h10c1 -7 10 -9 21 -9c13 0 29 7 29 19c0 5 -6 10 -12 11v10h108v-10c-12 0 -16 -3 -16 -14v-390c0 -11 4 -14 16 -14v-10z" />
    <glyph glyph-name="logicalnot" unicode="&#xac;" horiz-adv-x="600" 
d="M483 120v196h-436v70h506v-266h-70z" />
    <glyph glyph-name="mu" unicode="&#x3bc;" horiz-adv-x="833" 
d="M98 610h140v-12c-22 0 -28 -4 -28 -23v-387c0 -91 71 -124 210 -124s210 33 210 124v387c0 19 -6 23 -20 23v12h124v-12c-14 0 -20 -4 -20 -23v-381c0 -140 -103 -204 -294 -204c-92 0 -163 15 -210 46v-223c0 -19 6 -23 28 -23v-12h-140v12c22 0 28 4 28 23v762
c0 19 -6 23 -28 23v12z" />
    <glyph glyph-name="trademark" unicode="&#x2122;" horiz-adv-x="990" 
d="M222 698v-314c0 -22 6 -27 50 -30v-30h-172v30c45 3 50 8 50 30v314h-37c-42 0 -59 -21 -67 -58h-30v88h340v-88h-30c-9 37 -27 58 -68 58h-36zM648 324l-152 300h-2v-207c0 -43 9 -59 52 -63v-30h-134v30c44 4 48 20 48 63v226c0 18 -21 55 -64 55v30h123l153 -303
l156 303h106v-30c-42 -6 -52 -15 -52 -60v-254c0 -22 6 -27 46 -30v-30h-164v30c45 3 50 8 50 30v239h-2l-155 -299h-9z" />
    <glyph glyph-name="Eth" unicode="&#xd0;" horiz-adv-x="944" 
d="M20 338v88h96v267c0 19 -6 23 -28 23v12h454c181 0 340 -114 340 -364s-159 -364 -340 -364h-454v12c22 0 28 4 28 23v303h-96zM486 426v-88h-268v-250h324c126 0 238 84 238 276s-112 276 -238 276h-324v-214h268z" />
    <glyph glyph-name="onehalf" unicode="&#xbd;" horiz-adv-x="1167" 
d="M772 738l-427 -748h-74l427 748h74zM309 295h-118v10c15 0 18 3 18 14v314h-2c-8 -12 -44 -7 -44 -23h-10v92h10c1 -7 10 -9 21 -9c13 0 29 7 29 19c0 5 -6 10 -12 11v10h108v-10c-12 0 -16 -3 -16 -14v-390c0 -11 4 -14 16 -14v-10zM760 68h267c12 0 17 2 19 18h10v-100
h-10c-2 12 -7 14 -19 14h-385c0 205 308 197 308 316c0 37 -32 59 -87 59c-73 0 -154 -51 -154 -74c0 -3 1 -7 4 -9l-14 -10l-57 74l16 14c3 -3 6 -4 10 -4c14 0 62 77 200 77c88 0 164 -53 164 -127c0 -159 -250 -177 -272 -248z" />
    <glyph glyph-name="plusminus" unicode="&#xb1;" horiz-adv-x="600" 
d="M265 337v169h70v-169h218v-70h-218v-169h-70v169h-218v70h218zM47 0v70h506v-70h-506z" />
    <glyph glyph-name="Thorn" unicode="&#xde;" horiz-adv-x="833" 
d="M250 0h-158v12c22 0 28 4 28 23v658c0 19 -6 23 -28 23v12h158v-12c-22 0 -28 -4 -28 -23v-125h326c143 0 230 -82 230 -202c0 -122 -85 -204 -229 -204h-327v-127c0 -19 6 -23 28 -23v-12zM222 480v-230h324c97 0 130 47 130 121c0 72 -52 109 -124 109h-330z" />
    <glyph glyph-name="onequarter" unicode="&#xbc;" horiz-adv-x="1167" 
d="M730 144h165v181zM626 66h-10v62l253 271c8 8 12 13 12 20c0 6 -4 8 -12 9v10h128v-10c-15 0 -18 -3 -18 -14v-270h59c11 0 17 3 19 14h10v-92h-10c-2 15 -8 18 -19 18h-59v-60c0 -11 3 -14 18 -14v-10h-116v10c10 0 14 3 14 14v60h-250c-12 0 -17 -2 -19 -18zM792 738
l-427 -748h-74l427 748h74zM309 295h-118v10c15 0 18 3 18 14v314h-2c-8 -12 -44 -7 -44 -23h-10v92h10c1 -7 10 -9 21 -9c13 0 29 7 29 19c0 5 -6 10 -12 11v10h108v-10c-12 0 -16 -3 -16 -14v-390c0 -11 4 -14 16 -14v-10z" />
    <glyph glyph-name="divide" unicode="&#xf7;" horiz-adv-x="600" 
d="M553 218h-506v70h506v-70zM234 456c0 36 30 66 66 66s66 -30 66 -66s-30 -66 -66 -66s-66 30 -66 66zM234 50c0 36 30 66 66 66s66 -30 66 -66s-30 -66 -66 -66s-66 30 -66 66z" />
    <glyph glyph-name="brokenbar" unicode="&#xa6;" horiz-adv-x="222" 
d="M76 0v280h70v-280h-70zM76 448v280h70v-280h-70z" />
    <glyph glyph-name="degree" unicode="&#xb0;" horiz-adv-x="400" 
d="M200 690c-57 0 -96 -41 -96 -100s39 -100 96 -100s96 41 96 100s-39 100 -96 100zM52 590c0 83 65 148 148 148s148 -65 148 -148s-65 -148 -148 -148s-148 65 -148 148z" />
    <glyph glyph-name="thorn" unicode="&#xfe;" horiz-adv-x="722" 
d="M230 0h-140v12c22 0 28 4 28 23v540c0 19 -6 23 -28 23v12h140v-12c-22 0 -28 -4 -28 -23v-95h274c136 0 210 -63 210 -173c0 -106 -73 -177 -176 -177h-308v-95c0 -19 6 -23 28 -23v-12zM202 406v-202h288c72 0 112 39 112 97c0 73 -54 105 -129 105h-271z" />
    <glyph glyph-name="threequarters" unicode="&#xbe;" horiz-adv-x="1167" 
d="M770 144h165v181zM666 66h-10v62l253 271c8 8 12 13 12 20c0 6 -4 8 -12 9v10h128v-10c-15 0 -18 -3 -18 -14v-270h59c11 0 17 3 19 14h10v-92h-10c-2 15 -8 18 -19 18h-59v-60c0 -11 3 -14 18 -14v-10h-116v10c10 0 14 3 14 14v60h-250c-12 0 -17 -2 -19 -18zM880 738
l-427 -748h-74l427 748h74zM62 348l48 84l14 -8c-2 -5 -4 -7 -4 -11c0 -18 82 -56 175 -56c77 0 117 29 117 67c0 54 -56 68 -137 68c-34 0 -37 -4 -38 -16h-10v102h10c1 -14 6 -18 40 -18c75 0 117 11 117 57c0 35 -38 53 -98 53c-86 0 -146 -42 -146 -59c0 -4 3 -5 3 -7
l-13 -8l-64 68l14 10c3 -3 6 -5 10 -5c20 0 63 69 199 69c91 0 177 -47 177 -121c0 -41 -30 -77 -65 -87v-2c43 -8 83 -51 83 -102c0 -85 -82 -137 -208 -137c-121 0 -190 58 -205 58c-5 0 -7 -3 -9 -6z" />
    <glyph glyph-name="twosuperior" unicode="&#xb2;" horiz-adv-x="466" 
d="M140 363h267c12 0 17 2 19 18h10v-100h-10c-2 12 -7 14 -19 14h-385c0 205 308 197 308 316c0 37 -32 59 -87 59c-73 0 -154 -51 -154 -74c0 -3 1 -7 4 -9l-14 -10l-57 74l16 14c3 -3 6 -4 10 -4c14 0 62 77 200 77c88 0 164 -53 164 -127c0 -159 -250 -177 -272 -248z
" />
    <glyph glyph-name="registered" unicode="&#xae;" horiz-adv-x="800" 
d="M226 544v24h187c65 0 127 -29 127 -98c0 -57 -38 -97 -76 -113l54 -85c26 -42 61 -81 83 -94v-10h-64c-37 0 -62 70 -137 178h-56v-118c0 -21 6 -27 52 -30v-30h-170v30c47 3 52 9 52 30v286c0 21 -5 27 -52 30zM344 538v-162h50c48 0 74 28 74 90c-2 56 -32 72 -77 72
h-47zM34 364c0 206 164 374 366 374s366 -168 366 -374s-164 -374 -366 -374s-366 168 -366 374zM400 688c-168 0 -304 -152 -304 -324s136 -324 304 -324s304 152 304 324s-136 324 -304 324z" />
    <glyph glyph-name="minus" unicode="&#x2212;" horiz-adv-x="600" 
d="M47 218v70h506v-70h-506z" />
    <glyph glyph-name="eth" unicode="&#xf0;" 
d="M32 276v74h86v225c0 19 -6 23 -28 23v12h358c151 0 281 -103 281 -293c0 -207 -110 -317 -287 -317h-352v12c22 0 28 4 28 23v241h-86zM410 350v-74h-208v-202h238c122 0 205 74 205 241c0 119 -61 221 -231 221h-212v-186h208z" />
    <glyph glyph-name="multiply" unicode="&#xd7;" horiz-adv-x="600" 
d="M553 457l-204 -204l204 -204l-49 -49l-204 202l-204 -202l-49 49l204 204l-204 204l49 49l204 -202l204 202z" />
    <glyph glyph-name="threesuperior" unicode="&#xb3;" horiz-adv-x="466" 
d="M8 348l48 84l14 -8c-2 -5 -4 -7 -4 -11c0 -18 82 -56 175 -56c77 0 117 29 117 67c0 54 -56 68 -137 68c-34 0 -37 -4 -38 -16h-10v102h10c1 -14 6 -18 40 -18c75 0 117 11 117 57c0 35 -38 53 -98 53c-86 0 -146 -42 -146 -59c0 -4 3 -5 3 -7l-13 -8l-64 68l14 10
c3 -3 6 -5 10 -5c20 0 63 69 199 69c91 0 177 -47 177 -121c0 -41 -30 -77 -65 -87v-2c43 -8 83 -51 83 -102c0 -85 -82 -137 -208 -137c-121 0 -190 58 -205 58c-5 0 -7 -3 -9 -6z" />
    <glyph glyph-name="copyright" unicode="&#xa9;" horiz-adv-x="800" 
d="M34 364c0 206 164 374 366 374s366 -168 366 -374s-164 -374 -366 -374s-366 168 -366 374zM400 688c-168 0 -304 -152 -304 -324s136 -324 304 -324s304 152 304 324s-136 324 -304 324zM554 271h29l-20 -81c-3 -15 -86 -32 -140 -32c-123 0 -228 61 -228 214
c0 90 73 210 234 210c56 0 136 -18 136 -42v-77h-28c-4 42 -27 87 -112 87c-99 0 -150 -72 -150 -173c0 -110 50 -187 158 -187c72 0 102 38 121 81z" />
    <glyph glyph-name="Aacute" unicode="&#xc1;" horiz-adv-x="833" 
d="M601 202h-389c-64 -155 -70 -168 -70 -173c0 -8 3 -14 18 -17v-12h-148v12c32 1 31 9 59 72l257 595c3 9 6 16 6 20c0 11 -5 14 -21 17v12h190v-12c-9 -3 -21 -6 -21 -17c0 -4 4 -13 10 -27l292 -631c10 -22 11 -25 38 -29v-12h-166v12c13 1 19 5 19 12
c0 15 -10 25 -74 178zM402 648l-153 -358h314zM329 767l90 142h136l-142 -142h-84z" />
    <glyph glyph-name="Acircumflex" unicode="&#xc2;" horiz-adv-x="833" 
d="M601 202h-389c-64 -155 -70 -168 -70 -173c0 -8 3 -14 18 -17v-12h-148v12c32 1 31 9 59 72l257 595c3 9 6 16 6 20c0 11 -5 14 -21 17v12h190v-12c-9 -3 -21 -6 -21 -17c0 -4 4 -13 10 -27l292 -631c10 -22 11 -25 38 -29v-12h-166v12c13 1 19 5 19 12
c0 15 -10 25 -74 178zM402 648l-153 -358h314zM404 855l-71 -88h-92l107 142h112l107 -142h-92z" />
    <glyph glyph-name="Adieresis" unicode="&#xc4;" horiz-adv-x="833" 
d="M601 202h-389c-64 -155 -70 -168 -70 -173c0 -8 3 -14 18 -17v-12h-148v12c32 1 31 9 59 72l257 595c3 9 6 16 6 20c0 11 -5 14 -21 17v12h190v-12c-9 -3 -21 -6 -21 -17c0 -4 4 -13 10 -27l292 -631c10 -22 11 -25 38 -29v-12h-166v12c13 1 19 5 19 12
c0 15 -10 25 -74 178zM402 648l-153 -358h314zM548 777h-110v110h110v-110zM372 777h-110v110h110v-110z" />
    <glyph glyph-name="Agrave" unicode="&#xc0;" horiz-adv-x="833" 
d="M601 202h-389c-64 -155 -70 -168 -70 -173c0 -8 3 -14 18 -17v-12h-148v12c32 1 31 9 59 72l257 595c3 9 6 16 6 20c0 11 -5 14 -21 17v12h190v-12c-9 -3 -21 -6 -21 -17c0 -4 4 -13 10 -27l292 -631c10 -22 11 -25 38 -29v-12h-166v12c13 1 19 5 19 12
c0 15 -10 25 -74 178zM402 648l-153 -358h314zM254 909h136l90 -142h-84z" />
    <glyph glyph-name="Aring" unicode="&#xc5;" horiz-adv-x="833" 
d="M601 202h-389c-64 -155 -70 -168 -70 -173c0 -8 3 -14 18 -17v-12h-148v12c32 1 31 9 59 72l257 595c3 9 6 16 6 20c0 11 -5 14 -21 17v12h190v-12c-9 -3 -21 -6 -21 -17c0 -4 4 -13 10 -27l292 -631c10 -22 11 -25 38 -29v-12h-166v12c13 1 19 5 19 12
c0 15 -10 25 -74 178zM402 648l-153 -358h314zM302 860c0 57 46 103 103 103s103 -46 103 -103s-46 -103 -103 -103s-103 46 -103 103zM346 860c0 -33 26 -59 59 -59s59 26 59 59s-26 59 -59 59s-59 -26 -59 -59z" />
    <glyph glyph-name="Atilde" unicode="&#xc3;" horiz-adv-x="833" 
d="M601 202h-389c-64 -155 -70 -168 -70 -173c0 -8 3 -14 18 -17v-12h-148v12c32 1 31 9 59 72l257 595c3 9 6 16 6 20c0 11 -5 14 -21 17v12h190v-12c-9 -3 -21 -6 -21 -17c0 -4 4 -13 10 -27l292 -631c10 -22 11 -25 38 -29v-12h-166v12c13 1 19 5 19 12
c0 15 -10 25 -74 178zM402 648l-153 -358h314zM526 895h56c-12 -61 -40 -116 -114 -116c-31 0 -112 38 -138 38c-30 0 -37 -19 -46 -44h-56c11 64 42 116 112 116c50 0 98 -38 139 -38c26 0 41 21 47 44z" />
    <glyph glyph-name="Ccedilla" unicode="&#xc7;" horiz-adv-x="889" 
d="M828 668l-73 -140l-15 8c2 6 3 12 3 15c0 43 -107 103 -259 103c-180 0 -328 -107 -328 -288s142 -292 316 -292c154 0 288 93 288 131c0 11 -2 19 -4 25l8 6l94 -120l-8 -6c-6 5 -13 10 -25 10c-33 0 -115 -130 -365 -130c-204 0 -406 151 -406 374s202 374 422 374
c196 0 292 -78 320 -78c6 0 13 5 20 15zM356 -203l18 41c17 -8 46 -16 65 -16c38 0 61 11 61 40c0 23 -21 36 -47 36c-14 0 -28 -3 -38 -7l-22 19l66 90h48l-44 -61l2 -2c7 3 16 5 25 5c45 0 90 -28 90 -76c0 -71 -66 -94 -127 -94c-34 0 -66 12 -97 25z" />
    <glyph glyph-name="Eacute" unicode="&#xc9;" horiz-adv-x="833" 
d="M216 322v-234h514c18 0 26 4 30 32h12v-152h-12c-4 28 -12 32 -30 32h-646v12c24 0 30 4 30 23v658c0 19 -6 23 -30 23v12h646c18 0 26 4 30 32h12v-152h-12c-4 28 -12 32 -30 32h-514v-230h360c18 0 26 4 30 32h12v-156h-12c-4 32 -12 36 -30 36h-360zM347 767l90 142
h136l-142 -142h-84z" />
    <glyph glyph-name="Ecircumflex" unicode="&#xca;" horiz-adv-x="833" 
d="M216 322v-234h514c18 0 26 4 30 32h12v-152h-12c-4 28 -12 32 -30 32h-646v12c24 0 30 4 30 23v658c0 19 -6 23 -30 23v12h646c18 0 26 4 30 32h12v-152h-12c-4 28 -12 32 -30 32h-514v-230h360c18 0 26 4 30 32h12v-156h-12c-4 32 -12 36 -30 36h-360zM422 855l-71 -88
h-92l107 142h112l107 -142h-92z" />
    <glyph glyph-name="Edieresis" unicode="&#xcb;" horiz-adv-x="833" 
d="M216 322v-234h514c18 0 26 4 30 32h12v-152h-12c-4 28 -12 32 -30 32h-646v12c24 0 30 4 30 23v658c0 19 -6 23 -30 23v12h646c18 0 26 4 30 32h12v-152h-12c-4 28 -12 32 -30 32h-514v-230h360c18 0 26 4 30 32h12v-156h-12c-4 32 -12 36 -30 36h-360zM566 777h-110v110
h110v-110zM390 777h-110v110h110v-110z" />
    <glyph glyph-name="Egrave" unicode="&#xc8;" horiz-adv-x="833" 
d="M216 322v-234h514c18 0 26 4 30 32h12v-152h-12c-4 28 -12 32 -30 32h-646v12c24 0 30 4 30 23v658c0 19 -6 23 -30 23v12h646c18 0 26 4 30 32h12v-152h-12c-4 28 -12 32 -30 32h-514v-230h360c18 0 26 4 30 32h12v-156h-12c-4 32 -12 36 -30 36h-360zM272 909h136
l90 -142h-84z" />
    <glyph glyph-name="Iacute" unicode="&#xcd;" horiz-adv-x="333" 
d="M242 0h-150v12c18 0 24 4 24 23v658c0 19 -6 23 -24 23v12h150v-12c-18 0 -24 -4 -24 -23v-658c0 -19 6 -23 24 -23v-12zM91 767l90 142h136l-142 -142h-84z" />
    <glyph glyph-name="Icircumflex" unicode="&#xce;" horiz-adv-x="333" 
d="M242 0h-150v12c18 0 24 4 24 23v658c0 19 -6 23 -24 23v12h150v-12c-18 0 -24 -4 -24 -23v-658c0 -19 6 -23 24 -23v-12zM166 855l-71 -88h-92l107 142h112l107 -142h-92z" />
    <glyph glyph-name="Idieresis" unicode="&#xcf;" horiz-adv-x="333" 
d="M242 0h-150v12c18 0 24 4 24 23v658c0 19 -6 23 -24 23v12h150v-12c-18 0 -24 -4 -24 -23v-658c0 -19 6 -23 24 -23v-12zM310 777h-110v110h110v-110zM134 777h-110v110h110v-110z" />
    <glyph glyph-name="Igrave" unicode="&#xcc;" horiz-adv-x="333" 
d="M242 0h-150v12c18 0 24 4 24 23v658c0 19 -6 23 -24 23v12h150v-12c-18 0 -24 -4 -24 -23v-658c0 -19 6 -23 24 -23v-12zM16 909h136l90 -142h-84z" />
    <glyph glyph-name="Ntilde" unicode="&#xd1;" horiz-adv-x="944" 
d="M122 35v658c0 19 -6 23 -34 23v12h202v-12c-11 0 -26 -4 -26 -14s16 -25 32 -45l438 -513v549c0 19 -6 23 -32 23v12h154v-12c-28 0 -34 -4 -34 -23v-658c0 -19 6 -23 34 -23v-12h-172v12c20 1 24 5 24 13c0 10 -6 14 -16 27l-482 562v-579c0 -19 6 -23 32 -23v-12h-154
v12c28 0 34 4 34 23zM594 895h56c-12 -61 -40 -116 -114 -116c-31 0 -112 38 -138 38c-30 0 -37 -19 -46 -44h-56c11 64 42 116 112 116c50 0 98 -38 139 -38c26 0 41 21 47 44z" />
    <glyph glyph-name="Oacute" unicode="&#xd3;" horiz-adv-x="944" 
d="M160 364c0 -192 146 -290 312 -290s312 98 312 290s-146 290 -312 290s-312 -98 -312 -290zM58 364c0 234 193 374 414 374s414 -140 414 -374s-193 -374 -414 -374s-414 140 -414 374zM397 767l90 142h136l-142 -142h-84z" />
    <glyph glyph-name="Ocircumflex" unicode="&#xd4;" horiz-adv-x="944" 
d="M160 364c0 -192 146 -290 312 -290s312 98 312 290s-146 290 -312 290s-312 -98 -312 -290zM58 364c0 234 193 374 414 374s414 -140 414 -374s-193 -374 -414 -374s-414 140 -414 374zM472 855l-71 -88h-92l107 142h112l107 -142h-92z" />
    <glyph glyph-name="Odieresis" unicode="&#xd6;" horiz-adv-x="944" 
d="M160 364c0 -192 146 -290 312 -290s312 98 312 290s-146 290 -312 290s-312 -98 -312 -290zM58 364c0 234 193 374 414 374s414 -140 414 -374s-193 -374 -414 -374s-414 140 -414 374zM616 777h-110v110h110v-110zM440 777h-110v110h110v-110z" />
    <glyph glyph-name="Ograve" unicode="&#xd2;" horiz-adv-x="944" 
d="M160 364c0 -192 146 -290 312 -290s312 98 312 290s-146 290 -312 290s-312 -98 -312 -290zM58 364c0 234 193 374 414 374s414 -140 414 -374s-193 -374 -414 -374s-414 140 -414 374zM322 909h136l90 -142h-84z" />
    <glyph glyph-name="Otilde" unicode="&#xd5;" horiz-adv-x="944" 
d="M160 364c0 -192 146 -290 312 -290s312 98 312 290s-146 290 -312 290s-312 -98 -312 -290zM58 364c0 234 193 374 414 374s414 -140 414 -374s-193 -374 -414 -374s-414 140 -414 374zM594 895h56c-12 -61 -40 -116 -114 -116c-31 0 -112 38 -138 38
c-30 0 -37 -19 -46 -44h-56c11 64 42 116 112 116c50 0 98 -38 139 -38c26 0 41 21 47 44z" />
    <glyph glyph-name="Scaron" unicode="&#x160;" horiz-adv-x="833" 
d="M757 674l-62 -130l-13 6c0 5 1 9 1 12c0 27 -120 92 -286 92c-125 0 -218 -50 -218 -131c0 -201 592 7 592 -304c0 -150 -148 -229 -341 -229c-227 0 -323 91 -343 91c-12 0 -17 -5 -24 -15l-13 6l73 142l12 -7c-1 -6 -4 -12 -4 -18c0 -43 152 -115 303 -115
c163 0 247 59 247 139c0 205 -592 -15 -592 309c0 124 136 216 326 216c89 0 162 -18 214 -36c53 -18 85 -36 93 -36c9 0 14 5 23 12zM579 909l-107 -142h-112l-107 142h92l71 -88l71 88h92z" />
    <glyph glyph-name="Uacute" unicode="&#xda;" horiz-adv-x="944" 
d="M100 728h142v-12c-14 0 -20 -4 -20 -23v-447c0 -107 44 -172 248 -172s248 65 248 172v447c0 19 -6 23 -20 23v12h146v-12c-18 0 -24 -4 -24 -23v-447c0 -142 -86 -256 -350 -256s-350 114 -350 256v447c0 19 -6 23 -20 23v12zM397 767l90 142h136l-142 -142h-84z" />
    <glyph glyph-name="Ucircumflex" unicode="&#xdb;" horiz-adv-x="944" 
d="M100 728h142v-12c-14 0 -20 -4 -20 -23v-447c0 -107 44 -172 248 -172s248 65 248 172v447c0 19 -6 23 -20 23v12h146v-12c-18 0 -24 -4 -24 -23v-447c0 -142 -86 -256 -350 -256s-350 114 -350 256v447c0 19 -6 23 -20 23v12zM472 855l-71 -88h-92l107 142h112l107 -142
h-92z" />
    <glyph glyph-name="Udieresis" unicode="&#xdc;" horiz-adv-x="944" 
d="M100 728h142v-12c-14 0 -20 -4 -20 -23v-447c0 -107 44 -172 248 -172s248 65 248 172v447c0 19 -6 23 -20 23v12h146v-12c-18 0 -24 -4 -24 -23v-447c0 -142 -86 -256 -350 -256s-350 114 -350 256v447c0 19 -6 23 -20 23v12zM616 777h-110v110h110v-110zM440 777h-110
v110h110v-110z" />
    <glyph glyph-name="Ugrave" unicode="&#xd9;" horiz-adv-x="944" 
d="M100 728h142v-12c-14 0 -20 -4 -20 -23v-447c0 -107 44 -172 248 -172s248 65 248 172v447c0 19 -6 23 -20 23v12h146v-12c-18 0 -24 -4 -24 -23v-447c0 -142 -86 -256 -350 -256s-350 114 -350 256v447c0 19 -6 23 -20 23v12zM322 909h136l90 -142h-84z" />
    <glyph glyph-name="Yacute" unicode="&#xdd;" 
d="M18 728h196v-12c-26 -1 -30 -9 -30 -16c0 -9 13 -14 218 -290c209 281 215 285 215 293c0 6 -4 12 -21 13v12h164v-12c-22 -1 -32 -13 -43 -28l-267 -364v-289c0 -19 6 -23 30 -23v-12h-162v12c24 0 30 4 30 23v285l-282 374c-9 11 -16 20 -48 22v12zM314 767l90 142h136
l-142 -142h-84z" />
    <glyph glyph-name="Ydieresis" unicode="&#x178;" 
d="M18 728h196v-12c-26 -1 -30 -9 -30 -16c0 -9 13 -14 218 -290c209 281 215 285 215 293c0 6 -4 12 -21 13v12h164v-12c-22 -1 -32 -13 -43 -28l-267 -364v-289c0 -19 6 -23 30 -23v-12h-162v12c24 0 30 4 30 23v285l-282 374c-9 11 -16 20 -48 22v12zM533 777h-110v110
h110v-110zM357 777h-110v110h110v-110z" />
    <glyph glyph-name="Zcaron" unicode="&#x17d;" 
d="M45 0l500 640h-444c-18 0 -26 -4 -30 -32h-12v152h12c4 -28 12 -32 30 -32h632l-502 -640h442c18 0 26 4 30 32h12v-152h-12c-4 28 -12 32 -30 32h-628zM552 909l-107 -142h-112l-107 142h92l71 -88l71 88h92z" />
    <glyph glyph-name="aacute" unicode="&#xe1;" horiz-adv-x="667" 
d="M323 524l-119 -286h243zM146 0h-134v12c18 0 25 7 32 23l221 531c3 8 5 14 5 18c0 9 -9 13 -28 14v12h168v-12c-16 -1 -26 -4 -26 -12c0 -5 2 -11 5 -18l236 -542c5 -12 9 -13 29 -14v-12h-142v12c18 0 23 5 23 13s-4 16 -59 139h-300c-50 -125 -56 -126 -56 -139
c0 -9 5 -12 26 -13v-12zM258 668l90 142h136l-142 -142h-84z" />
    <glyph glyph-name="acircumflex" unicode="&#xe2;" horiz-adv-x="667" 
d="M323 524l-119 -286h243zM146 0h-134v12c18 0 25 7 32 23l221 531c3 8 5 14 5 18c0 9 -9 13 -28 14v12h168v-12c-16 -1 -26 -4 -26 -12c0 -5 2 -11 5 -18l236 -542c5 -12 9 -13 29 -14v-12h-142v12c18 0 23 5 23 13s-4 16 -59 139h-300c-50 -125 -56 -126 -56 -139
c0 -9 5 -12 26 -13v-12zM333 756l-71 -88h-92l107 142h112l107 -142h-92z" />
    <glyph glyph-name="adieresis" unicode="&#xe4;" horiz-adv-x="667" 
d="M323 524l-119 -286h243zM146 0h-134v12c18 0 25 7 32 23l221 531c3 8 5 14 5 18c0 9 -9 13 -28 14v12h168v-12c-16 -1 -26 -4 -26 -12c0 -5 2 -11 5 -18l236 -542c5 -12 9 -13 29 -14v-12h-142v12c18 0 23 5 23 13s-4 16 -59 139h-300c-50 -125 -56 -126 -56 -139
c0 -9 5 -12 26 -13v-12zM477 678h-110v110h110v-110zM301 678h-110v110h110v-110z" />
    <glyph glyph-name="agrave" unicode="&#xe0;" horiz-adv-x="667" 
d="M323 524l-119 -286h243zM146 0h-134v12c18 0 25 7 32 23l221 531c3 8 5 14 5 18c0 9 -9 13 -28 14v12h168v-12c-16 -1 -26 -4 -26 -12c0 -5 2 -11 5 -18l236 -542c5 -12 9 -13 29 -14v-12h-142v12c18 0 23 5 23 13s-4 16 -59 139h-300c-50 -125 -56 -126 -56 -139
c0 -9 5 -12 26 -13v-12zM183 810h136l90 -142h-84z" />
    <glyph glyph-name="aring" unicode="&#xe5;" horiz-adv-x="667" 
d="M323 524l-119 -286h243zM146 0h-134v12c18 0 25 7 32 23l221 531c3 8 5 14 5 18c0 9 -9 13 -28 14v12h168v-12c-16 -1 -26 -4 -26 -12c0 -5 2 -11 5 -18l236 -542c5 -12 9 -13 29 -14v-12h-142v12c18 0 23 5 23 13s-4 16 -59 139h-300c-50 -125 -56 -126 -56 -139
c0 -9 5 -12 26 -13v-12zM231 761c0 57 46 103 103 103s103 -46 103 -103s-46 -103 -103 -103s-103 46 -103 103zM275 761c0 -33 26 -59 59 -59s59 26 59 59s-26 59 -59 59s-59 -26 -59 -59z" />
    <glyph glyph-name="atilde" unicode="&#xe3;" horiz-adv-x="667" 
d="M323 524l-119 -286h243zM146 0h-134v12c18 0 25 7 32 23l221 531c3 8 5 14 5 18c0 9 -9 13 -28 14v12h168v-12c-16 -1 -26 -4 -26 -12c0 -5 2 -11 5 -18l236 -542c5 -12 9 -13 29 -14v-12h-142v12c18 0 23 5 23 13s-4 16 -59 139h-300c-50 -125 -56 -126 -56 -139
c0 -9 5 -12 26 -13v-12zM455 796h56c-12 -61 -40 -116 -114 -116c-31 0 -112 38 -138 38c-30 0 -37 -19 -46 -44h-56c11 64 42 116 112 116c50 0 98 -38 139 -38c26 0 41 21 47 44z" />
    <glyph glyph-name="ccedilla" unicode="&#xe7;" horiz-adv-x="722" 
d="M660 566l-66 -118l-8 4c2 6 4 12 4 22c0 20 -109 72 -208 72c-148 0 -264 -86 -264 -243c0 -149 116 -239 261 -239c81 0 223 55 223 101c0 9 -3 13 -8 19l10 8l84 -105l-10 -6c-5 4 -15 9 -21 9c-18 0 -129 -100 -274 -100c-191 0 -349 120 -349 320
c0 178 140 310 338 310c145 0 239 -68 252 -68c16 0 18 9 28 18zM262 -203l18 41c17 -8 46 -16 65 -16c38 0 61 11 61 40c0 23 -21 36 -47 36c-14 0 -28 -3 -38 -7l-22 19l66 90h48l-44 -61l2 -2c7 3 16 5 25 5c45 0 90 -28 90 -76c0 -71 -66 -94 -127 -94
c-34 0 -66 12 -97 25z" />
    <glyph glyph-name="eacute" unicode="&#xe9;" horiz-adv-x="722" 
d="M656 634v-122h-12c-4 20 -12 24 -30 24h-408v-192h272c18 0 26 4 30 24h12v-122h-12c-4 20 -12 24 -30 24h-272v-196h418c18 0 26 4 30 30h12v-128h-12c-4 20 -12 24 -30 24h-522v12c14 0 20 4 20 23v540c0 19 -6 23 -20 23v12h512c18 0 26 4 30 24h12zM309 668l90 142
h136l-142 -142h-84z" />
    <glyph glyph-name="ecircumflex" unicode="&#xea;" horiz-adv-x="722" 
d="M656 634v-122h-12c-4 20 -12 24 -30 24h-408v-192h272c18 0 26 4 30 24h12v-122h-12c-4 20 -12 24 -30 24h-272v-196h418c18 0 26 4 30 30h12v-128h-12c-4 20 -12 24 -30 24h-522v12c14 0 20 4 20 23v540c0 19 -6 23 -20 23v12h512c18 0 26 4 30 24h12zM384 756l-71 -88
h-92l107 142h112l107 -142h-92z" />
    <glyph glyph-name="edieresis" unicode="&#xeb;" horiz-adv-x="722" 
d="M656 634v-122h-12c-4 20 -12 24 -30 24h-408v-192h272c18 0 26 4 30 24h12v-122h-12c-4 20 -12 24 -30 24h-272v-196h418c18 0 26 4 30 30h12v-128h-12c-4 20 -12 24 -30 24h-522v12c14 0 20 4 20 23v540c0 19 -6 23 -20 23v12h512c18 0 26 4 30 24h12zM528 678h-110v110
h110v-110zM352 678h-110v110h110v-110z" />
    <glyph glyph-name="egrave" unicode="&#xe8;" horiz-adv-x="722" 
d="M656 634v-122h-12c-4 20 -12 24 -30 24h-408v-192h272c18 0 26 4 30 24h12v-122h-12c-4 20 -12 24 -30 24h-272v-196h418c18 0 26 4 30 30h12v-128h-12c-4 20 -12 24 -30 24h-522v12c14 0 20 4 20 23v540c0 19 -6 23 -20 23v12h512c18 0 26 4 30 24h12zM234 810h136
l90 -142h-84z" />
    <glyph glyph-name="iacute" unicode="&#xed;" horiz-adv-x="333" 
d="M236 0h-140v12c22 0 28 4 28 23v540c0 19 -6 23 -28 23v12h140v-12c-22 0 -28 -4 -28 -23v-540c0 -19 6 -23 28 -23v-12zM91 668l90 142h136l-142 -142h-84z" />
    <glyph glyph-name="icircumflex" unicode="&#xee;" horiz-adv-x="333" 
d="M236 0h-140v12c22 0 28 4 28 23v540c0 19 -6 23 -28 23v12h140v-12c-22 0 -28 -4 -28 -23v-540c0 -19 6 -23 28 -23v-12zM166 756l-71 -88h-92l107 142h112l107 -142h-92z" />
    <glyph glyph-name="idieresis" unicode="&#xef;" horiz-adv-x="333" 
d="M236 0h-140v12c22 0 28 4 28 23v540c0 19 -6 23 -28 23v12h140v-12c-22 0 -28 -4 -28 -23v-540c0 -19 6 -23 28 -23v-12zM310 678h-110v110h110v-110zM134 678h-110v110h110v-110z" />
    <glyph glyph-name="igrave" unicode="&#xec;" horiz-adv-x="333" 
d="M236 0h-140v12c22 0 28 4 28 23v540c0 19 -6 23 -28 23v12h140v-12c-22 0 -28 -4 -28 -23v-540c0 -19 6 -23 28 -23v-12zM16 810h136l90 -142h-84z" />
    <glyph glyph-name="ntilde" unicode="&#xf1;" horiz-adv-x="833" 
d="M222 0h-124v12c18 0 24 4 24 23v540c0 19 -6 23 -24 23v12h166v-12c-13 -1 -18 -4 -18 -10c0 -13 23 -29 384 -464h2v451c0 19 -6 23 -26 23v12h128v-12c-20 0 -26 -4 -26 -23v-540c0 -19 6 -23 26 -23v-12h-144v12c18 1 24 3 24 11c0 6 -12 13 -414 497h-2v-485
c0 -19 6 -23 24 -23v-12zM538 796h56c-12 -61 -40 -116 -114 -116c-31 0 -112 38 -138 38c-30 0 -37 -19 -46 -44h-56c11 64 42 116 112 116c50 0 98 -38 139 -38c26 0 41 21 47 44z" />
    <glyph glyph-name="oacute" unicode="&#xf3;" 
d="M124 305c0 -162 136 -241 267 -241c127 0 263 79 263 241s-136 241 -263 241c-131 0 -267 -79 -267 -241zM40 305c0 201 159 315 349 315s349 -114 349 -315s-159 -315 -349 -315s-349 114 -349 315zM314 668l90 142h136l-142 -142h-84z" />
    <glyph glyph-name="ocircumflex" unicode="&#xf4;" 
d="M124 305c0 -162 136 -241 267 -241c127 0 263 79 263 241s-136 241 -263 241c-131 0 -267 -79 -267 -241zM40 305c0 201 159 315 349 315s349 -114 349 -315s-159 -315 -349 -315s-349 114 -349 315zM389 756l-71 -88h-92l107 142h112l107 -142h-92z" />
    <glyph glyph-name="odieresis" unicode="&#xf6;" 
d="M124 305c0 -162 136 -241 267 -241c127 0 263 79 263 241s-136 241 -263 241c-131 0 -267 -79 -267 -241zM40 305c0 201 159 315 349 315s349 -114 349 -315s-159 -315 -349 -315s-349 114 -349 315zM533 678h-110v110h110v-110zM357 678h-110v110h110v-110z" />
    <glyph glyph-name="ograve" unicode="&#xf2;" 
d="M124 305c0 -162 136 -241 267 -241c127 0 263 79 263 241s-136 241 -263 241c-131 0 -267 -79 -267 -241zM40 305c0 201 159 315 349 315s349 -114 349 -315s-159 -315 -349 -315s-349 114 -349 315zM239 810h136l90 -142h-84z" />
    <glyph glyph-name="otilde" unicode="&#xf5;" 
d="M124 305c0 -162 136 -241 267 -241c127 0 263 79 263 241s-136 241 -263 241c-131 0 -267 -79 -267 -241zM40 305c0 201 159 315 349 315s349 -114 349 -315s-159 -315 -349 -315s-349 114 -349 315zM511 796h56c-12 -61 -40 -116 -114 -116c-31 0 -112 38 -138 38
c-30 0 -37 -19 -46 -44h-56c11 64 42 116 112 116c50 0 98 -38 139 -38c26 0 41 21 47 44z" />
    <glyph glyph-name="scaron" unicode="&#x161;" horiz-adv-x="722" 
d="M637 590l-52 -127l-10 6c1 3 2 10 2 16c0 31 -127 61 -212 61c-129 0 -200 -54 -200 -108c0 -182 490 24 490 -253c0 -115 -111 -194 -265 -195c-85 0 -117 7 -198 33c-52 16 -66 33 -92 33c-11 0 -17 -9 -21 -14l-12 5l67 131l10 -7c-2 -5 -4 -12 -4 -20
c0 -34 128 -87 245 -87c115 0 190 46 190 116c0 185 -490 -24 -490 254c0 130 129 186 289 186c46 0 103 -10 149 -20s81 -20 86 -20s13 7 16 13zM524 810l-107 -142h-112l-107 142h92l71 -88l71 88h92z" />
    <glyph glyph-name="uacute" unicode="&#xfa;" horiz-adv-x="833" 
d="M98 610h140v-12c-22 0 -28 -4 -28 -23v-387c0 -91 71 -124 210 -124s210 33 210 124v387c0 19 -6 23 -20 23v12h124v-12c-14 0 -20 -4 -20 -23v-381c0 -140 -103 -204 -294 -204s-294 64 -294 204v381c0 19 -6 23 -28 23v12zM341 668l90 142h136l-142 -142h-84z" />
    <glyph glyph-name="ucircumflex" unicode="&#xfb;" horiz-adv-x="833" 
d="M98 610h140v-12c-22 0 -28 -4 -28 -23v-387c0 -91 71 -124 210 -124s210 33 210 124v387c0 19 -6 23 -20 23v12h124v-12c-14 0 -20 -4 -20 -23v-381c0 -140 -103 -204 -294 -204s-294 64 -294 204v381c0 19 -6 23 -28 23v12zM416 756l-71 -88h-92l107 142h112l107 -142
h-92z" />
    <glyph glyph-name="udieresis" unicode="&#xfc;" horiz-adv-x="833" 
d="M98 610h140v-12c-22 0 -28 -4 -28 -23v-387c0 -91 71 -124 210 -124s210 33 210 124v387c0 19 -6 23 -20 23v12h124v-12c-14 0 -20 -4 -20 -23v-381c0 -140 -103 -204 -294 -204s-294 64 -294 204v381c0 19 -6 23 -28 23v12zM560 678h-110v110h110v-110zM384 678h-110
v110h110v-110z" />
    <glyph glyph-name="ugrave" unicode="&#xf9;" horiz-adv-x="833" 
d="M98 610h140v-12c-22 0 -28 -4 -28 -23v-387c0 -91 71 -124 210 -124s210 33 210 124v387c0 19 -6 23 -20 23v12h124v-12c-14 0 -20 -4 -20 -23v-381c0 -140 -103 -204 -294 -204s-294 64 -294 204v381c0 19 -6 23 -28 23v12zM266 810h136l90 -142h-84z" />
    <glyph glyph-name="yacute" unicode="&#xfd;" horiz-adv-x="667" 
d="M404 0h-140v12c22 0 28 4 28 23v231l-235 310c-11 15 -20 21 -45 22v12h168v-12c-22 -1 -28 -6 -28 -16c0 -9 118 -156 184 -248c64 90 184 238 184 251c0 9 -4 12 -26 13v12h160v-12c-19 -1 -29 -7 -35 -15l-243 -319v-229c0 -19 6 -23 28 -23v-12zM258 668l90 142h136
l-142 -142h-84z" />
    <glyph glyph-name="ydieresis" unicode="&#xff;" horiz-adv-x="667" 
d="M404 0h-140v12c22 0 28 4 28 23v231l-235 310c-11 15 -20 21 -45 22v12h168v-12c-22 -1 -28 -6 -28 -16c0 -9 118 -156 184 -248c64 90 184 238 184 251c0 9 -4 12 -26 13v12h160v-12c-19 -1 -29 -7 -35 -15l-243 -319v-229c0 -19 6 -23 28 -23v-12zM477 678h-110v110
h110v-110zM301 678h-110v110h110v-110z" />
    <glyph glyph-name="zcaron" unicode="&#x17e;" horiz-adv-x="667" 
d="M54 512v122h12c4 -20 12 -24 30 -24h526l-420 -536h360c18 0 26 4 30 24h12v-122h-12c-4 20 -12 24 -30 24h-516l420 536h-370c-18 0 -26 -4 -30 -24h-12zM496 810l-107 -142h-112l-107 142h92l71 -88l71 88h92z" />
  </font>
</defs>
</svg>
