<?xml version="1.0" standalone="no"?>
<!DOCTYPE svg PUBLIC "-//W3C//DTD SVG 1.1//EN" "http://www.w3.org/Graphics/SVG/1.1/DTD/svg11.dtd" >
<svg xmlns="http://www.w3.org/2000/svg" width="100%" height="100%">
<metadata>
Created by FontXChange 20110222 at Mon Feb 25 15:57:20 2019
 By Suzi Rubino
 The digitally encoded machine readable software for producing the Typefaces licensed to you is copyrighted (c) 1989 Adobe Systems. All rights reserved. This software is the property of Adobe Systems Incorporated and its licensors, and may not be reproduced, used, displayed, modified, disclosed, or transferred  without the express written approval of Adobe. The digitally encoded machine readable outline data for producing the Typefaces licensed to you is copyrighted (c) 1981 Linotype AG and/or its subsidiaries. All Rights Reserved. This data is the property of Linotype AG and/or its subsidiaries and may not be reproduced, used, displayed, modified, disclosed or transferred without the express written approval of Linotype AG and/or its subsidiaries. 
</metadata>
<defs>
<font id="Copperplate-ThirtyOneBC" horiz-adv-x="611" >
  <font-face 
    font-family="Copperplate"
    font-weight="700"
    font-stretch="normal"
    units-per-em="1000"
    panose-1="2 0 8 3 0 0 0 0 0 0"
    ascent="800"
    descent="-200"
    x-height="440"
    cap-height="526"
    bbox="-167 -226 1070 763"
    underline-thickness="50"
    underline-position="-100"
    unicode-range="U+0020-FB02"
  />
    <missing-glyph />
    <glyph glyph-name="space" unicode=" " horiz-adv-x="305" 
 />
    <glyph glyph-name="exclam" unicode="!" horiz-adv-x="333" 
d="M166 122c35 0 64 -29 64 -64s-29 -64 -64 -64s-64 29 -64 64s29 64 64 64zM83 540h166v-12c-20 -5 -23 -10 -25 -26l-31 -267c-1 -10 -3 -19 -3 -28c0 -11 8 -13 18 -13v-12h-84v12c10 0 18 2 18 13c0 9 -2 18 -3 28l-31 267c-2 16 -5 21 -25 26v12z" />
    <glyph glyph-name="quotedbl" unicode="&#x22;" horiz-adv-x="333" 
d="M126 434l-16 -187c-1 -15 -4 -31 -23 -31s-22 16 -23 31l-16 187c-1 14 -2 28 -2 44c0 26 7 54 41 54s41 -28 41 -54c0 -16 -1 -30 -2 -44zM285 434l-16 -187c-1 -15 -4 -31 -23 -31s-22 16 -23 31l-16 187c-1 14 -2 28 -2 44c0 26 7 54 41 54s41 -28 41 -54
c0 -16 -1 -30 -2 -44z" />
    <glyph glyph-name="numbersign" unicode="#" 
d="M380 315h-125l-20 -104h125zM448 315l-20 -104h102v-54h-112l-31 -157h-69l31 157h-125l-31 -157h-66l31 157h-98v54h109l20 104h-99v54h110l31 157h66l-31 -157h125l31 157h66l-30 -157h102v-54h-112z" />
    <glyph glyph-name="dollar" unicode="$" 
d="M57 35l-11 6l45 128l8 -3c9 -69 121 -90 177 -90v150c-96 4 -213 27 -213 146c0 107 122 160 213 160v62h60v-62c87 0 182 -38 190 -38c10 0 14 3 22 9l9 -6l-66 -122l-8 3c-10 64 -95 72 -147 72v-134c95 -10 229 -21 229 -146c0 -120 -128 -170 -229 -176v-80h-60v80
c-145 18 -180 52 -200 52c-9 0 -15 -3 -19 -11zM276 322v128c-53 -2 -113 -9 -113 -75c0 -47 79 -54 113 -53zM336 220v-144c50 0 129 17 129 81c0 58 -88 60 -129 63z" />
    <glyph glyph-name="percent" unicode="%" horiz-adv-x="889" 
d="M637 582l-394 -650h-60l393 650h61zM210 582c94 0 170 -76 170 -171s-76 -171 -170 -171s-170 76 -170 171s76 171 170 171zM210 506c-54 0 -94 -42 -94 -95s40 -95 94 -95s94 42 94 95s-40 95 -94 95zM612 274c94 0 170 -76 170 -171s-76 -171 -170 -171
s-170 76 -170 171s76 171 170 171zM612 198c-54 0 -94 -42 -94 -95s40 -95 94 -95s94 42 94 95s-40 95 -94 95z" />
    <glyph glyph-name="ampersand" unicode="&#x26;" horiz-adv-x="722" 
d="M627 119v-125c-98 0 -144 39 -174 72c-64 -54 -104 -72 -189 -72c-95 0 -212 47 -212 159c0 88 59 129 136 150v2c-41 13 -76 50 -76 95c0 92 96 132 180 132s180 -40 180 -132c0 -46 -32 -83 -62 -94c34 -23 40 -70 58 -89c41 71 115 126 136 131c6 2 13 6 13 11h10
v-154h-10c-2 8 -8 22 -22 22c-31 0 -61 -63 -69 -89c18 -24 48 -47 70 -48c18 0 21 14 21 29h10zM162 167c0 -69 66 -93 122 -93c53 0 102 37 108 71c-40 55 -26 115 -108 115c-56 0 -122 -24 -122 -93zM292 458c-46 0 -84 -22 -84 -68s38 -68 84 -68s84 22 84 68
s-38 68 -84 68z" />
    <glyph glyph-name="quoteright" unicode="&#x2019;" horiz-adv-x="278" 
d="M46 255v32c41 11 108 65 102 112c-2 9 -18 9 -28 9c-33 0 -62 23 -62 63c0 39 32 71 67 71c53 0 81 -44 81 -100c0 -88 -77 -168 -160 -187z" />
    <glyph glyph-name="parenleft" unicode="(" horiz-adv-x="389" 
d="M304 536v-20c-89 -48 -119 -140 -119 -311s30 -263 119 -311v-20c-139 42 -219 208 -219 331s80 289 219 331z" />
    <glyph glyph-name="parenright" unicode=")" horiz-adv-x="389" 
d="M85 -126v20c89 48 119 140 119 311s-30 263 -119 311v20c139 -42 219 -208 219 -331s-80 -289 -219 -331z" />
    <glyph glyph-name="asterisk" unicode="*" horiz-adv-x="500" 
d="M388 461l26 -85l-141 -13l-3 -5l111 -93l-74 -55l-55 135h-4l-55 -135l-74 55l111 93l-3 5l-141 13l26 85l124 -77l4 3l-34 139h88l-34 -139l4 -3z" />
    <glyph glyph-name="plus" unicode="+" horiz-adv-x="600" 
d="M261 259v181h78v-181h181v-78h-181v-181h-78v181h-181v78h181z" />
    <glyph glyph-name="comma" unicode="," horiz-adv-x="305" 
d="M52 -151v32c41 11 108 65 102 112c-2 9 -18 9 -28 9c-33 0 -62 23 -62 63c0 39 32 71 67 71c53 0 81 -44 81 -100c0 -88 -77 -168 -160 -187z" />
    <glyph glyph-name="hyphen" unicode="-" horiz-adv-x="333" 
d="M285 178h-237v84h237v-84z" />
    <glyph glyph-name="period" unicode="." horiz-adv-x="305" 
d="M81 65c0 39 32 71 71 71s71 -32 71 -71s-32 -71 -71 -71s-71 32 -71 71z" />
    <glyph glyph-name="slash" unicode="/" horiz-adv-x="278" 
d="M57 -6h-79l242 538h79z" />
    <glyph glyph-name="zero" unicode="0" 
d="M305 532c155 0 277 -114 277 -269s-122 -269 -277 -269s-277 114 -277 269s122 269 277 269zM305 446c-93 0 -163 -78 -163 -183s70 -183 163 -183s163 78 163 183s-70 183 -163 183z" />
    <glyph glyph-name="one" unicode="1" 
d="M394 0h-165v12c13 0 25 6 25 28v334c-18 0 -55 -4 -62 -24h-12v126h12c0 -12 15 -16 26 -16c22 0 40 16 40 36c0 18 -9 22 -24 24v12h162v-12c-16 -2 -28 -9 -28 -22v-458c0 -22 13 -28 26 -28v-12z" />
    <glyph glyph-name="two" unicode="2" 
d="M536 120h12v-136h-12c0 14 -16 16 -30 16h-421c-15 0 -25 -3 -25 -15h-12v39c0 212 358 228 358 351c0 56 -57 71 -102 71s-146 -34 -146 -90c0 -6 4 -20 9 -24l-10 -7l-103 110l10 7c5 -3 10 -6 17 -6c17 0 81 96 236 96c102 0 203 -45 203 -162
c0 -186 -238 -172 -344 -268v-10h330c14 0 30 2 30 28z" />
    <glyph glyph-name="three" unicode="3" 
d="M142 358l-9 -6l-80 102l12 9c4 -3 9 -5 17 -5c12 0 69 74 223 74c103 0 224 -41 224 -145c0 -48 -30 -94 -78 -105v-2c57 -13 98 -54 98 -114c0 -134 -151 -172 -258 -172c-60 0 -113 16 -153 31s-67 31 -77 31c-7 0 -11 -3 -16 -6l-9 3l58 144l11 -6
c-1 -4 -1 -10 -1 -14c0 -62 134 -97 195 -97c49 0 140 15 140 81c0 63 -89 74 -135 74c-32 0 -57 -3 -65 -27h-12v136h12c3 -26 33 -33 65 -33c43 0 121 14 121 71c0 54 -69 64 -128 64c-71 0 -159 -36 -159 -68c0 -5 1 -14 4 -20z" />
    <glyph glyph-name="four" unicode="4" 
d="M368 90h-292c-23 0 -34 -5 -34 -22h-12v112l257 279c15 16 29 31 29 39c0 10 -10 12 -17 16v12h194v-12c-12 0 -21 -7 -21 -19v-319h32c17 0 28 3 28 24h12v-135h-12c0 23 -11 25 -28 25h-32v-50c0 -22 11 -28 20 -28v-12h-151v12c15 0 27 6 27 28v50zM142 176h226v248z
" />
    <glyph glyph-name="five" unicode="5" 
d="M45 80l79 104l9 -9c0 -3 -1 -7 -1 -11c0 -35 96 -84 179 -84c61 0 137 21 137 97c0 77 -79 97 -141 97c-28 0 -119 -9 -119 -48c0 -3 1 -7 3 -10l-6 -8l-124 122c16 12 21 15 21 28v138c0 10 -8 18 -19 18v12h411c14 0 30 2 30 18h12v-135h-12c0 23 -16 25 -30 25h-300
v-109c51 19 100 29 155 29c104 0 229 -50 229 -171c0 -138 -146 -189 -260 -189c-73 0 -123 19 -160 39c-46 25 -54 39 -66 39c-4 0 -10 -1 -15 -2z" />
    <glyph glyph-name="six" unicode="6" 
d="M547 490l8 -7l-58 -108l-12 4c-2 6 -3 13 -8 19c-27 40 -109 52 -141 52c-101 0 -162 -52 -166 -155c62 33 114 51 185 51c98 0 199 -57 199 -165c0 -125 -135 -187 -243 -187c-159 0 -255 102 -255 259c0 161 119 279 280 279c62 0 105 -11 134 -23
c30 -12 47 -23 58 -23c8 0 16 1 19 4zM313 264c-75 0 -127 -36 -127 -92s52 -92 127 -92s127 36 127 92s-52 92 -127 92z" />
    <glyph glyph-name="seven" unicode="7" 
d="M161 40l251 394h-328c-14 0 -30 -2 -30 -25h-12v135h12c0 -16 16 -18 30 -18h420c18 0 30 7 30 18h12v-90l-234 -377c-13 -21 -28 -38 -28 -49c0 -12 8 -16 19 -16v-12h-180v12c11 0 29 14 38 28z" />
    <glyph glyph-name="eight" unicode="8" 
d="M441 281v1v-2c69 -14 117 -49 117 -125c0 -136 -165 -161 -263 -161c-103 0 -243 36 -243 152c0 83 48 114 121 134v2c-53 11 -99 48 -99 106c0 124 132 144 228 144c93 0 236 -20 236 -141c0 -63 -40 -94 -97 -110zM305 242c-95 0 -143 -28 -143 -83s48 -83 143 -83
s143 28 143 83s-48 83 -143 83zM306 454c-86 0 -122 -18 -122 -65s36 -65 122 -65s122 18 122 65s-36 65 -122 65z" />
    <glyph glyph-name="nine" unicode="9" 
d="M64 38l-8 7l60 110l12 -6c0 -7 2 -17 7 -24c28 -35 96 -49 139 -49c103 0 159 54 166 157c-54 -28 -111 -51 -172 -51c-97 0 -212 45 -212 158c0 135 132 192 250 192c147 0 248 -105 248 -251c0 -172 -115 -287 -287 -287c-60 0 -101 13 -129 25s-44 25 -55 25
c-8 0 -15 -3 -19 -6zM297 446c-65 0 -127 -22 -127 -91s62 -91 127 -91s127 22 127 91s-62 91 -127 91z" />
    <glyph glyph-name="colon" unicode=":" horiz-adv-x="305" 
d="M81 327c0 39 32 71 71 71s71 -32 71 -71s-32 -71 -71 -71s-71 32 -71 71zM81 65c0 39 32 71 71 71s71 -32 71 -71s-32 -71 -71 -71s-71 32 -71 71z" />
    <glyph glyph-name="semicolon" unicode=";" horiz-adv-x="305" 
d="M52 -151v32c41 11 108 65 102 112c-2 9 -18 9 -28 9c-33 0 -62 23 -62 63c0 39 32 71 67 71c53 0 81 -44 81 -100c0 -88 -77 -168 -160 -187zM64 327c0 39 32 71 71 71s71 -32 71 -71s-32 -71 -71 -71s-71 32 -71 71z" />
    <glyph glyph-name="less" unicode="&#x3c;" horiz-adv-x="600" 
d="M520 75v-75l-440 190v60l440 190v-75l-348 -145z" />
    <glyph glyph-name="equal" unicode="=" horiz-adv-x="600" 
d="M520 347v-78h-440v78h440zM520 171v-78h-440v78h440z" />
    <glyph glyph-name="greater" unicode="&#x3e;" horiz-adv-x="600" 
d="M80 0v75l348 145l-348 145v75l440 -190v-60z" />
    <glyph glyph-name="question" unicode="?" horiz-adv-x="444" 
d="M136 392l-77 84l9 9c4 -1 8 -2 11 -2c28 0 47 63 159 63c73 0 147 -45 147 -125c0 -49 -28 -84 -57 -115c-28 -30 -57 -55 -57 -86c0 -15 5 -26 17 -26v-12h-112v12c8 0 15 6 17 29c5 54 28 86 49 111c22 26 43 47 43 78c0 36 -26 58 -61 58c-53 0 -82 -36 -82 -53
c0 -5 1 -12 3 -18zM231 122c35 0 64 -29 64 -64s-29 -64 -64 -64s-64 29 -64 64s29 64 64 64z" />
    <glyph glyph-name="at" unicode="@" horiz-adv-x="600" 
d="M379 311c0 33 -7 51 -30 51c-36 0 -94 -57 -94 -138c0 -42 17 -65 38 -65c35 0 76 48 86 152zM396 366l7 26h57l-46 -190c-5 -16 -4 -53 23 -53c45 0 83 87 83 153c0 87 -77 184 -207 184c-96 0 -202 -70 -202 -243c0 -111 97 -203 210 -203c69 0 110 16 154 38l9 -37
c-49 -25 -102 -47 -162 -47c-204 0 -293 152 -293 257c0 168 131 281 284 281c145 0 257 -98 257 -230c0 -79 -52 -185 -145 -185c-52 0 -72 44 -71 55h-1h-2c-4 -12 -41 -52 -87 -55c-27 0 -75 17 -75 96c0 63 49 191 153 191c37 0 43 -21 54 -38z" />
    <glyph glyph-name="A" unicode="A" horiz-adv-x="667" 
d="M163 0h-142v18c17 2 26 19 35 38l185 389c9 17 18 33 18 43c0 13 -12 18 -22 20v18h169v-18c-9 -2 -21 -6 -21 -20c0 -10 5 -20 14 -37l208 -407c7 -14 18 -20 33 -26v-18h-176v18c5 0 16 4 16 12c0 6 -2 15 -8 26l-38 74h-244l-36 -71c-6 -13 -10 -24 -10 -30
s9 -11 19 -11v-18zM314 390l-94 -186h178z" />
    <glyph glyph-name="B" unicode="B" horiz-adv-x="722" 
d="M83 526h313c124 0 238 -36 238 -140c0 -63 -45 -93 -98 -112v-2c62 -18 112 -56 112 -132c0 -80 -72 -140 -198 -140h-367v18c19 0 28 6 28 18v454c0 12 -9 18 -28 18v18zM225 234v-142h191c82 0 118 28 118 71s-36 71 -118 71h-191zM225 440v-120h191
c60 0 104 10 104 60s-44 60 -104 60h-191z" />
    <glyph glyph-name="C" unicode="C" horiz-adv-x="722" 
d="M583 186l66 -106l-8 -8c-4 0 -7 1 -11 1c-15 0 -127 -79 -256 -79c-169 0 -320 92 -320 269s151 269 320 269c67 0 124 -13 165 -25s66 -25 71 -25c6 0 11 9 14 13l15 -12l-78 -121l-10 7c0 4 -1 8 -2 13c-6 30 -109 64 -175 64c-113 0 -210 -65 -210 -180
s97 -180 210 -180c84 0 199 43 199 80c0 4 -2 9 -4 12z" />
    <glyph glyph-name="D" unicode="D" horiz-adv-x="722" 
d="M74 508v18h332c146 0 260 -84 260 -263s-114 -263 -260 -263h-332v18c14 0 23 6 23 18v454c0 12 -9 18 -23 18zM211 440v-354h155c126 0 186 38 186 177s-60 177 -186 177h-155z" />
    <glyph glyph-name="E" unicode="E" horiz-adv-x="667" 
d="M598 550v-132h-18c0 14 -10 22 -38 22h-324v-124h196c26 0 42 4 42 34h18v-156h-18c0 30 -16 36 -42 36h-196v-138h334c20 0 34 10 34 26h18v-140h-18c0 20 -14 22 -34 22h-466v18c9 0 18 6 18 18v454c0 12 -9 18 -18 18v18h456c28 0 38 10 38 24h18z" />
    <glyph glyph-name="F" unicode="F" 
d="M586 550v-132h-18c0 14 -10 22 -38 22h-324v-124h196c26 0 42 4 42 22h18v-144h-18c0 30 -16 36 -42 36h-196v-194c0 -12 13 -18 30 -18v-18h-170v18c17 0 26 6 26 18v454c0 12 -9 18 -26 18v18h464c28 0 38 10 38 24h18z" />
    <glyph glyph-name="G" unicode="G" horiz-adv-x="722" 
d="M612 503l12 -7l-59 -132l-20 6c2 4 2 8 2 12c0 41 -112 64 -191 64c-99 0 -202 -53 -202 -185s103 -185 202 -185c75 0 138 15 180 30v86h-128c-18 0 -27 -6 -30 -32h-18v128h18c3 -22 12 -26 30 -26h250v-18c-26 -4 -30 -7 -30 -24v-113c0 -13 10 -15 20 -20v-16
c-88 -62 -198 -77 -292 -77c-186 0 -312 102 -312 269s126 269 312 269c59 0 113 -10 155 -20s71 -20 77 -20c12 0 18 7 24 11z" />
    <glyph glyph-name="H" unicode="H" horiz-adv-x="778" 
d="M228 320h322v170c0 12 -9 18 -22 18v18h154v-18c-9 0 -18 -6 -18 -18v-454c0 -12 9 -18 18 -18v-18h-154v18c13 0 22 6 22 18v188h-322v-188c0 -12 9 -18 18 -18v-18h-151v18c10 0 19 6 19 18v454c0 12 -9 18 -19 18v18h151v-18c-9 0 -18 -6 -18 -18v-170z" />
    <glyph glyph-name="I" unicode="I" horiz-adv-x="333" 
d="M249 0h-166v18c17 0 26 6 26 18v454c0 12 -9 18 -26 18v18h166v-18c-17 0 -26 -6 -26 -18v-454c0 -12 9 -18 26 -18v-18z" />
    <glyph glyph-name="J" unicode="J" horiz-adv-x="500" 
d="M-5 14l-15 10l56 122l16 -6c7 -42 75 -66 125 -66c78 0 115 20 115 83v321c0 18 -20 30 -35 30v18h190v-18c-23 0 -41 -12 -41 -30v-330c0 -104 -94 -154 -225 -154c-83 0 -138 32 -165 32c-8 0 -14 -4 -21 -12z" />
    <glyph glyph-name="K" unicode="K" horiz-adv-x="667" 
d="M293 244l-84 -65v-143c0 -12 9 -18 20 -18v-18h-156v18c13 0 22 6 22 18v454c0 12 -9 18 -22 18v18h156v-18c-11 0 -20 -6 -20 -18v-190l207 163c19 16 30 25 30 32c0 9 -7 13 -15 13v18h210v-18c-13 0 -25 -6 -36 -15l-230 -183l210 -243c17 -20 42 -42 65 -49v-18h-185
v18c8 0 13 2 13 7c0 4 -5 11 -14 22z" />
    <glyph glyph-name="L" unicode="L" 
d="M592 -22h-18c0 20 -14 22 -34 22h-476v18c21 0 30 6 30 18v454c0 12 -9 18 -30 18v18h172v-18c-19 0 -28 -6 -28 -18v-398h332c20 0 34 10 34 26h18v-140z" />
    <glyph glyph-name="M" unicode="M" horiz-adv-x="833" 
d="M238 0h-150v18c11 0 20 6 20 18v456c0 12 -9 16 -20 16v18h187v-18c-7 0 -16 -4 -16 -12c0 -7 7 -18 13 -30l143 -260l144 257c9 17 14 26 14 34s-5 11 -13 11v18h185v-18c-11 0 -20 -4 -20 -16v-456c0 -12 9 -18 20 -18v-18h-157v18c18 0 27 6 27 18v332h-2l-201 -368
h-3l-197 369h-2v-333c0 -12 9 -18 28 -18v-18z" />
    <glyph glyph-name="N" unicode="N" horiz-adv-x="778" 
d="M239 0h-148v18c10 0 19 6 19 18v454c0 12 -9 18 -19 18v18h171v-18c-4 0 -8 -3 -8 -10c0 -6 6 -14 20 -28l287 -298v318c0 12 -9 18 -26 18v18h151v-18c-10 0 -19 -6 -19 -18v-454c0 -12 9 -18 19 -18v-18h-162v18c7 0 13 3 13 9c0 5 -5 12 -16 23l-305 318v-332
c0 -12 9 -18 23 -18v-18z" />
    <glyph glyph-name="O" unicode="O" horiz-adv-x="778" 
d="M389 532c146 0 323 -86 323 -269s-177 -269 -323 -269s-323 86 -323 269s177 269 323 269zM389 440c-102 0 -213 -64 -213 -177s111 -177 213 -177s213 64 213 177s-111 177 -213 177z" />
    <glyph glyph-name="P" unicode="P" horiz-adv-x="667" 
d="M259 18v-18h-183v18c26 0 37 6 37 18v454c0 12 -15 18 -37 18v18h352c128 0 206 -42 206 -156s-78 -156 -206 -156h-201v-178c0 -12 9 -18 32 -18zM227 434v-128h213c44 0 80 14 80 64s-36 64 -80 64h-213z" />
    <glyph glyph-name="Q" unicode="Q" horiz-adv-x="778" 
d="M691 -4l-116 -101l-12 8c4 5 8 12 8 20c0 14 -53 63 -73 87c-36 -11 -73 -16 -109 -16c-146 0 -323 86 -323 269s177 269 323 269s323 -86 323 -269c0 -94 -47 -163 -114 -207c16 -13 46 -54 60 -54c8 0 15 3 20 8zM389 440c-102 0 -213 -64 -213 -177s111 -177 213 -177
c14 0 28 1 41 4c-59 78 -102 75 -102 86s35 20 68 20c57 0 94 -32 136 -65c41 30 70 75 70 132c0 113 -111 177 -213 177z" />
    <glyph glyph-name="R" unicode="R" horiz-adv-x="722" 
d="M80 508v18h342c128 0 212 -42 212 -156c0 -87 -56 -132 -144 -148l133 -190c9 -13 23 -14 34 -14v-18h-187v18c12 0 22 5 22 11c0 7 -6 15 -16 29l-110 156h-143v-178c0 -12 7 -18 30 -18v-18h-173v18c20 0 29 6 29 18v454c0 12 -9 18 -29 18zM223 440v-148h173
c96 0 124 32 124 74s-28 74 -124 74h-173z" />
    <glyph glyph-name="S" unicode="S" horiz-adv-x="667" 
d="M84 36l-14 8l55 121l10 -5c0 -6 1 -11 4 -16c20 -33 119 -64 182 -64c44 0 161 11 161 72c0 122 -406 -31 -406 214c0 83 77 166 243 166c139 0 206 -50 240 -50c10 0 16 2 20 6l12 -8l-69 -125l-10 4c-1 9 -4 17 -8 23c-21 31 -105 64 -182 64c-59 0 -132 -17 -132 -61
c0 -127 406 21 406 -219c0 -138 -165 -172 -273 -172c-154 0 -196 50 -226 50c-5 0 -10 -4 -13 -8z" />
    <glyph glyph-name="T" unicode="T" 
d="M362 434v-398c0 -12 9 -18 22 -18v-18h-154v18c9 0 18 6 18 18v398h-165c-12 0 -26 -6 -26 -24h-18v140h18c0 -18 14 -24 26 -24h444c12 0 26 6 26 24h18v-140h-18c0 18 -14 24 -26 24h-165z" />
    <glyph glyph-name="U" unicode="U" horiz-adv-x="722" 
d="M66 526h164v-18c-13 0 -22 -6 -22 -18v-300c0 -84 57 -110 159 -110s159 26 159 110v300c0 12 -9 18 -30 18v18h160v-18c-15 0 -24 -6 -24 -18v-295c0 -157 -92 -201 -269 -201s-269 44 -269 201v295c0 12 -9 18 -28 18v18z" />
    <glyph glyph-name="V" unicode="V" horiz-adv-x="667" 
d="M469 526h175v-18c-27 0 -36 -26 -42 -38l-177 -389c-12 -26 -21 -43 -21 -49c0 -7 4 -10 9 -14v-18h-153v18c7 2 9 9 9 14c0 6 -12 29 -26 59l-180 391c-7 14 -18 20 -40 26v18h179v-18c-9 0 -20 -4 -20 -17c0 -14 13 -37 29 -70l128 -275l125 271c16 35 33 64 33 75
s-10 16 -28 16v18z" />
    <glyph glyph-name="W" unicode="W" horiz-adv-x="944" 
d="M31 526h155v-18c-9 0 -15 -8 -15 -19c0 -6 1 -14 9 -35l107 -278h2l106 282c7 17 8 24 8 31c0 10 -4 19 -13 19v18h171v-18c-9 0 -13 -8 -13 -16s4 -17 10 -34l107 -282h2l108 288c5 12 7 19 7 27s-8 17 -17 17v18h148v-18c-14 0 -20 -18 -29 -42l-144 -382
c-8 -21 -15 -38 -15 -48c0 -9 7 -18 19 -18v-18h-158v18c8 2 19 8 19 17c0 11 -5 22 -15 46l-115 295h-2l-109 -289c-10 -26 -15 -44 -15 -49c0 -9 4 -18 13 -20v-18h-155v18c8 0 18 4 18 13c0 10 -6 23 -11 36l-160 413c-5 14 -10 26 -23 28v18z" />
    <glyph glyph-name="X" unicode="X" horiz-adv-x="667" 
d="M42 526h218v-18c-11 0 -23 -6 -23 -16c0 -9 8 -23 20 -38l82 -103l83 105c15 18 27 32 27 39c0 9 -10 13 -27 13v18h203v-18c-32 0 -45 -3 -55 -16l-173 -214l166 -212c12 -15 30 -48 62 -48v-18h-201v18c11 0 16 7 16 16s-10 21 -22 36l-92 120l-99 -124
c-7 -9 -20 -24 -20 -34c0 -8 8 -14 19 -14v-18h-184v18c25 0 37 4 51 22l175 223l-162 206c-23 29 -39 39 -64 39v18z" />
    <glyph glyph-name="Y" unicode="Y" 
d="M11 508v18h208v-18c-12 0 -25 -2 -25 -15c0 -16 88 -133 123 -189l117 161c11 16 18 24 18 32c0 9 -16 11 -27 11v18h175v-18c-23 0 -33 -6 -66 -53l-170 -241v-178c0 -12 9 -18 23 -18v-18h-158v18c12 0 21 6 21 18v178l-193 270c-9 13 -33 24 -46 24z" />
    <glyph glyph-name="Z" unicode="Z" 
d="M49 0v28l323 412h-272c-20 0 -30 -10 -30 -28h-18v138h18c0 -14 10 -24 30 -24h461v-28l-318 -406h272c20 0 28 6 28 22h18v-136h-18c0 16 -8 22 -28 22h-466z" />
    <glyph glyph-name="bracketleft" unicode="[" horiz-adv-x="389" 
d="M320 -134h-251v660h251v-46h-159v-568h159v-46z" />
    <glyph glyph-name="backslash" unicode="\" horiz-adv-x="278" 
d="M-19 532h78l250 -538h-78z" />
    <glyph glyph-name="bracketright" unicode="]" horiz-adv-x="389" 
d="M69 526h251v-660h-251v46h159v568h-159v46z" />
    <glyph glyph-name="asciicircum" unicode="^" horiz-adv-x="600" 
d="M184 208h-78l157 318h74l157 -318h-78l-116 242z" />
    <glyph glyph-name="underscore" unicode="_" horiz-adv-x="500" 
d="M500 -125h-500v50h500v-50z" />
    <glyph glyph-name="quoteleft" unicode="&#x2018;" horiz-adv-x="278" 
d="M232 550v-32c-41 -11 -108 -65 -102 -112c2 -9 18 -9 28 -9c33 0 62 -23 62 -63c0 -39 -32 -71 -67 -71c-53 0 -81 44 -81 100c0 88 77 168 160 187z" />
    <glyph glyph-name="a" unicode="a" horiz-adv-x="556" 
d="M149 0h-134v18c16 2 26 18 31 29l149 325c8 18 13 29 13 39c0 8 -4 9 -8 11v18h151v-18c-4 -2 -10 -2 -10 -11c0 -8 7 -19 14 -34l162 -340c6 -12 15 -17 24 -19v-18h-142v15c6 0 16 4 16 14c0 8 -3 14 -7 24l-27 57h-214l-28 -54c-5 -11 -9 -19 -9 -26
c0 -10 7 -12 19 -12v-18zM268 352l-71 -168h152z" />
    <glyph glyph-name="b" unicode="b" 
d="M93 33v374c0 10 -12 15 -23 15v18h311c99 0 148 -52 148 -111c0 -47 -35 -84 -66 -100v-1c38 -16 78 -54 78 -111c0 -63 -46 -117 -164 -117h-307v18c11 0 23 5 23 15zM189 192v-118h176c61 0 80 21 80 57c0 41 -27 61 -96 61h-160zM189 366v-100h178c32 0 66 10 66 51
c0 43 -34 49 -66 49h-178z" />
    <glyph glyph-name="c" unicode="c" horiz-adv-x="556" 
d="M506 401l-66 -95l-11 8c0 3 -1 5 -1 9c0 14 -57 49 -137 49c-95 0 -163 -52 -163 -149c0 -96 78 -155 156 -155c71 0 158 41 158 64c0 5 0 10 -1 18l11 10l74 -106l-10 -5c-6 3 -11 5 -17 5c-22 0 -97 -60 -217 -60c-123 0 -250 78 -250 227s127 225 258 225
c52 0 94 -12 124 -23c31 -11 58 -23 64 -23c7 0 11 5 16 8z" />
    <glyph glyph-name="d" unicode="d" 
d="M349 0h-282v18c16 0 23 5 23 15v374c0 10 -7 15 -23 15v18h278c157 0 221 -109 221 -220s-60 -220 -217 -220zM186 366v-292h130c82 0 154 15 154 149c0 133 -72 143 -154 143h-130z" />
    <glyph glyph-name="e" unicode="e" horiz-adv-x="556" 
d="M486 458v-111h-18c0 14 -10 19 -31 19h-244v-100h154c23 0 33 2 33 16h18v-106h-20c4 14 -13 16 -39 16h-146v-118h256c16 0 28 8 28 20h18v-108h-18c0 12 -12 14 -28 14h-367v18c7 0 15 5 15 15v374c0 10 -8 15 -15 15v18h355c21 0 31 8 31 18h18z" />
    <glyph glyph-name="f" unicode="f" horiz-adv-x="556" 
d="M512 458v-106h-18c0 7 -8 14 -31 14h-271v-106h176c22 0 25 4 26 15h18v-105h-18c-1 11 -4 16 -26 16h-176v-153c0 -10 11 -15 23 -15v-18h-138v18c12 0 19 5 19 15v374c0 10 -7 15 -21 15v18h388c23 0 31 8 31 18h18z" />
    <glyph glyph-name="g" unicode="g" 
d="M517 410l12 -6l-58 -109l-12 7c1 4 2 8 2 11c0 25 -75 59 -148 59c-98 0 -183 -43 -183 -154s96 -150 174 -150c57 0 110 7 152 29v63h-103c-15 0 -27 -5 -29 -21h-18v103h18c2 -13 14 -16 29 -16h196v-18c-12 -5 -15 -11 -15 -24v-95c0 -12 2 -15 15 -20v-12
c-24 -17 -105 -63 -233 -63c-174 0 -282 86 -282 226s108 226 282 226c52 0 92 -11 121 -22c30 -11 49 -22 58 -22c10 0 14 2 22 8z" />
    <glyph glyph-name="h" unicode="h" horiz-adv-x="667" 
d="M467 184h-268v-151c0 -10 7 -15 15 -15v-18h-126v18c8 0 15 5 15 15v374c0 10 -7 15 -15 15v18h126v-18c-8 0 -15 -5 -15 -15v-141h268v141c0 10 -7 15 -15 15v18h126v-18c-8 0 -15 -5 -15 -15v-374c0 -10 7 -15 15 -15v-18h-126v18c8 0 15 5 15 15v151z" />
    <glyph glyph-name="i" unicode="i" horiz-adv-x="333" 
d="M242 0h-152v18c21 0 28 5 28 15v374c0 10 -7 15 -28 15v18h152v-18c-19 0 -28 -5 -28 -15v-374c0 -10 9 -15 28 -15v-18z" />
    <glyph glyph-name="j" unicode="j" horiz-adv-x="444" 
d="M5 12l-12 8l50 115l14 -5c0 -9 0 -22 6 -30c9 -14 52 -32 101 -32c57 0 86 14 86 68v261c0 15 -16 25 -25 25v18h149v-18c-13 0 -28 -10 -28 -25v-273c0 -96 -79 -130 -183 -130c-61 0 -112 30 -137 30c-10 0 -15 -6 -21 -12z" />
    <glyph glyph-name="k" unicode="k" horiz-adv-x="556" 
d="M264 207l-78 -62v-112c0 -10 9 -15 19 -15v-18h-131v18c9 0 16 5 16 15v374c0 10 -7 15 -16 15v18h131v-18c-10 0 -19 -5 -19 -15v-163c91 75 202 160 202 170c0 7 -10 11 -16 11v15h165v-18c-11 -4 -20 -10 -36 -23l-167 -135l158 -196c16 -20 35 -45 54 -50v-18h-148
v18c7 0 11 2 11 6c0 5 -5 13 -22 33z" />
    <glyph glyph-name="l" unicode="l" horiz-adv-x="556" 
d="M76 422v18h145v-18c-15 0 -23 -5 -23 -15v-333h270c16 0 28 8 28 21h18v-108h-18c0 11 -12 13 -28 13h-392v18c18 0 26 5 26 15v374c0 10 -8 15 -26 15z" />
    <glyph glyph-name="m" unicode="m" horiz-adv-x="722" 
d="M206 0h-113v18c7 1 12 3 12 18v366c0 18 -3 20 -12 20v18h139v-18c-5 0 -10 -3 -10 -9c0 -5 5 -13 14 -29l122 -225l123 224c9 16 15 26 15 30c0 6 -4 9 -8 9v18h141v-18c-6 0 -14 -3 -14 -13v-376c0 -10 8 -15 14 -15v-18h-116v18c13 0 20 5 18 15v281h-2l-170 -314h-8
l-161 314h1h-2v-281c0 -10 7 -15 17 -15v-18z" />
    <glyph glyph-name="n" unicode="n" horiz-adv-x="667" 
d="M204 0h-123v18c10 0 18 5 18 15v374c0 10 -8 15 -18 15v18h147v-18c-6 -1 -7 -2 -7 -5c0 -5 8 -12 22 -27l240 -254v271c0 10 -8 15 -20 15v18h122v-18c-10 0 -18 -5 -18 -15v-374c0 -10 8 -15 18 -15v-18h-130v18c4 0 7 1 7 5c0 5 -15 20 -31 37l-248 264v-291
c0 -10 8 -15 21 -15v-18z" />
    <glyph glyph-name="o" unicode="o" 
d="M305 446c146 0 266 -73 266 -226s-120 -226 -266 -226s-266 73 -266 226s120 226 266 226zM305 372c-86 0 -170 -57 -170 -152s84 -152 170 -152s170 57 170 152s-84 152 -170 152z" />
    <glyph glyph-name="p" unicode="p" horiz-adv-x="556" 
d="M92 33v374c0 10 -8 15 -25 15v18h291c107 0 162 -35 162 -130c0 -96 -55 -127 -162 -127h-170v-150c0 -10 7 -15 21 -15v-18h-142v18c17 0 25 5 25 15zM188 366v-109h168c38 0 68 11 68 53c0 41 -30 56 -68 56h-168z" />
    <glyph glyph-name="q" unicode="q" 
d="M456 -99l-8 12c4 5 10 11 10 19c0 12 -23 35 -59 74c-30 -8 -61 -12 -94 -12c-146 0 -266 73 -266 226s120 226 266 226s266 -73 266 -226c0 -86 -38 -147 -98 -182c32 -32 52 -50 61 -50s17 3 20 5l10 -9zM305 372c-86 0 -170 -57 -170 -152s84 -152 170 -152
c13 0 26 1 37 4c-56 77 -98 79 -98 90c0 7 15 12 39 12c47 0 77 -27 129 -73c37 26 63 67 63 119c0 95 -84 152 -170 152z" />
    <glyph glyph-name="r" unicode="r" 
d="M78 440h276c119 0 189 -35 189 -130c0 -73 -59 -111 -114 -124l98 -143c10 -14 23 -21 38 -25v-18h-153v18c6 0 13 2 13 9c0 8 -5 17 -15 31l-79 118h-139v-143c0 -10 11 -15 19 -15v-18h-133v18c11 0 18 5 18 15v374c0 10 -7 15 -18 15v18zM194 366v-116h158
c67 0 98 21 98 62c0 33 -30 54 -98 54h-158z" />
    <glyph glyph-name="s" unicode="s" horiz-adv-x="556" 
d="M46 46l46 112l19 -5c0 -5 -1 -12 -1 -18c0 -40 119 -67 159 -67c36 0 123 8 123 59c0 87 -332 9 -332 179c0 85 76 140 202 140c123 0 177 -48 196 -48c11 0 14 4 22 8l11 -11l-50 -94l-18 6c-1 8 -1 16 -11 24c-27 23 -87 41 -156 41c-53 0 -100 -13 -100 -50
c0 -86 332 -6 332 -183c0 -116 -127 -145 -218 -145c-90 0 -187 48 -198 48c-5 0 -9 -2 -12 -6z" />
    <glyph glyph-name="t" unicode="t" horiz-adv-x="500" 
d="M187 0v18c7 0 15 5 15 15v333h-130c-10 0 -22 -5 -22 -17h-18v115h18c0 -19 12 -24 22 -24h356c10 0 22 5 22 24h18v-115h-18c0 12 -12 17 -22 17h-130v-333c0 -10 8 -15 18 -15v-18h-129z" />
    <glyph glyph-name="u" unicode="u" horiz-adv-x="667" 
d="M74 440h143v-18c-15 0 -22 -5 -22 -15v-229c0 -64 47 -106 142 -106s142 42 142 106v229c0 10 -8 15 -25 15v18h139v-18c-14 0 -22 -5 -22 -15v-253c0 -82 -73 -160 -234 -160s-234 78 -234 160v253c0 10 -7 15 -29 15v18z" />
    <glyph glyph-name="v" unicode="v" horiz-adv-x="556" 
d="M401 440h131v-18c-9 0 -17 -6 -25 -23l-146 -323c-15 -35 -22 -43 -22 -49c0 -5 5 -7 18 -9v-18h-151v18c6 2 14 5 14 12s-10 21 -22 46l-152 327c-5 12 -15 19 -23 19v18h141v-18c-8 0 -12 -4 -12 -13s9 -27 18 -47l115 -249l109 242c15 32 23 46 22 55
c-1 8 -8 12 -15 12v18z" />
    <glyph glyph-name="w" unicode="w" horiz-adv-x="778" 
d="M16 440h127v-18c-9 0 -13 -6 -13 -14c0 -6 6 -21 14 -42l88 -243h2l85 238c7 19 14 37 14 47s-5 14 -16 14v18h143v-18c-12 0 -18 -3 -18 -12s9 -30 15 -46l88 -241l93 243c7 19 12 33 12 42c0 11 -7 14 -16 14v18h127v-18c-12 0 -21 -11 -30 -37l-115 -305
c-8 -22 -18 -42 -18 -49c0 -8 6 -13 14 -13v-18h-140v18c10 1 12 3 12 14c0 12 -54 149 -97 283h-2c-9 -36 -109 -272 -109 -283s3 -14 15 -14v-18h-123v18c5 0 10 0 10 8s-6 23 -9 30l-132 347c-4 11 -10 17 -21 19v18z" />
    <glyph glyph-name="x" unicode="x" horiz-adv-x="556" 
d="M43 440h157v-18c-8 0 -12 -2 -12 -11c0 -7 9 -17 21 -32l70 -85l76 93c10 12 16 20 16 27c0 6 -6 8 -13 8v18h153v-18c-9 0 -20 -3 -26 -10l-151 -182l139 -175c10 -12 25 -37 45 -37v-18h-153v18c5 1 7 3 7 8c0 4 -4 10 -11 20l-87 107l-85 -104c-9 -11 -14 -19 -14 -24
s4 -7 9 -7v-18h-146v18c8 0 21 3 30 15l152 187l-138 172c-19 23 -30 30 -39 30v18z" />
    <glyph glyph-name="y" unicode="y" horiz-adv-x="556" 
d="M230 33v154l-170 218c-9 12 -24 17 -36 17v18h165v-18c-7 0 -17 -5 -17 -13s6 -14 13 -23l101 -132l89 124c12 17 18 24 18 32c0 10 -8 12 -15 12v18h153v-18c-16 0 -38 -23 -52 -41l-153 -198v-150c0 -10 8 -15 19 -15v-18h-133v18c10 0 18 5 18 15z" />
    <glyph glyph-name="z" unicode="z" horiz-adv-x="556" 
d="M57 0v18l272 348h-229c-17 0 -25 -10 -25 -20h-18v117h18c0 -15 8 -23 25 -23h398v-18l-279 -348h239c17 0 23 8 23 21h18v-108h-18c0 8 -6 13 -23 13h-401z" />
    <glyph glyph-name="braceleft" unicode="{" horiz-adv-x="389" 
d="M130 -29v136c0 50 -26 74 -57 88c31 14 57 38 57 88v136c0 91 35 107 146 107v-12c-39 -8 -54 -26 -54 -55v-165c0 -55 -26 -85 -75 -98v-2c49 -13 75 -43 75 -98v-165c0 -29 15 -47 54 -55v-12c-111 0 -146 16 -146 107z" />
    <glyph glyph-name="bar" unicode="|" horiz-adv-x="222" 
d="M72 0v526h78v-526h-78z" />
    <glyph glyph-name="braceright" unicode="}" horiz-adv-x="389" 
d="M259 419v-136c0 -50 26 -74 57 -88c-31 -14 -57 -38 -57 -88v-136c0 -91 -35 -107 -146 -107v12c39 8 54 26 54 55v165c0 55 26 85 75 98v2c-49 13 -75 43 -75 98v165c0 29 -15 47 -54 55v12c111 0 146 -16 146 -107z" />
    <glyph glyph-name="asciitilde" unicode="~" horiz-adv-x="600" 
d="M495 299l36 -68c-30 -42 -63 -86 -125 -86c-37 0 -69 15 -102 33c-32 18 -69 35 -115 35c-44 0 -68 -37 -84 -72l-36 68c22 42 58 86 125 86c34 0 73 -15 111 -32c37 -16 75 -36 102 -36c40 0 65 37 88 72z" />
    <glyph glyph-name="exclamdown" unicode="&#xa1;" horiz-adv-x="333" 
d="M167 418c-35 0 -64 29 -64 64s29 64 64 64s64 -29 64 -64s-29 -64 -64 -64zM250 0h-166v12c20 5 23 10 25 26l31 267c1 10 3 19 3 28c0 11 -8 13 -18 13v12h84v-12c-10 0 -18 -2 -18 -13c0 -9 2 -18 3 -28l31 -267c2 -16 5 -21 25 -26v-12z" />
    <glyph glyph-name="cent" unicode="&#xa2;" 
d="M364 398l46 116h58l-51 -127c30 -9 60 -19 89 -32l-41 -81c-21 20 -47 37 -76 43l-95 -239c10 -5 22 -6 32 -6c50 0 102 22 134 61l61 -70c-75 -23 -102 -63 -210 -63c-15 0 -32 -1 -47 5l-52 -131h-61l61 146c-70 27 -123 101 -123 176c0 117 99 204 214 204
c20 0 41 0 61 -2zM242 94l91 230c-85 0 -152 -48 -152 -130c0 -46 21 -78 61 -100z" />
    <glyph glyph-name="sterling" unicode="&#xa3;" 
d="M41 -6v96c64 29 87 77 87 145c0 14 -2 27 -4 40h-83v50h79c-2 13 -4 26 -4 40c0 126 94 167 206 167c109 0 216 -42 216 -167h-92c-8 67 -56 85 -118 85c-69 0 -112 -14 -112 -91c0 -11 2 -23 4 -34h103v-50h-99c0 -81 -17 -134 -82 -184l2 -2c35 16 75 25 116 25
c23 0 48 -6 72 -12s47 -12 64 -12c59 0 78 48 78 98h96c0 -132 -68 -194 -182 -194c-34 0 -68 10 -101 19s-66 19 -100 19c-51 0 -119 -38 -146 -38z" />
    <glyph glyph-name="fraction" unicode="&#x2044;" horiz-adv-x="167" 
d="M-95 -6h-72l429 538h72z" />
    <glyph glyph-name="yen" unicode="&#xa5;" 
d="M255 36v121h-191v50h191v9l-34 52h-157v50h124l-110 166c-8 13 -30 24 -42 24v18h190v-18c-11 0 -23 -2 -23 -15c0 -5 6 -20 16 -36l97 -161l96 156c15 25 28 40 28 45c0 9 -15 11 -25 11v18h160v-18c-21 0 -32 -10 -60 -53l-89 -137h129v-50h-162l-34 -52v-9h196v-50
h-196v-121c0 -12 8 -18 21 -18v-18h-145v18c11 0 20 6 20 18z" />
    <glyph glyph-name="florin" unicode="&#x192;" 
d="M-40 -166l30 110l12 -4c0 -35 18 -50 70 -50c62 0 81 28 86 55l58 303h-118v66h132c17 123 44 212 187 212c31 0 57 -7 76 -15s33 -15 37 -15s15 4 18 7l6 -2l-31 -110l-12 4c-7 37 -25 53 -81 53c-68 0 -79 -41 -92 -134h134v-66h-146l-55 -282
c-21 -107 -73 -154 -182 -154c-45 0 -82 22 -104 22c-5 0 -11 -2 -14 -5z" />
    <glyph glyph-name="section" unicode="&#xa7;" horiz-adv-x="500" 
d="M342 54c0 91 -290 118 -290 235c0 58 49 91 106 91l2 3c-27 14 -54 53 -54 85c0 72 63 106 128 106c86 0 123 -40 179 -96c-21 -10 -44 -24 -63 -38c-11 45 -53 78 -101 78c-35 0 -75 -15 -75 -56c0 -105 274 -100 274 -236c0 -50 -39 -86 -88 -86v-2
c27 -20 50 -51 50 -88c0 -80 -82 -116 -151 -116c-77 0 -120 56 -170 104c21 7 49 14 72 28c12 -49 51 -76 102 -76c39 0 79 22 79 64zM394 216c0 58 -204 126 -243 126c-19 0 -39 -14 -39 -36c0 -64 208 -132 236 -132s46 12 46 42z" />
    <glyph glyph-name="currency" unicode="&#xa4;" 
d="M81 81l48 52c-29 35 -44 80 -44 130c0 48 13 98 46 130l-50 52l43 43l50 -49c33 28 84 44 131 44c50 0 98 -16 130 -43l50 49l45 -45l-48 -49c29 -33 43 -82 43 -132c0 -48 -14 -96 -43 -132l47 -50l-41 -42l-50 52c-34 -32 -82 -48 -133 -48c-50 0 -98 15 -133 47
l-49 -51zM164 263c0 -82 62 -145 141 -145s141 63 141 145s-62 145 -141 145s-141 -63 -141 -145z" />
    <glyph glyph-name="quotesingle" unicode="'" horiz-adv-x="222" 
d="M150 434l-16 -187c-1 -15 -4 -31 -23 -31s-22 16 -23 31l-16 187c-1 14 -2 28 -2 44c0 26 7 54 41 54s41 -28 41 -54c0 -16 -1 -30 -2 -44z" />
    <glyph glyph-name="quotedblleft" unicode="&#x201c;" horiz-adv-x="500" 
d="M458 550v-32c-41 -11 -108 -65 -102 -112c2 -9 18 -9 28 -9c33 0 62 -23 62 -63c0 -39 -32 -71 -67 -71c-53 0 -81 44 -81 100c0 88 77 168 160 187zM217 550v-32c-41 -11 -108 -65 -102 -112c2 -9 18 -9 28 -9c33 0 62 -23 62 -63c0 -39 -32 -71 -67 -71
c-53 0 -81 44 -81 100c0 88 77 168 160 187z" />
    <glyph glyph-name="guillemotleft" unicode="&#xab;" horiz-adv-x="500" 
d="M434 74h-86l-117 145l118 147h87l-118 -147zM268 74h-87l-117 145l118 147h87l-118 -147z" />
    <glyph glyph-name="guilsinglleft" unicode="&#x2039;" horiz-adv-x="333" 
d="M64 221l117 145h87l-117 -145l118 -147h-87z" />
    <glyph glyph-name="guilsinglright" unicode="&#x203a;" horiz-adv-x="333" 
d="M66 366h86l117 -145l-118 -147h-87l118 147z" />
    <glyph glyph-name="fi" unicode="&#xfb01;" horiz-adv-x="889" 
d="M512 458v-106h-18c0 7 -8 14 -31 14h-271v-106h176c22 0 25 4 26 15h18v-105h-18c-1 11 -4 16 -26 16h-176v-153c0 -10 11 -15 23 -15v-18h-138v18c12 0 19 5 19 15v374c0 10 -7 15 -21 15v18h388c23 0 31 8 31 18h18zM798 0h-152v18c21 0 28 5 28 15v374
c0 10 -7 15 -28 15v18h152v-18c-19 0 -28 -5 -28 -15v-374c0 -10 9 -15 28 -15v-18z" />
    <glyph glyph-name="fl" unicode="&#xfb02;" horiz-adv-x="1112" 
d="M512 458v-106h-18c0 7 -8 14 -31 14h-271v-106h176c22 0 25 4 26 15h18v-105h-18c-1 11 -4 16 -26 16h-176v-153c0 -10 11 -15 23 -15v-18h-138v18c12 0 19 5 19 15v374c0 10 -7 15 -21 15v18h388c23 0 31 8 31 18h18zM632 422v18h145v-18c-15 0 -23 -5 -23 -15v-333h270
c16 0 28 8 28 21h18v-108h-18c0 11 -12 13 -28 13h-392v18c18 0 26 5 26 15v374c0 10 -8 15 -26 15z" />
    <glyph glyph-name="endash" unicode="&#x2013;" horiz-adv-x="500" 
d="M500 181h-500v78h500v-78z" />
    <glyph glyph-name="dagger" unicode="&#x2020;" horiz-adv-x="500" 
d="M73 316v94l158 -30l-30 166h98l-30 -166l158 30v-94l-158 34c0 -48 13 -94 27 -128c-13 -72 -27 -226 -27 -324h-38c0 98 -14 252 -27 324c14 34 27 80 27 128z" />
    <glyph glyph-name="daggerdbl" unicode="&#x2021;" horiz-adv-x="500" 
d="M201 546h98l-30 -166l158 30v-94l-158 34c0 -48 13 -94 27 -128c-14 -34 -27 -80 -27 -128l158 34v-94l-158 30l30 -166h-98l30 166l-158 -30v94l158 -34c0 48 -13 94 -27 128c14 34 27 80 27 128l-158 -34v94l158 -30z" />
    <glyph glyph-name="periodcentered" unicode="&#xb7;" horiz-adv-x="305" 
d="M81 220c0 39 32 71 71 71s71 -32 71 -71s-32 -71 -71 -71s-71 32 -71 71z" />
    <glyph glyph-name="paragraph" unicode="&#xb6;" horiz-adv-x="600" 
d="M311 -102h-62v312c-84 0 -130 67 -130 164c0 107 44 152 160 152h202v-18c-30 0 -50 -12 -50 -38v-572h-62v600h-58v-600z" />
    <glyph glyph-name="bullet" unicode="&#x2022;" horiz-adv-x="500" 
d="M118 263c0 73 58 132 132 132s131 -59 131 -132s-57 -131 -131 -131s-132 58 -132 131z" />
    <glyph glyph-name="quotesinglbase" unicode="&#x201a;" horiz-adv-x="278" 
d="M46 -151v32c41 11 108 65 102 112c-2 9 -18 9 -28 9c-33 0 -62 23 -62 63c0 39 32 71 67 71c53 0 81 -44 81 -100c0 -88 -77 -168 -160 -187z" />
    <glyph glyph-name="quotedblbase" unicode="&#x201e;" horiz-adv-x="500" 
d="M42 -151v32c41 11 108 65 102 112c-2 9 -18 9 -28 9c-33 0 -62 23 -62 63c0 39 32 71 67 71c53 0 81 -44 81 -100c0 -88 -77 -168 -160 -187zM283 -151v32c41 11 108 65 102 112c-2 9 -18 9 -28 9c-33 0 -62 23 -62 63c0 39 32 71 67 71c53 0 81 -44 81 -100
c0 -88 -77 -168 -160 -187z" />
    <glyph glyph-name="quotedblright" unicode="&#x201d;" horiz-adv-x="500" 
d="M42 255v32c41 11 108 65 102 112c-2 9 -18 9 -28 9c-33 0 -62 23 -62 63c0 39 32 71 67 71c53 0 81 -44 81 -100c0 -88 -77 -168 -160 -187zM283 255v32c41 11 108 65 102 112c-2 9 -18 9 -28 9c-33 0 -62 23 -62 63c0 39 32 71 67 71c53 0 81 -44 81 -100
c0 -88 -77 -168 -160 -187z" />
    <glyph glyph-name="guillemotright" unicode="&#xbb;" horiz-adv-x="500" 
d="M66 366h86l117 -145l-118 -147h-87l118 147zM232 366h87l117 -145l-118 -147h-87l118 147z" />
    <glyph glyph-name="ellipsis" unicode="&#x2026;" horiz-adv-x="1000" 
d="M96 65c0 39 32 71 71 71s71 -32 71 -71s-32 -71 -71 -71s-71 32 -71 71zM429 65c0 39 32 71 71 71s71 -32 71 -71s-32 -71 -71 -71s-71 32 -71 71zM762 65c0 39 32 71 71 71s71 -32 71 -71s-32 -71 -71 -71s-71 32 -71 71z" />
    <glyph glyph-name="perthousand" unicode="&#x2030;" horiz-adv-x="1000" 
d="M166 558c82 0 150 -66 150 -151s-68 -151 -150 -151s-150 66 -150 151s68 151 150 151zM166 492c-47 0 -84 -36 -84 -85s37 -85 84 -85s84 36 84 85s-37 85 -84 85zM516 272c82 0 150 -66 150 -151s-68 -151 -150 -151s-150 66 -150 151s68 151 150 151zM516 206
c-47 0 -84 -36 -84 -85s37 -85 84 -85s84 36 84 85s-37 85 -84 85zM866 272c82 0 150 -66 150 -151s-68 -151 -150 -151s-150 66 -150 151s68 151 150 151zM866 206c-47 0 -84 -36 -84 -85s37 -85 84 -85s84 36 84 85s-37 85 -84 85zM544 558l-354 -588h-55l355 588h54z" />
    <glyph glyph-name="questiondown" unicode="&#xbf;" horiz-adv-x="444" 
d="M308 148l77 -84l-9 -9c-4 1 -8 2 -11 2c-28 0 -47 -63 -159 -63c-73 0 -147 45 -147 125c0 49 28 84 57 115c28 30 57 55 57 86c0 15 -5 26 -17 26v12h112v-12c-8 0 -15 -6 -17 -29c-5 -54 -28 -86 -49 -111c-22 -26 -43 -47 -43 -78c0 -36 26 -58 61 -58
c53 0 82 36 82 53c0 5 -1 12 -3 18zM213 418c-35 0 -64 29 -64 64s29 64 64 64s64 -29 64 -64s-29 -64 -64 -64z" />
    <glyph glyph-name="grave" unicode="`" horiz-adv-x="333" 
d="M16 634h136l90 -144h-82z" />
    <glyph glyph-name="acute" unicode="&#xb4;" horiz-adv-x="333" 
d="M182 634h135l-142 -144h-84z" />
    <glyph glyph-name="circumflex" unicode="&#x2c6;" horiz-adv-x="333" 
d="M167 580l-71 -90h-93l108 144h111l108 -144h-93z" />
    <glyph glyph-name="tilde" unicode="&#x2dc;" horiz-adv-x="333" 
d="M286 620h57c-12 -61 -41 -116 -112 -116c-39 0 -106 38 -143 38c-26 0 -37 -23 -43 -44h-56c12 65 35 108 105 117c42 5 106 -39 146 -39c25 0 41 21 46 44z" />
    <glyph glyph-name="macron" unicode="&#xaf;" horiz-adv-x="333" 
d="M330 524h-327v66h327v-66z" />
    <glyph glyph-name="breve" unicode="&#x2d8;" horiz-adv-x="333" 
d="M274 638h58c-6 -89 -73 -144 -162 -144s-156 55 -162 144h58c14 -64 57 -76 104 -76s90 12 104 76z" />
    <glyph glyph-name="dotaccent" unicode="&#x2d9;" horiz-adv-x="333" 
d="M221 502h-110v110h110v-110z" />
    <glyph glyph-name="dieresis" unicode="&#xa8;" horiz-adv-x="333" 
d="M309 502h-110v110h110v-110zM134 502h-110v110h110v-110z" />
    <glyph glyph-name="ring" unicode="&#x2da;" horiz-adv-x="333" 
d="M166 694c58 0 103 -46 103 -103s-45 -103 -103 -103s-103 46 -103 103s45 103 103 103zM166 650c-33 0 -59 -26 -59 -59s26 -59 59 -59s59 26 59 59s-26 59 -59 59z" />
    <glyph glyph-name="cedilla" unicode="&#xb8;" horiz-adv-x="333" 
d="M51 -200l18 40c20 -8 43 -16 65 -16c29 0 60 5 60 40c0 25 -19 36 -41 36c-15 0 -31 -2 -43 -7l-22 19l66 88h49l-44 -58l2 -2c6 2 15 4 24 4c45 0 91 -26 91 -76c0 -71 -67 -94 -128 -94c-29 0 -72 13 -97 26z" />
    <glyph glyph-name="hungarumlaut" unicode="&#x2dd;" horiz-adv-x="333" 
d="M18 490l74 144h128l-123 -144h-79zM184 490l91 144h135l-142 -144h-84z" />
    <glyph glyph-name="ogonek" unicode="&#x2db;" horiz-adv-x="333" 
d="M255 20v-11c-52 -18 -145 -55 -145 -122c0 -38 22 -51 55 -51c29 0 73 25 98 41l16 -32c-40 -28 -97 -59 -147 -59c-55 0 -104 28 -104 88c0 102 150 130 227 146z" />
    <glyph glyph-name="caron" unicode="&#x2c7;" horiz-adv-x="333" 
d="M237 634h93l-108 -144h-111l-108 144h93l70 -90z" />
    <glyph glyph-name="emdash" unicode="&#x2014;" horiz-adv-x="1000" 
d="M1000 181h-1000v78h1000v-78z" />
    <glyph glyph-name="AE" unicode="&#xc6;" horiz-adv-x="1000" 
d="M137 0h-157v18c21 8 24 13 56 61l246 369c16 23 26 33 26 47c0 13 -13 13 -26 13v18h587c28 0 38 10 38 24h18v-138h-18c0 18 -10 28 -38 28h-323v-124h195c26 0 42 6 42 34h18v-156h-18c0 30 -16 36 -42 36h-195v-138h333c20 0 34 10 34 26h18v-140h-18
c0 20 -14 22 -34 22h-467v18c10 0 20 6 20 18v142h-219l-80 -113c-14 -19 -15 -24 -15 -32c0 -7 5 -12 19 -15v-18zM387 442l-130 -190h175v186c0 26 -2 38 -10 38c-14 0 -24 -18 -35 -34z" />
    <glyph glyph-name="ordfeminine" unicode="&#xaa;" horiz-adv-x="334" 
d="M227 328h-126l-15 -29c-3 -7 -5 -12 -5 -16c0 -6 4 -7 11 -7v-12h-92v12c10 1 16 11 19 17l89 194c5 11 8 18 8 23c0 4 -3 5 -5 6v12h110v-12c-2 -1 -6 -1 -6 -6c0 -4 4 -11 8 -20l98 -203c4 -7 9 -10 13 -11v-12h-96v10c2 0 8 2 8 8c1 5 0 9 -3 15zM161 470l-41 -94h86z
" />
    <glyph glyph-name="Lslash" unicode="&#x141;" 
d="M592 -22h-18c0 20 -14 22 -34 22h-476v18c21 0 30 6 30 18v153l-66 -28v88l66 28v213c0 12 -9 18 -30 18v18h172v-18c-19 0 -28 -6 -28 -18v-166l168 70v-87l-168 -70v-145h332c20 0 34 10 34 26h18v-140z" />
    <glyph glyph-name="Oslash" unicode="&#xd8;" horiz-adv-x="778" 
d="M251 128l218 298c-26 10 -53 14 -80 14c-102 0 -213 -64 -213 -177c0 -59 30 -105 75 -135zM520 402l-219 -299c27 -11 58 -17 88 -17c102 0 213 64 213 177c0 62 -34 110 -82 139zM91 -92l102 140c-73 43 -127 114 -127 215c0 183 177 269 323 269c46 0 94 -8 139 -26
l73 100h67l-89 -123c75 -43 133 -116 133 -220c0 -183 -177 -269 -323 -269c-48 0 -99 9 -146 29l-84 -115h-68z" />
    <glyph glyph-name="OE" unicode="&#x152;" horiz-adv-x="1000" 
d="M587 230v-138h306c20 0 34 9 34 24h18v-138h-18c0 20 -14 22 -34 22h-548c-160 0 -290 84 -290 263s130 263 290 263h538c29 0 38 10 38 23h18v-136h-18c0 16 -9 27 -38 27h-296v-124h184c26 0 42 5 42 34h18v-159h-18c0 33 -16 39 -42 39h-184zM473 207v118
c0 89 -40 115 -124 115c-119 0 -184 -59 -184 -174s65 -174 184 -174c84 0 124 26 124 115z" />
    <glyph glyph-name="ordmasculine" unicode="&#xba;" horiz-adv-x="367" 
d="M183 532c88 0 160 -44 160 -136s-72 -136 -160 -136s-160 44 -160 136s72 136 160 136zM183 478c-45 0 -88 -31 -88 -82s43 -82 88 -82s88 31 88 82s-43 82 -88 82z" />
    <glyph glyph-name="ae" unicode="&#xe6;" horiz-adv-x="889" 
d="M147 0h-145v18c18 5 33 28 47 48l230 309c15 20 21 25 21 34c0 10 -9 13 -20 13v18h506c23 0 32 8 32 24h18v-119h-18c0 13 -9 21 -32 21h-268v-100h181c12 0 19 5 19 15h18v-107h-18c0 13 -7 18 -25 18h-175v-118h279c17 0 24 3 24 13h18v-99h-18c0 10 -14 12 -31 12
h-390v18c12 0 22 5 22 15v83h-237l-42 -58c-11 -15 -15 -23 -15 -28c0 -10 10 -12 19 -12v-18zM238 190h184v190c0 13 -4 20 -12 20c-11 0 -22 -15 -30 -26z" />
    <glyph glyph-name="dotlessi" unicode="&#x131;" horiz-adv-x="333" 
d="M242 0h-152v18c21 0 28 5 28 15v374c0 10 -7 15 -28 15v18h152v-18c-19 0 -28 -5 -28 -15v-374c0 -10 9 -15 28 -15v-18z" />
    <glyph glyph-name="lslash" unicode="&#x142;" horiz-adv-x="556" 
d="M76 422v18h145v-18c-15 0 -23 -5 -23 -15v-135l142 49v-72l-142 -49v-126h270c16 0 28 8 28 21h18v-108h-18c0 11 -12 13 -28 13h-392v18c18 0 26 5 26 15v134l-59 -20v72l59 20v168c0 10 -8 15 -26 15z" />
    <glyph glyph-name="oslash" unicode="&#xf8;" 
d="M185 111l186 249c-21 8 -43 12 -66 12c-86 0 -170 -57 -170 -152c0 -45 19 -82 50 -109zM416 336l-188 -251c23 -11 50 -17 77 -17c86 0 170 57 170 152c0 50 -23 90 -59 116zM28 -99l104 139c-56 36 -93 96 -93 180c0 153 120 226 266 226c42 0 81 -6 116 -18l81 107h63
l-97 -129c63 -36 103 -98 103 -186c0 -153 -120 -226 -266 -226c-46 0 -90 7 -128 23l-87 -116h-62z" />
    <glyph glyph-name="oe" unicode="&#x153;" horiz-adv-x="944" 
d="M560 192v-118h277c17 0 29 8 29 22h18v-114h-18c0 16 -12 18 -29 18h-543c-146 0 -260 70 -260 220s102 220 260 220h528c24 0 32 8 32 24h18v-120h-18c0 15 -8 22 -32 22h-262v-100h175c22 0 35 4 35 17h18v-111h-18c0 15 -13 20 -35 20h-175zM130 220
c0 -98 82 -146 167 -146s167 48 167 146s-82 146 -167 146s-167 -48 -167 -146z" />
    <glyph glyph-name="germandbls" unicode="&#xdf;" horiz-adv-x="1112" 
d="M46 46l46 112l19 -5c0 -5 -1 -12 -1 -18c0 -40 119 -67 159 -67c36 0 123 8 123 59c0 87 -332 9 -332 179c0 85 76 140 202 140c123 0 177 -48 196 -48c11 0 14 4 22 8l11 -11l-50 -94l-18 6c-1 8 -1 16 -11 24c-27 23 -87 41 -156 41c-53 0 -100 -13 -100 -50
c0 -86 332 -6 332 -183c0 -116 -127 -145 -218 -145c-90 0 -187 48 -198 48c-5 0 -9 -2 -12 -6zM602 46l46 112l19 -5c0 -5 -1 -12 -1 -18c0 -40 119 -67 159 -67c36 0 123 8 123 59c0 87 -332 9 -332 179c0 85 76 140 202 140c123 0 177 -48 196 -48c11 0 14 4 22 8l11 -11
l-50 -94l-18 6c-1 8 -1 16 -11 24c-27 23 -87 41 -156 41c-53 0 -100 -13 -100 -50c0 -86 332 -6 332 -183c0 -116 -127 -145 -218 -145c-90 0 -187 48 -198 48c-5 0 -9 -2 -12 -6z" />
    <glyph glyph-name="onesuperior" unicode="&#xb9;" horiz-adv-x="366" 
d="M219 509v-269c0 -13 9 -17 17 -17v-10h-107v10c8 0 16 4 16 17v197c-12 0 -36 -2 -40 -14h-10v76h10c0 -8 10 -10 17 -10c14 0 26 10 26 19c0 10 -6 13 -16 14v10h105v-10c-10 -1 -18 -5 -18 -13z" />
    <glyph glyph-name="logicalnot" unicode="&#xac;" horiz-adv-x="600" 
d="M442 94v175h-362v78h440v-253h-78z" />
    <glyph glyph-name="mu" unicode="&#x3bc;" horiz-adv-x="667" 
d="M74 440h143v-18c-15 0 -22 -5 -22 -15v-229c0 -64 47 -106 142 -106s142 42 142 106v229c0 10 -8 15 -25 15v18h139v-18c-14 0 -22 -5 -22 -15v-253c0 -82 -73 -160 -234 -160c-58 0 -105 10 -142 28v-177c0 -10 8 -15 22 -15v-18h-139v18c17 0 25 5 25 15v562
c0 10 -7 15 -29 15v18z" />
    <glyph glyph-name="trademark" unicode="&#x2122;" horiz-adv-x="790" 
d="M212 511v-230c0 -28 0 -31 38 -34v-18h-150v18c39 3 38 6 38 34v230h-33c-30 0 -43 -22 -49 -47h-18v65h274v-65h-18c-6 25 -18 47 -48 47h-34zM521 229l-102 213l1 1h-2v-144c0 -38 2 -50 39 -52v-18h-100v18c36 2 37 14 37 52v174c-10 23 -29 38 -51 38v18h108
l102 -210l110 210h91v-18c-35 -1 -39 -11 -39 -34v-196c0 -28 -1 -31 38 -34v-18h-149v18c38 3 37 6 37 34v163h-2l-107 -215h-11z" />
    <glyph glyph-name="Eth" unicode="&#xd0;" horiz-adv-x="722" 
d="M74 508v18h332c146 0 260 -84 260 -263s-114 -263 -260 -263h-332v18c14 0 23 6 23 18v193h-59v86h59v175c0 12 -9 18 -23 18zM211 440v-125h162v-86h-162v-143h155c126 0 186 38 186 177s-60 177 -186 177h-155z" />
    <glyph glyph-name="onehalf" unicode="&#xbd;" horiz-adv-x="916" 
d="M236 -6h-76l425 538h76zM844 72h10v-82h-8c0 9 -10 10 -19 10h-274c-9 0 -15 -2 -16 -10h-10v24c0 128 228 137 228 209c0 28 -21 40 -63 40c-73 0 -93 -46 -93 -49c0 -4 2 -12 6 -15l-9 -6l-67 66l9 6c3 -2 6 -3 11 -3c11 0 52 57 153 57c66 0 133 -27 133 -97
c0 -112 -172 -109 -222 -166h212c9 0 19 1 19 16zM219 509v-269c0 -13 9 -17 17 -17v-10h-107v10c8 0 16 4 16 17v197c-12 0 -36 -2 -40 -14h-10v76h10c0 -8 10 -10 17 -10c14 0 26 10 26 19c0 10 -6 13 -16 14v10h105v-10c-10 -1 -18 -5 -18 -13z" />
    <glyph glyph-name="plusminus" unicode="&#xb1;" horiz-adv-x="600" 
d="M261 317v123h78v-123h181v-78h-181v-125h-78v125h-181v78h181zM80 0v78h440v-78h-440z" />
    <glyph glyph-name="Thorn" unicode="&#xde;" horiz-adv-x="667" 
d="M113 36v454c0 12 -15 18 -37 18v18h183v-18c-23 0 -32 -6 -32 -18v-62h201c128 0 206 -42 206 -156s-78 -156 -206 -156h-201v-80c0 -12 9 -18 32 -18v-18h-183v18c26 0 37 6 37 18zM227 336v-128h213c44 0 80 14 80 64s-36 64 -80 64h-213z" />
    <glyph glyph-name="onequarter" unicode="&#xbc;" horiz-adv-x="916" 
d="M274 -6h-76l425 538h76zM738 54h-190c-13 0 -21 -3 -21 -17h-10v68l166 168c9 10 18 19 18 24c0 6 -6 7 -11 9v10h129v-10c-7 0 -13 -4 -13 -11v-189h21c11 0 18 1 18 14h10v-81h-10c0 14 -7 15 -18 15h-21v-28c0 -13 7 -16 13 -16v-10h-98v10c9 0 17 3 17 16v28z
M597 106h141v142zM219 509v-269c0 -13 9 -17 17 -17v-10h-107v10c8 0 16 4 16 17v197c-12 0 -36 -2 -40 -14h-10v76h10c0 -8 10 -10 17 -10c14 0 26 10 26 19c0 10 -6 13 -16 14v10h105v-10c-10 -1 -18 -5 -18 -13z" />
    <glyph glyph-name="divide" unicode="&#xf7;" horiz-adv-x="600" 
d="M520 181h-440v78h440v-78zM237 400c0 34 30 63 63 63s63 -29 63 -63s-30 -63 -63 -63s-63 29 -63 63zM237 40c0 34 30 63 63 63s63 -29 63 -63s-30 -63 -63 -63s-63 29 -63 63z" />
    <glyph glyph-name="brokenbar" unicode="&#xa6;" horiz-adv-x="222" 
d="M72 0v200h78v-200h-78zM72 326v200h78v-200h-78z" />
    <glyph glyph-name="degree" unicode="&#xb0;" horiz-adv-x="400" 
d="M200 482c-43 0 -74 -33 -74 -74s31 -74 74 -74s74 33 74 74s-31 74 -74 74zM200 532c69 0 124 -55 124 -124c0 -70 -55 -124 -124 -124c-70 0 -124 54 -124 124c0 69 54 124 124 124z" />
    <glyph glyph-name="thorn" unicode="&#xfe;" horiz-adv-x="556" 
d="M92 33v374c0 10 -8 15 -25 15v18h142v-18c-14 0 -21 -5 -21 -15v-51h170c107 0 162 -35 162 -130c0 -96 -55 -127 -162 -127h-170v-66c0 -10 7 -15 21 -15v-18h-142v18c17 0 25 5 25 15zM188 282v-109h168c38 0 68 11 68 53c0 41 -30 56 -68 56h-168z" />
    <glyph glyph-name="threequarters" unicode="&#xbe;" horiz-adv-x="916" 
d="M304 -6h-76l425 538h76zM150 336v85h10c2 -16 21 -19 45 -19c48 0 74 16 71 39c-2 22 -24 35 -77 35c-54 0 -105 -23 -105 -36c0 -3 0 -9 2 -12l-8 -7l-52 61l10 9c3 -2 6 -3 11 -3c8 0 45 44 145 44c67 0 146 -24 146 -87c0 -29 -20 -56 -51 -63v-2c37 -7 64 -31 64 -67
c0 -81 -98 -104 -168 -104c-39 0 -73 10 -99 19s-44 19 -50 19c-5 0 -8 -3 -11 -5l-8 4l39 86l9 -4c-1 -3 -3 -6 -3 -11c0 -14 54 -52 127 -52c61 0 88 19 88 45c0 28 -24 42 -80 42c-24 0 -43 -4 -45 -16h-10zM738 54h-190c-13 0 -21 -3 -21 -17h-10v68l166 168
c9 10 18 19 18 24c0 6 -6 7 -11 9v10h129v-10c-7 0 -13 -4 -13 -11v-189h21c11 0 18 1 18 14h10v-81h-10c0 14 -7 15 -18 15h-21v-28c0 -13 7 -16 13 -16v-10h-98v10c9 0 17 3 17 16v28zM597 106h141v142z" />
    <glyph glyph-name="twosuperior" unicode="&#xb2;" horiz-adv-x="366" 
d="M332 285h10v-82h-8c0 9 -10 10 -19 10h-274c-9 0 -15 -2 -16 -10h-10v24c0 128 228 137 228 209c0 28 -21 40 -63 40c-73 0 -93 -46 -93 -49c0 -4 2 -12 6 -15l-9 -6l-67 66l9 6c3 -2 6 -3 11 -3c11 0 52 57 153 57c66 0 133 -27 133 -97c0 -112 -172 -109 -222 -166h212
c9 0 19 1 19 16z" />
    <glyph glyph-name="registered" unicode="&#xae;" horiz-adv-x="600" 
d="M174 398v14h149c47 0 86 -23 86 -74c0 -35 -23 -67 -60 -78l44 -63c17 -24 36 -48 50 -63v-9h-64c-24 0 -46 69 -82 125h-25v-77c0 -26 -1 -30 34 -32v-16h-132v16c34 2 34 6 34 32v193c0 26 0 30 -34 32zM272 394v-126h24c35 0 45 34 45 67c0 44 -18 59 -44 59h-25z
M300 -6c-150 0 -263 117 -263 268c0 152 113 270 263 270c151 0 263 -118 263 -270c0 -151 -112 -268 -263 -268zM300 36c118 0 205 102 205 226c0 125 -86 228 -205 228c-118 0 -205 -104 -205 -228s87 -226 205 -226z" />
    <glyph glyph-name="minus" unicode="&#x2212;" horiz-adv-x="600" 
d="M520 181h-440v78h440v-78z" />
    <glyph glyph-name="eth" unicode="&#xf0;" 
d="M90 33v155h-58v74h58v145c0 10 -7 15 -23 15v18h278c157 0 221 -109 221 -220s-60 -220 -217 -220h-282v18c16 0 23 5 23 15zM186 188v-114h130c82 0 154 15 154 149c0 133 -72 143 -154 143h-130v-104h130v-74h-130z" />
    <glyph glyph-name="multiply" unicode="&#xd7;" horiz-adv-x="600" 
d="M300 165l-165 -165l-55 55l165 165l-165 165l55 55l165 -165l165 165l55 -55l-166 -165l166 -165l-55 -55z" />
    <glyph glyph-name="threesuperior" unicode="&#xb3;" horiz-adv-x="366" 
d="M78 428l-8 -7l-52 61l10 9c3 -2 6 -3 11 -3c8 0 45 44 145 44c67 0 146 -24 146 -87c0 -29 -20 -56 -51 -63v-2c37 -7 64 -31 64 -67c0 -81 -98 -104 -168 -104c-39 0 -73 10 -99 19s-44 19 -50 19c-5 0 -8 -3 -11 -5l-8 4l39 86l9 -4c-1 -3 -3 -6 -3 -11
c0 -14 54 -52 127 -52c61 0 88 19 88 45c0 28 -24 42 -80 42c-24 0 -43 -4 -45 -16h-10v85h10c2 -16 21 -19 45 -19c48 0 74 16 71 39c-2 22 -24 35 -77 35c-54 0 -105 -23 -105 -36c0 -3 0 -9 2 -12z" />
    <glyph glyph-name="copyright" unicode="&#xa9;" horiz-adv-x="600" 
d="M300 -6c-150 0 -263 117 -263 268c0 152 113 270 263 270c151 0 263 -118 263 -270c0 -151 -112 -268 -263 -268zM300 36c118 0 205 102 205 226c0 125 -86 228 -205 228c-118 0 -205 -104 -205 -228s87 -226 205 -226zM413 204h16l-11 -57c-2 -9 -9 -11 -23 -16
c-13 -4 -45 -14 -80 -14c-99 0 -165 50 -165 154c0 65 42 150 171 150c39 0 58 -7 79 -14c12 -3 16 -9 16 -16v-54h-16c-8 31 -28 66 -79 66c-59 0 -87 -52 -88 -128c0 -80 22 -140 89 -140c44 0 73 29 91 69z" />
    <glyph glyph-name="Aacute" unicode="&#xc1;" horiz-adv-x="667" 
d="M163 0h-142v18c17 2 26 19 35 38l185 389c9 17 18 33 18 43c0 13 -12 18 -22 20v18h169v-18c-9 -2 -21 -6 -21 -20c0 -10 5 -20 14 -37l208 -407c7 -14 18 -20 33 -26v-18h-176v18c5 0 16 4 16 12c0 6 -2 15 -8 26l-38 74h-244l-36 -71c-6 -13 -10 -24 -10 -30
s9 -11 19 -11v-18zM314 390l-94 -186h178zM337 703h135l-142 -144h-84z" />
    <glyph glyph-name="Acircumflex" unicode="&#xc2;" horiz-adv-x="667" 
d="M163 0h-142v18c17 2 26 19 35 38l185 389c9 17 18 33 18 43c0 13 -12 18 -22 20v18h169v-18c-9 -2 -21 -6 -21 -20c0 -10 5 -20 14 -37l208 -407c7 -14 18 -20 33 -26v-18h-176v18c5 0 16 4 16 12c0 6 -2 15 -8 26l-38 74h-244l-36 -71c-6 -13 -10 -24 -10 -30
s9 -11 19 -11v-18zM314 390l-94 -186h178zM322 649l-71 -90h-93l108 144h111l108 -144h-93z" />
    <glyph glyph-name="Adieresis" unicode="&#xc4;" horiz-adv-x="667" 
d="M163 0h-142v18c17 2 26 19 35 38l185 389c9 17 18 33 18 43c0 13 -12 18 -22 20v18h169v-18c-9 -2 -21 -6 -21 -20c0 -10 5 -20 14 -37l208 -407c7 -14 18 -20 33 -26v-18h-176v18c5 0 16 4 16 12c0 6 -2 15 -8 26l-38 74h-244l-36 -71c-6 -13 -10 -24 -10 -30
s9 -11 19 -11v-18zM314 390l-94 -186h178zM464 571h-110v110h110v-110zM289 571h-110v110h110v-110z" />
    <glyph glyph-name="Agrave" unicode="&#xc0;" horiz-adv-x="667" 
d="M163 0h-142v18c17 2 26 19 35 38l185 389c9 17 18 33 18 43c0 13 -12 18 -22 20v18h169v-18c-9 -2 -21 -6 -21 -20c0 -10 5 -20 14 -37l208 -407c7 -14 18 -20 33 -26v-18h-176v18c5 0 16 4 16 12c0 6 -2 15 -8 26l-38 74h-244l-36 -71c-6 -13 -10 -24 -10 -30
s9 -11 19 -11v-18zM314 390l-94 -186h178zM171 703h136l90 -144h-82z" />
    <glyph glyph-name="Aring" unicode="&#xc5;" horiz-adv-x="667" 
d="M163 0h-142v18c17 2 26 19 35 38l185 389c9 17 18 33 18 43c0 13 -12 18 -22 20v18h169v-18c-9 -2 -21 -6 -21 -20c0 -10 5 -20 14 -37l208 -407c7 -14 18 -20 33 -26v-18h-176v18c5 0 16 4 16 12c0 6 -2 15 -8 26l-38 74h-244l-36 -71c-6 -13 -10 -24 -10 -30
s9 -11 19 -11v-18zM314 390l-94 -186h178zM321 763c58 0 103 -46 103 -103s-45 -103 -103 -103s-103 46 -103 103s45 103 103 103zM321 719c-33 0 -59 -26 -59 -59s26 -59 59 -59s59 26 59 59s-26 59 -59 59z" />
    <glyph glyph-name="Atilde" unicode="&#xc3;" horiz-adv-x="667" 
d="M163 0h-142v18c17 2 26 19 35 38l185 389c9 17 18 33 18 43c0 13 -12 18 -22 20v18h169v-18c-9 -2 -21 -6 -21 -20c0 -10 5 -20 14 -37l208 -407c7 -14 18 -20 33 -26v-18h-176v18c5 0 16 4 16 12c0 6 -2 15 -8 26l-38 74h-244l-36 -71c-6 -13 -10 -24 -10 -30
s9 -11 19 -11v-18zM314 390l-94 -186h178zM441 689h57c-12 -61 -41 -116 -112 -116c-39 0 -106 38 -143 38c-26 0 -37 -23 -43 -44h-56c12 65 35 108 105 117c42 5 106 -39 146 -39c25 0 41 21 46 44z" />
    <glyph glyph-name="Ccedilla" unicode="&#xc7;" horiz-adv-x="722" 
d="M583 186l66 -106l-8 -8c-4 0 -7 1 -11 1c-15 0 -127 -79 -256 -79c-169 0 -320 92 -320 269s151 269 320 269c67 0 124 -13 165 -25s66 -25 71 -25c6 0 11 9 14 13l15 -12l-78 -121l-10 7c0 4 -1 8 -2 13c-6 30 -109 64 -175 64c-113 0 -210 -65 -210 -180
s97 -180 210 -180c84 0 199 43 199 80c0 4 -2 9 -4 12zM258 -200l18 40c20 -8 43 -16 65 -16c29 0 60 5 60 40c0 25 -19 36 -41 36c-15 0 -31 -2 -43 -7l-22 19l66 88h49l-44 -58l2 -2c6 2 15 4 24 4c45 0 91 -26 91 -76c0 -71 -67 -94 -128 -94c-29 0 -72 13 -97 26z" />
    <glyph glyph-name="Eacute" unicode="&#xc9;" horiz-adv-x="667" 
d="M598 550v-132h-18c0 14 -10 22 -38 22h-324v-124h196c26 0 42 4 42 34h18v-156h-18c0 30 -16 36 -42 36h-196v-138h334c20 0 34 10 34 26h18v-140h-18c0 20 -14 22 -34 22h-466v18c9 0 18 6 18 18v454c0 12 -9 18 -18 18v18h456c28 0 38 10 38 24h18zM361 703h135
l-142 -144h-84z" />
    <glyph glyph-name="Ecircumflex" unicode="&#xca;" horiz-adv-x="667" 
d="M598 550v-132h-18c0 14 -10 22 -38 22h-324v-124h196c26 0 42 4 42 34h18v-156h-18c0 30 -16 36 -42 36h-196v-138h334c20 0 34 10 34 26h18v-140h-18c0 20 -14 22 -34 22h-466v18c9 0 18 6 18 18v454c0 12 -9 18 -18 18v18h456c28 0 38 10 38 24h18zM346 649l-71 -90
h-93l108 144h111l108 -144h-93z" />
    <glyph glyph-name="Edieresis" unicode="&#xcb;" horiz-adv-x="667" 
d="M598 550v-132h-18c0 14 -10 22 -38 22h-324v-124h196c26 0 42 4 42 34h18v-156h-18c0 30 -16 36 -42 36h-196v-138h334c20 0 34 10 34 26h18v-140h-18c0 20 -14 22 -34 22h-466v18c9 0 18 6 18 18v454c0 12 -9 18 -18 18v18h456c28 0 38 10 38 24h18zM488 571h-110v110
h110v-110zM313 571h-110v110h110v-110z" />
    <glyph glyph-name="Egrave" unicode="&#xc8;" horiz-adv-x="667" 
d="M598 550v-132h-18c0 14 -10 22 -38 22h-324v-124h196c26 0 42 4 42 34h18v-156h-18c0 30 -16 36 -42 36h-196v-138h334c20 0 34 10 34 26h18v-140h-18c0 20 -14 22 -34 22h-466v18c9 0 18 6 18 18v454c0 12 -9 18 -18 18v18h456c28 0 38 10 38 24h18zM195 703h136
l90 -144h-82z" />
    <glyph glyph-name="Iacute" unicode="&#xcd;" horiz-adv-x="333" 
d="M249 0h-166v18c17 0 26 6 26 18v454c0 12 -9 18 -26 18v18h166v-18c-17 0 -26 -6 -26 -18v-454c0 -12 9 -18 26 -18v-18zM182 703h135l-142 -144h-84z" />
    <glyph glyph-name="Icircumflex" unicode="&#xce;" horiz-adv-x="333" 
d="M249 0h-166v18c17 0 26 6 26 18v454c0 12 -9 18 -26 18v18h166v-18c-17 0 -26 -6 -26 -18v-454c0 -12 9 -18 26 -18v-18zM167 649l-71 -90h-93l108 144h111l108 -144h-93z" />
    <glyph glyph-name="Idieresis" unicode="&#xcf;" horiz-adv-x="333" 
d="M249 0h-166v18c17 0 26 6 26 18v454c0 12 -9 18 -26 18v18h166v-18c-17 0 -26 -6 -26 -18v-454c0 -12 9 -18 26 -18v-18zM309 571h-110v110h110v-110zM134 571h-110v110h110v-110z" />
    <glyph glyph-name="Igrave" unicode="&#xcc;" horiz-adv-x="333" 
d="M249 0h-166v18c17 0 26 6 26 18v454c0 12 -9 18 -26 18v18h166v-18c-17 0 -26 -6 -26 -18v-454c0 -12 9 -18 26 -18v-18zM16 703h136l90 -144h-82z" />
    <glyph glyph-name="Ntilde" unicode="&#xd1;" horiz-adv-x="778" 
d="M239 0h-148v18c10 0 19 6 19 18v454c0 12 -9 18 -19 18v18h171v-18c-4 0 -8 -3 -8 -10c0 -6 6 -14 20 -28l287 -298v318c0 12 -9 18 -26 18v18h151v-18c-10 0 -19 -6 -19 -18v-454c0 -12 9 -18 19 -18v-18h-162v18c7 0 13 3 13 9c0 5 -5 12 -16 23l-305 318v-332
c0 -12 9 -18 23 -18v-18zM509 689h57c-12 -61 -41 -116 -112 -116c-39 0 -106 38 -143 38c-26 0 -37 -23 -43 -44h-56c12 65 35 108 105 117c42 5 106 -39 146 -39c25 0 41 21 46 44z" />
    <glyph glyph-name="Oacute" unicode="&#xd3;" horiz-adv-x="778" 
d="M389 532c146 0 323 -86 323 -269s-177 -269 -323 -269s-323 86 -323 269s177 269 323 269zM389 440c-102 0 -213 -64 -213 -177s111 -177 213 -177s213 64 213 177s-111 177 -213 177zM405 703h135l-142 -144h-84z" />
    <glyph glyph-name="Ocircumflex" unicode="&#xd4;" horiz-adv-x="778" 
d="M389 532c146 0 323 -86 323 -269s-177 -269 -323 -269s-323 86 -323 269s177 269 323 269zM389 440c-102 0 -213 -64 -213 -177s111 -177 213 -177s213 64 213 177s-111 177 -213 177zM390 649l-71 -90h-93l108 144h111l108 -144h-93z" />
    <glyph glyph-name="Odieresis" unicode="&#xd6;" horiz-adv-x="778" 
d="M389 532c146 0 323 -86 323 -269s-177 -269 -323 -269s-323 86 -323 269s177 269 323 269zM389 440c-102 0 -213 -64 -213 -177s111 -177 213 -177s213 64 213 177s-111 177 -213 177zM532 571h-110v110h110v-110zM357 571h-110v110h110v-110z" />
    <glyph glyph-name="Ograve" unicode="&#xd2;" horiz-adv-x="778" 
d="M389 532c146 0 323 -86 323 -269s-177 -269 -323 -269s-323 86 -323 269s177 269 323 269zM389 440c-102 0 -213 -64 -213 -177s111 -177 213 -177s213 64 213 177s-111 177 -213 177zM239 703h136l90 -144h-82z" />
    <glyph glyph-name="Otilde" unicode="&#xd5;" horiz-adv-x="778" 
d="M389 532c146 0 323 -86 323 -269s-177 -269 -323 -269s-323 86 -323 269s177 269 323 269zM389 440c-102 0 -213 -64 -213 -177s111 -177 213 -177s213 64 213 177s-111 177 -213 177zM509 689h57c-12 -61 -41 -116 -112 -116c-39 0 -106 38 -143 38
c-26 0 -37 -23 -43 -44h-56c12 65 35 108 105 117c42 5 106 -39 146 -39c25 0 41 21 46 44z" />
    <glyph glyph-name="Scaron" unicode="&#x160;" horiz-adv-x="667" 
d="M84 36l-14 8l55 121l10 -5c0 -6 1 -11 4 -16c20 -33 119 -64 182 -64c44 0 161 11 161 72c0 122 -406 -31 -406 214c0 83 77 166 243 166c139 0 206 -50 240 -50c10 0 16 2 20 6l12 -8l-69 -125l-10 4c-1 9 -4 17 -8 23c-21 31 -105 64 -182 64c-59 0 -132 -17 -132 -61
c0 -127 406 21 406 -219c0 -138 -165 -172 -273 -172c-154 0 -196 50 -226 50c-5 0 -10 -4 -13 -8zM404 703h93l-108 -144h-111l-108 144h93l70 -90z" />
    <glyph glyph-name="Uacute" unicode="&#xda;" horiz-adv-x="722" 
d="M66 526h164v-18c-13 0 -22 -6 -22 -18v-300c0 -84 57 -110 159 -110s159 26 159 110v300c0 12 -9 18 -30 18v18h160v-18c-15 0 -24 -6 -24 -18v-295c0 -157 -92 -201 -269 -201s-269 44 -269 201v295c0 12 -9 18 -28 18v18zM377 703h135l-142 -144h-84z" />
    <glyph glyph-name="Ucircumflex" unicode="&#xdb;" horiz-adv-x="722" 
d="M66 526h164v-18c-13 0 -22 -6 -22 -18v-300c0 -84 57 -110 159 -110s159 26 159 110v300c0 12 -9 18 -30 18v18h160v-18c-15 0 -24 -6 -24 -18v-295c0 -157 -92 -201 -269 -201s-269 44 -269 201v295c0 12 -9 18 -28 18v18zM362 649l-71 -90h-93l108 144h111l108 -144
h-93z" />
    <glyph glyph-name="Udieresis" unicode="&#xdc;" horiz-adv-x="722" 
d="M66 526h164v-18c-13 0 -22 -6 -22 -18v-300c0 -84 57 -110 159 -110s159 26 159 110v300c0 12 -9 18 -30 18v18h160v-18c-15 0 -24 -6 -24 -18v-295c0 -157 -92 -201 -269 -201s-269 44 -269 201v295c0 12 -9 18 -28 18v18zM504 571h-110v110h110v-110zM329 571h-110v110
h110v-110z" />
    <glyph glyph-name="Ugrave" unicode="&#xd9;" horiz-adv-x="722" 
d="M66 526h164v-18c-13 0 -22 -6 -22 -18v-300c0 -84 57 -110 159 -110s159 26 159 110v300c0 12 -9 18 -30 18v18h160v-18c-15 0 -24 -6 -24 -18v-295c0 -157 -92 -201 -269 -201s-269 44 -269 201v295c0 12 -9 18 -28 18v18zM211 703h136l90 -144h-82z" />
    <glyph glyph-name="Yacute" unicode="&#xdd;" 
d="M11 508v18h208v-18c-12 0 -25 -2 -25 -15c0 -16 88 -133 123 -189l117 161c11 16 18 24 18 32c0 9 -16 11 -27 11v18h175v-18c-23 0 -33 -6 -66 -53l-170 -241v-178c0 -12 9 -18 23 -18v-18h-158v18c12 0 21 6 21 18v178l-193 270c-9 13 -33 24 -46 24zM321 703h135
l-142 -144h-84z" />
    <glyph glyph-name="Ydieresis" unicode="&#x178;" 
d="M11 508v18h208v-18c-12 0 -25 -2 -25 -15c0 -16 88 -133 123 -189l117 161c11 16 18 24 18 32c0 9 -16 11 -27 11v18h175v-18c-23 0 -33 -6 -66 -53l-170 -241v-178c0 -12 9 -18 23 -18v-18h-158v18c12 0 21 6 21 18v178l-193 270c-9 13 -33 24 -46 24zM448 571h-110v110
h110v-110zM273 571h-110v110h110v-110z" />
    <glyph glyph-name="Zcaron" unicode="&#x17d;" 
d="M49 0v28l323 412h-272c-20 0 -30 -10 -30 -28h-18v138h18c0 -14 10 -24 30 -24h461v-28l-318 -406h272c20 0 28 6 28 22h18v-136h-18c0 16 -8 22 -28 22h-466zM376 703h93l-108 -144h-111l-108 144h93l70 -90z" />
    <glyph glyph-name="aacute" unicode="&#xe1;" horiz-adv-x="556" 
d="M149 0h-134v18c16 2 26 18 31 29l149 325c8 18 13 29 13 39c0 8 -4 9 -8 11v18h151v-18c-4 -2 -10 -2 -10 -11c0 -8 7 -19 14 -34l162 -340c6 -12 15 -17 24 -19v-18h-142v15c6 0 16 4 16 14c0 8 -3 14 -7 24l-27 57h-214l-28 -54c-5 -11 -9 -19 -9 -26
c0 -10 7 -12 19 -12v-18zM268 352l-71 -168h152zM282 634h135l-142 -144h-84z" />
    <glyph glyph-name="acircumflex" unicode="&#xe2;" horiz-adv-x="556" 
d="M149 0h-134v18c16 2 26 18 31 29l149 325c8 18 13 29 13 39c0 8 -4 9 -8 11v18h151v-18c-4 -2 -10 -2 -10 -11c0 -8 7 -19 14 -34l162 -340c6 -12 15 -17 24 -19v-18h-142v15c6 0 16 4 16 14c0 8 -3 14 -7 24l-27 57h-214l-28 -54c-5 -11 -9 -19 -9 -26
c0 -10 7 -12 19 -12v-18zM268 352l-71 -168h152zM267 580l-71 -90h-93l108 144h111l108 -144h-93z" />
    <glyph glyph-name="adieresis" unicode="&#xe4;" horiz-adv-x="556" 
d="M149 0h-134v18c16 2 26 18 31 29l149 325c8 18 13 29 13 39c0 8 -4 9 -8 11v18h151v-18c-4 -2 -10 -2 -10 -11c0 -8 7 -19 14 -34l162 -340c6 -12 15 -17 24 -19v-18h-142v15c6 0 16 4 16 14c0 8 -3 14 -7 24l-27 57h-214l-28 -54c-5 -11 -9 -19 -9 -26
c0 -10 7 -12 19 -12v-18zM268 352l-71 -168h152zM409 502h-110v110h110v-110zM234 502h-110v110h110v-110z" />
    <glyph glyph-name="agrave" unicode="&#xe0;" horiz-adv-x="556" 
d="M149 0h-134v18c16 2 26 18 31 29l149 325c8 18 13 29 13 39c0 8 -4 9 -8 11v18h151v-18c-4 -2 -10 -2 -10 -11c0 -8 7 -19 14 -34l162 -340c6 -12 15 -17 24 -19v-18h-142v15c6 0 16 4 16 14c0 8 -3 14 -7 24l-27 57h-214l-28 -54c-5 -11 -9 -19 -9 -26
c0 -10 7 -12 19 -12v-18zM268 352l-71 -168h152zM116 634h136l90 -144h-82z" />
    <glyph glyph-name="aring" unicode="&#xe5;" horiz-adv-x="556" 
d="M149 0h-134v18c16 2 26 18 31 29l149 325c8 18 13 29 13 39c0 8 -4 9 -8 11v18h151v-18c-4 -2 -10 -2 -10 -11c0 -8 7 -19 14 -34l162 -340c6 -12 15 -17 24 -19v-18h-142v15c6 0 16 4 16 14c0 8 -3 14 -7 24l-27 57h-214l-28 -54c-5 -11 -9 -19 -9 -26
c0 -10 7 -12 19 -12v-18zM268 352l-71 -168h152zM266 694c58 0 103 -46 103 -103s-45 -103 -103 -103s-103 46 -103 103s45 103 103 103zM266 650c-33 0 -59 -26 -59 -59s26 -59 59 -59s59 26 59 59s-26 59 -59 59z" />
    <glyph glyph-name="atilde" unicode="&#xe3;" horiz-adv-x="556" 
d="M149 0h-134v18c16 2 26 18 31 29l149 325c8 18 13 29 13 39c0 8 -4 9 -8 11v18h151v-18c-4 -2 -10 -2 -10 -11c0 -8 7 -19 14 -34l162 -340c6 -12 15 -17 24 -19v-18h-142v15c6 0 16 4 16 14c0 8 -3 14 -7 24l-27 57h-214l-28 -54c-5 -11 -9 -19 -9 -26
c0 -10 7 -12 19 -12v-18zM268 352l-71 -168h152zM386 620h57c-12 -61 -41 -116 -112 -116c-39 0 -106 38 -143 38c-26 0 -37 -23 -43 -44h-56c12 65 35 108 105 117c42 5 106 -39 146 -39c25 0 41 21 46 44z" />
    <glyph glyph-name="ccedilla" unicode="&#xe7;" horiz-adv-x="556" 
d="M506 401l-66 -95l-11 8c0 3 -1 5 -1 9c0 14 -57 49 -137 49c-95 0 -163 -52 -163 -149c0 -96 78 -155 156 -155c71 0 158 41 158 64c0 5 0 10 -1 18l11 10l74 -106l-10 -5c-6 3 -11 5 -17 5c-22 0 -97 -60 -217 -60c-123 0 -250 78 -250 227s127 225 258 225
c52 0 94 -12 124 -23c31 -11 58 -23 64 -23c7 0 11 5 16 8zM175 -200l18 40c20 -8 43 -16 65 -16c29 0 60 5 60 40c0 25 -19 36 -41 36c-15 0 -31 -2 -43 -7l-22 19l66 88h49l-44 -58l2 -2c6 2 15 4 24 4c45 0 91 -26 91 -76c0 -71 -67 -94 -128 -94c-29 0 -72 13 -97 26z
" />
    <glyph glyph-name="eacute" unicode="&#xe9;" horiz-adv-x="556" 
d="M486 458v-111h-18c0 14 -10 19 -31 19h-244v-100h154c23 0 33 2 33 16h18v-106h-20c4 14 -13 16 -39 16h-146v-118h256c16 0 28 8 28 20h18v-108h-18c0 12 -12 14 -28 14h-367v18c7 0 15 5 15 15v374c0 10 -8 15 -15 15v18h355c21 0 31 8 31 18h18zM306 634h135
l-142 -144h-84z" />
    <glyph glyph-name="ecircumflex" unicode="&#xea;" horiz-adv-x="556" 
d="M486 458v-111h-18c0 14 -10 19 -31 19h-244v-100h154c23 0 33 2 33 16h18v-106h-20c4 14 -13 16 -39 16h-146v-118h256c16 0 28 8 28 20h18v-108h-18c0 12 -12 14 -28 14h-367v18c7 0 15 5 15 15v374c0 10 -8 15 -15 15v18h355c21 0 31 8 31 18h18zM291 580l-71 -90h-93
l108 144h111l108 -144h-93z" />
    <glyph glyph-name="edieresis" unicode="&#xeb;" horiz-adv-x="556" 
d="M486 458v-111h-18c0 14 -10 19 -31 19h-244v-100h154c23 0 33 2 33 16h18v-106h-20c4 14 -13 16 -39 16h-146v-118h256c16 0 28 8 28 20h18v-108h-18c0 12 -12 14 -28 14h-367v18c7 0 15 5 15 15v374c0 10 -8 15 -15 15v18h355c21 0 31 8 31 18h18zM433 502h-110v110h110
v-110zM258 502h-110v110h110v-110z" />
    <glyph glyph-name="egrave" unicode="&#xe8;" horiz-adv-x="556" 
d="M486 458v-111h-18c0 14 -10 19 -31 19h-244v-100h154c23 0 33 2 33 16h18v-106h-20c4 14 -13 16 -39 16h-146v-118h256c16 0 28 8 28 20h18v-108h-18c0 12 -12 14 -28 14h-367v18c7 0 15 5 15 15v374c0 10 -8 15 -15 15v18h355c21 0 31 8 31 18h18zM140 634h136l90 -144
h-82z" />
    <glyph glyph-name="iacute" unicode="&#xed;" horiz-adv-x="333" 
d="M242 0h-152v18c21 0 28 5 28 15v374c0 10 -7 15 -28 15v18h152v-18c-19 0 -28 -5 -28 -15v-374c0 -10 9 -15 28 -15v-18zM182 634h135l-142 -144h-84z" />
    <glyph glyph-name="icircumflex" unicode="&#xee;" horiz-adv-x="333" 
d="M242 0h-152v18c21 0 28 5 28 15v374c0 10 -7 15 -28 15v18h152v-18c-19 0 -28 -5 -28 -15v-374c0 -10 9 -15 28 -15v-18zM167 580l-71 -90h-93l108 144h111l108 -144h-93z" />
    <glyph glyph-name="idieresis" unicode="&#xef;" horiz-adv-x="333" 
d="M242 0h-152v18c21 0 28 5 28 15v374c0 10 -7 15 -28 15v18h152v-18c-19 0 -28 -5 -28 -15v-374c0 -10 9 -15 28 -15v-18zM309 502h-110v110h110v-110zM134 502h-110v110h110v-110z" />
    <glyph glyph-name="igrave" unicode="&#xec;" horiz-adv-x="333" 
d="M242 0h-152v18c21 0 28 5 28 15v374c0 10 -7 15 -28 15v18h152v-18c-19 0 -28 -5 -28 -15v-374c0 -10 9 -15 28 -15v-18zM16 634h136l90 -144h-82z" />
    <glyph glyph-name="ntilde" unicode="&#xf1;" horiz-adv-x="667" 
d="M204 0h-123v18c10 0 18 5 18 15v374c0 10 -8 15 -18 15v18h147v-18c-6 -1 -7 -2 -7 -5c0 -5 8 -12 22 -27l240 -254v271c0 10 -8 15 -20 15v18h122v-18c-10 0 -18 -5 -18 -15v-374c0 -10 8 -15 18 -15v-18h-130v18c4 0 7 1 7 5c0 5 -15 20 -31 37l-248 264v-291
c0 -10 8 -15 21 -15v-18zM453 620h57c-12 -61 -41 -116 -112 -116c-39 0 -106 38 -143 38c-26 0 -37 -23 -43 -44h-56c12 65 35 108 105 117c42 5 106 -39 146 -39c25 0 41 21 46 44z" />
    <glyph glyph-name="oacute" unicode="&#xf3;" 
d="M305 446c146 0 266 -73 266 -226s-120 -226 -266 -226s-266 73 -266 226s120 226 266 226zM305 372c-86 0 -170 -57 -170 -152s84 -152 170 -152s170 57 170 152s-84 152 -170 152zM321 634h135l-142 -144h-84z" />
    <glyph glyph-name="ocircumflex" unicode="&#xf4;" 
d="M305 446c146 0 266 -73 266 -226s-120 -226 -266 -226s-266 73 -266 226s120 226 266 226zM305 372c-86 0 -170 -57 -170 -152s84 -152 170 -152s170 57 170 152s-84 152 -170 152zM306 580l-71 -90h-93l108 144h111l108 -144h-93z" />
    <glyph glyph-name="odieresis" unicode="&#xf6;" 
d="M305 446c146 0 266 -73 266 -226s-120 -226 -266 -226s-266 73 -266 226s120 226 266 226zM305 372c-86 0 -170 -57 -170 -152s84 -152 170 -152s170 57 170 152s-84 152 -170 152zM448 502h-110v110h110v-110zM273 502h-110v110h110v-110z" />
    <glyph glyph-name="ograve" unicode="&#xf2;" 
d="M305 446c146 0 266 -73 266 -226s-120 -226 -266 -226s-266 73 -266 226s120 226 266 226zM305 372c-86 0 -170 -57 -170 -152s84 -152 170 -152s170 57 170 152s-84 152 -170 152zM155 634h136l90 -144h-82z" />
    <glyph glyph-name="otilde" unicode="&#xf5;" 
d="M305 446c146 0 266 -73 266 -226s-120 -226 -266 -226s-266 73 -266 226s120 226 266 226zM305 372c-86 0 -170 -57 -170 -152s84 -152 170 -152s170 57 170 152s-84 152 -170 152zM425 620h57c-12 -61 -41 -116 -112 -116c-39 0 -106 38 -143 38c-26 0 -37 -23 -43 -44
h-56c12 65 35 108 105 117c42 5 106 -39 146 -39c25 0 41 21 46 44z" />
    <glyph glyph-name="scaron" unicode="&#x161;" horiz-adv-x="556" 
d="M46 46l46 112l19 -5c0 -5 -1 -12 -1 -18c0 -40 119 -67 159 -67c36 0 123 8 123 59c0 87 -332 9 -332 179c0 85 76 140 202 140c123 0 177 -48 196 -48c11 0 14 4 22 8l11 -11l-50 -94l-18 6c-1 8 -1 16 -11 24c-27 23 -87 41 -156 41c-53 0 -100 -13 -100 -50
c0 -86 332 -6 332 -183c0 -116 -127 -145 -218 -145c-90 0 -187 48 -198 48c-5 0 -9 -2 -12 -6zM349 634h93l-108 -144h-111l-108 144h93l70 -90z" />
    <glyph glyph-name="uacute" unicode="&#xfa;" horiz-adv-x="667" 
d="M74 440h143v-18c-15 0 -22 -5 -22 -15v-229c0 -64 47 -106 142 -106s142 42 142 106v229c0 10 -8 15 -25 15v18h139v-18c-14 0 -22 -5 -22 -15v-253c0 -82 -73 -160 -234 -160s-234 78 -234 160v253c0 10 -7 15 -29 15v18zM349 634h135l-142 -144h-84z" />
    <glyph glyph-name="ucircumflex" unicode="&#xfb;" horiz-adv-x="667" 
d="M74 440h143v-18c-15 0 -22 -5 -22 -15v-229c0 -64 47 -106 142 -106s142 42 142 106v229c0 10 -8 15 -25 15v18h139v-18c-14 0 -22 -5 -22 -15v-253c0 -82 -73 -160 -234 -160s-234 78 -234 160v253c0 10 -7 15 -29 15v18zM334 580l-71 -90h-93l108 144h111l108 -144h-93
z" />
    <glyph glyph-name="udieresis" unicode="&#xfc;" horiz-adv-x="667" 
d="M74 440h143v-18c-15 0 -22 -5 -22 -15v-229c0 -64 47 -106 142 -106s142 42 142 106v229c0 10 -8 15 -25 15v18h139v-18c-14 0 -22 -5 -22 -15v-253c0 -82 -73 -160 -234 -160s-234 78 -234 160v253c0 10 -7 15 -29 15v18zM476 502h-110v110h110v-110zM301 502h-110v110
h110v-110z" />
    <glyph glyph-name="ugrave" unicode="&#xf9;" horiz-adv-x="667" 
d="M74 440h143v-18c-15 0 -22 -5 -22 -15v-229c0 -64 47 -106 142 -106s142 42 142 106v229c0 10 -8 15 -25 15v18h139v-18c-14 0 -22 -5 -22 -15v-253c0 -82 -73 -160 -234 -160s-234 78 -234 160v253c0 10 -7 15 -29 15v18zM183 634h136l90 -144h-82z" />
    <glyph glyph-name="yacute" unicode="&#xfd;" horiz-adv-x="556" 
d="M230 33v154l-170 218c-9 12 -24 17 -36 17v18h165v-18c-7 0 -17 -5 -17 -13s6 -14 13 -23l101 -132l89 124c12 17 18 24 18 32c0 10 -8 12 -15 12v18h153v-18c-16 0 -38 -23 -52 -41l-153 -198v-150c0 -10 8 -15 19 -15v-18h-133v18c10 0 18 5 18 15zM294 634h135
l-142 -144h-84z" />
    <glyph glyph-name="ydieresis" unicode="&#xff;" horiz-adv-x="556" 
d="M230 33v154l-170 218c-9 12 -24 17 -36 17v18h165v-18c-7 0 -17 -5 -17 -13s6 -14 13 -23l101 -132l89 124c12 17 18 24 18 32c0 10 -8 12 -15 12v18h153v-18c-16 0 -38 -23 -52 -41l-153 -198v-150c0 -10 8 -15 19 -15v-18h-133v18c10 0 18 5 18 15zM421 502h-110v110
h110v-110zM246 502h-110v110h110v-110z" />
    <glyph glyph-name="zcaron" unicode="&#x17e;" horiz-adv-x="556" 
d="M57 0v18l272 348h-229c-17 0 -25 -10 -25 -20h-18v117h18c0 -15 8 -23 25 -23h398v-18l-279 -348h239c17 0 23 8 23 21h18v-108h-18c0 8 -6 13 -23 13h-401zM349 634h93l-108 -144h-111l-108 144h93l70 -90z" />
  </font>
</defs>
</svg>
