<?xml version="1.0" standalone="no"?>
<!DOCTYPE svg PUBLIC "-//W3C//DTD SVG 1.1//EN" "http://www.w3.org/Graphics/SVG/1.1/DTD/svg11.dtd" >
<svg xmlns="http://www.w3.org/2000/svg" width="100%" height="100%">
<metadata>
Created by FontXChange 20110222 at Mon Feb 25 15:57:22 2019
 By Suzi Rubino
 The digitally encoded machine readable software for producing the Typefaces licensed to you is copyrighted (c) 1989 Adobe Systems. All rights reserved. This software is the property of Adobe Systems Incorporated and its licensors, and may not be reproduced, used, displayed, modified, disclosed, or transferred  without the express written approval of Adobe. The digitally encoded machine readable outline data for producing the Typefaces licensed to you is copyrighted (c) 1981 Linotype AG and/or its subsidiaries. All Rights Reserved. This data is the property of Linotype AG and/or its subsidiaries and may not be reproduced, used, displayed, modified, disclosed or transferred without the express written approval of Linotype AG and/or its subsidiaries. 
</metadata>
<defs>
<font id="Copperplate-TwentyNineBC" horiz-adv-x="500" >
  <font-face 
    font-family="Copperplate"
    font-weight="500"
    font-stretch="normal"
    units-per-em="1000"
    panose-1="2 0 6 3 0 0 0 0 0 0"
    ascent="800"
    descent="-200"
    x-height="440"
    cap-height="526"
    bbox="-167 -208 1000 745"
    underline-thickness="50"
    underline-position="-100"
    unicode-range="U+0020-FB02"
  />
    <missing-glyph />
    <glyph glyph-name="space" unicode=" " horiz-adv-x="250" 
 />
    <glyph glyph-name="exclam" unicode="!" horiz-adv-x="278" 
d="M164 148h-56v12c11 3 13 12 13 23c0 7 -1 21 -2 34l-21 240c-3 35 -6 52 -19 57v12h110v-12c-15 -6 -17 -22 -19 -57l-17 -240c-1 -13 -2 -27 -2 -34c0 -11 2 -20 13 -23v-12zM140 92c28 0 49 -22 49 -49s-21 -49 -49 -49s-49 22 -49 49s21 49 49 49z" />
    <glyph glyph-name="quotedbl" unicode="&#x22;" horiz-adv-x="333" 
d="M272 451l-17 -204c-1 -8 -1 -31 -17 -31c-15 0 -15 23 -16 31l-17 204c-2 25 -6 81 33 81c40 0 36 -56 34 -81zM128 451l-17 -204c-1 -8 -1 -31 -16 -31c-16 0 -16 23 -17 31l-17 204c-2 25 -6 81 34 81c39 0 35 -56 33 -81z" />
    <glyph glyph-name="numbersign" unicode="#" 
d="M413 209v-48h-75l-22 -161h-54l22 161h-88l-23 -161h-54l23 161h-76v48h83l14 104h-73v48h80l22 161h54l-22 -161h89l21 161h55l-23 -161h68v-48h-74l-15 -104h68zM306 313h-89l-15 -104h89z" />
    <glyph glyph-name="dollar" unicode="$" 
d="M225 608h42v-81c84 -9 119 -46 137 -46c8 0 13 2 15 3l8 -3l-51 -87l-10 6c0 43 -64 63 -99 64v-162c74 -19 168 -53 168 -151c0 -93 -72 -153 -168 -157v-104h-42v104c-73 0 -124 43 -146 43c-7 0 -18 -3 -22 -10l-10 5l44 106l10 -3c6 -56 75 -79 124 -79v186
c-77 27 -161 60 -161 155c0 82 86 129 161 129v82zM225 315v149c-46 -1 -91 -20 -91 -64c0 -52 47 -68 91 -85zM267 231v-174c48 5 98 30 98 85s-56 72 -98 89z" />
    <glyph glyph-name="percent" unicode="%" horiz-adv-x="889" 
d="M618 583h48l-397 -649h-48zM642 286c101 0 177 -81 177 -176s-76 -176 -177 -176s-177 81 -177 176s76 176 177 176zM642 230c-67 0 -121 -56 -121 -120s54 -120 121 -120s121 56 121 120s-54 120 -121 120zM247 586c101 0 177 -81 177 -176s-76 -176 -177 -176
s-177 81 -177 176s76 176 177 176zM247 530c-67 0 -121 -56 -121 -120s54 -120 121 -120s121 56 121 120s-54 120 -121 120z" />
    <glyph glyph-name="ampersand" unicode="&#x26;" horiz-adv-x="556" 
d="M481 88v-94c-55 4 -96 38 -117 81c-27 -45 -68 -81 -136 -81c-77 0 -153 63 -153 155c0 77 34 129 115 155c-48 20 -79 55 -79 107c0 75 63 121 135 121c86 0 137 -51 137 -122c0 -47 -28 -94 -80 -106v-2c33 -14 58 -42 72 -75c13 37 45 86 80 108c8 5 12 12 16 22h10
v-124h-7c-4 5 -7 10 -13 10c-19 0 -56 -65 -56 -92c0 -39 37 -81 56 -81c6 0 7 11 8 18h12zM331 160c0 60 -37 104 -91 104s-91 -44 -91 -104s37 -104 91 -104s91 44 91 104zM321 406c0 33 -29 64 -75 64c-36 0 -73 -23 -73 -64c0 -44 37 -70 73 -70c46 0 75 34 75 70z" />
    <glyph glyph-name="quoteright" unicode="&#x2019;" horiz-adv-x="278" 
d="M77 310v28c71 27 76 77 76 103c-5 -2 -10 -3 -15 -3c-26 0 -54 11 -54 41c0 28 19 53 48 53c43 0 69 -26 69 -70c0 -69 -54 -142 -124 -152z" />
    <glyph glyph-name="parenleft" unicode="(" horiz-adv-x="389" 
d="M310 532v-12c-119 -81 -146 -165 -146 -299s27 -218 146 -299v-12c-131 58 -216 170 -216 311s85 253 216 311z" />
    <glyph glyph-name="parenright" unicode=")" horiz-adv-x="389" 
d="M79 520v12c131 -58 216 -170 216 -311s-85 -253 -216 -311v12c119 81 146 165 146 299s-27 218 -146 299z" />
    <glyph glyph-name="asterisk" unicode="*" 
d="M262 383l4 -2l128 70l23 -77l-144 -14l-2 -6l103 -98l-63 -44l-59 130h-5l-62 -130l-63 47l104 95l-1 5l-142 17l22 79l129 -75l3 3l-26 143h78z" />
    <glyph glyph-name="plus" unicode="+" horiz-adv-x="600" 
d="M269 251v189h62v-189h189v-62h-189v-189h-62v189h-189v62h189z" />
    <glyph glyph-name="comma" unicode="," horiz-adv-x="250" 
d="M63 -130v28c71 27 76 77 76 103c-5 -2 -10 -3 -15 -3c-26 0 -54 11 -54 41c0 28 19 53 48 53c43 0 69 -26 69 -70c0 -69 -54 -142 -124 -152z" />
    <glyph glyph-name="hyphen" unicode="-" horiz-adv-x="333" 
d="M283 250v-30v-30h-234v60h234z" />
    <glyph glyph-name="period" unicode="." horiz-adv-x="250" 
d="M125 92c28 0 49 -22 49 -49s-21 -49 -49 -49s-49 22 -49 49s21 49 49 49z" />
    <glyph glyph-name="slash" unicode="/" horiz-adv-x="278" 
d="M-24 -6l261 538h65l-261 -538h-65z" />
    <glyph glyph-name="zero" unicode="0" 
d="M463 263c0 -155 -79 -269 -213 -269s-213 114 -213 269s79 269 213 269s213 -114 213 -269zM111 263c0 -129 53 -207 139 -207s139 78 139 207s-53 207 -139 207s-139 -78 -139 -207z" />
    <glyph glyph-name="one" unicode="1" 
d="M209 526h113v-12c-14 -2 -21 -7 -21 -36v-430c0 -29 7 -34 21 -36v-12h-115v12c13 2 20 7 20 36v356c-19 -12 -54 -11 -59 -38h-12v96h11c2 -10 14 -13 23 -13c14 0 41 14 41 40c0 19 -7 21 -22 25v12z" />
    <glyph glyph-name="two" unicode="2" 
d="M132 349l-83 82l8 7c4 0 8 -2 12 -2c10 0 18 10 34 30c30 37 78 66 142 66c90 0 159 -54 159 -143c0 -144 -224 -198 -267 -327h247c15 0 26 3 31 29h12v-107h-12c-4 14 -16 16 -31 16h-283c-15 0 -26 0 -31 -16h-12v24c0 190 276 270 276 380c0 50 -41 82 -90 82
c-63 0 -108 -46 -108 -92c0 -8 1 -17 3 -25z" />
    <glyph glyph-name="three" unicode="3" 
d="M123 372l-73 71l5 7c3 -2 5 -2 8 -2c4 0 9 1 11 3c54 47 88 81 164 81c87 0 172 -49 172 -142c0 -46 -33 -87 -75 -110c56 -19 90 -64 90 -125c0 -92 -76 -161 -196 -161c-102 0 -142 64 -162 64c-8 0 -15 -4 -20 -11l-10 6l50 102l11 -4c0 -5 1 -10 1 -14
c0 -31 65 -81 132 -81c79 0 124 44 124 95c0 66 -52 99 -111 99c-34 0 -59 0 -65 -18h-12v97h12c7 -16 34 -17 55 -17c49 0 106 20 106 78c0 40 -35 80 -103 80c-60 0 -111 -36 -111 -74c0 -3 2 -14 3 -19l1 -1z" />
    <glyph glyph-name="four" unicode="4" 
d="M241 526h141v-12c-7 -2 -14 -7 -14 -36v-312h25c22 0 35 2 35 23h12v-108h-12c-2 21 -10 23 -35 23h-25v-56c0 -29 7 -34 21 -36v-12h-112v12c10 2 17 7 17 36v56h-210c-18 0 -29 -4 -31 -23h-12v78l190 304c10 16 23 33 23 40s-6 10 -13 11v12zM292 452l-176 -286h178
v286h-2z" />
    <glyph glyph-name="five" unicode="5" 
d="M170 219l-121 84l5 8c4 -1 7 -2 11 -2c8 0 10 4 10 23v146c0 29 -7 34 -22 36v12h307c19 0 37 2 42 16h12v-106h-12c-5 24 -23 28 -51 28h-206v-165h2c26 34 72 53 117 53c110 0 178 -74 178 -178s-75 -180 -178 -180c-58 0 -89 7 -122 28c-30 18 -46 34 -57 34
c-7 0 -12 -5 -17 -7l-9 7l58 97l15 -7c-1 -4 -3 -6 -3 -11c0 -35 60 -79 132 -79c71 0 111 56 111 120c0 69 -50 114 -116 114c-51 0 -81 -26 -81 -50c0 -4 1 -9 1 -14z" />
    <glyph glyph-name="six" unicode="6" 
d="M433 484l-65 -91l-14 7c2 5 2 10 2 15c0 30 -35 57 -87 57c-103 0 -138 -118 -138 -203c45 46 75 65 139 65c97 0 165 -65 165 -164c0 -105 -72 -176 -180 -176c-116 0 -194 80 -194 252c0 179 97 286 207 286c43 0 75 -11 98 -23s38 -23 45 -23c4 0 7 2 12 5zM143 166
c0 -66 45 -112 111 -112s111 46 111 112c0 68 -45 114 -111 114s-111 -48 -111 -114z" />
    <glyph glyph-name="seven" unicode="7" 
d="M430 542v-76l-184 -404c-8 -17 -13 -27 -13 -33c0 -9 3 -14 12 -17v-12h-112v12c25 3 37 38 46 59l176 393h-260c-12 0 -19 -8 -20 -25h-12v103h12c1 -10 8 -16 20 -16h299c10 0 19 2 24 16h12z" />
    <glyph glyph-name="eight" unicode="8" 
d="M50 149c0 69 40 109 100 135c-41 16 -80 59 -80 105c0 95 72 143 180 143s180 -48 180 -143c0 -46 -39 -89 -80 -105c60 -26 100 -66 100 -135c0 -111 -101 -155 -200 -155s-200 44 -200 155zM250 56c75 0 130 32 130 98s-55 98 -130 98s-130 -32 -130 -98
s55 -98 130 -98zM250 314c59 0 110 24 110 78s-51 78 -110 78s-110 -24 -110 -78s51 -78 110 -78z" />
    <glyph glyph-name="nine" unicode="9" 
d="M75 39l63 89l14 -5c-2 -5 -2 -10 -2 -15c0 -30 33 -57 85 -57c103 0 138 118 138 203c-45 -46 -75 -63 -139 -63c-97 0 -167 63 -167 162c0 105 72 176 182 176c116 0 194 -80 194 -252c0 -179 -97 -286 -207 -286c-43 0 -75 11 -98 23s-38 23 -45 23c-4 0 -7 -2 -12 -5z
M362 357c0 66 -45 112 -111 112s-114 -46 -114 -112s48 -112 114 -112s111 46 111 112z" />
    <glyph glyph-name="colon" unicode=":" horiz-adv-x="250" 
d="M125 92c28 0 49 -22 49 -49s-21 -49 -49 -49s-49 22 -49 49s21 49 49 49zM125 344c28 0 49 -22 49 -49s-21 -49 -49 -49s-49 22 -49 49s21 49 49 49z" />
    <glyph glyph-name="semicolon" unicode=";" horiz-adv-x="250" 
d="M63 -130v28c71 27 76 77 76 103c-5 -2 -10 -3 -15 -3c-26 0 -54 11 -54 41c0 28 19 53 48 53c43 0 69 -26 69 -70c0 -69 -54 -142 -124 -152zM125 344c28 0 49 -22 49 -49s-21 -49 -49 -49s-49 22 -49 49s21 49 49 49z" />
    <glyph glyph-name="less" unicode="&#x3c;" horiz-adv-x="600" 
d="M521 66v-74l-442 199v58l442 199v-74l-355 -154z" />
    <glyph glyph-name="equal" unicode="=" horiz-adv-x="600" 
d="M520 336v-62h-440v62h440zM520 166v-62h-440v62h440z" />
    <glyph glyph-name="greater" unicode="&#x3e;" horiz-adv-x="600" 
d="M79 -8v74l355 154l-355 154v74l442 -199v-58z" />
    <glyph glyph-name="question" unicode="?" horiz-adv-x="444" 
d="M127 406l-69 69l7 7c3 -1 5 -2 8 -2c23 0 62 52 142 52c68 0 132 -48 132 -120c0 -107 -103 -143 -103 -216c0 -16 4 -28 20 -30v-10h-95v12c16 2 19 14 19 48c0 67 89 116 89 185c0 48 -27 69 -74 69c-34 0 -71 -13 -71 -44c0 -5 0 -11 2 -17zM216 92
c28 0 49 -22 49 -49s-21 -49 -49 -49s-49 22 -49 49s21 49 49 49z" />
    <glyph glyph-name="at" unicode="@" horiz-adv-x="600" 
d="M380 311c0 33 -7 51 -30 51c-36 0 -93 -57 -93 -138c0 -42 16 -65 37 -65c35 0 76 48 86 152zM397 366l7 26h57l-46 -190c-2 -5 -3 -13 -3 -21c0 -16 8 -32 26 -32c45 0 82 87 82 153c0 87 -76 184 -206 184c-96 0 -202 -70 -202 -243c0 -111 97 -203 210 -203
c69 0 110 16 154 38l8 -37c-48 -25 -101 -47 -162 -47c-203 0 -292 152 -292 257c0 168 130 281 284 281c144 0 256 -98 256 -230c0 -79 -51 -185 -144 -185c-52 0 -72 44 -71 55h-1h-2c-4 -12 -42 -52 -88 -55c-26 0 -75 17 -75 96c0 63 49 191 154 191c37 0 43 -21 54 -38
z" />
    <glyph glyph-name="A" unicode="A" 
d="M123 0h-96v8c5 4 10 8 12 14l139 431c5 15 11 30 11 42c0 11 -5 18 -15 19v12h139v-12c-9 -2 -12 -10 -12 -19c0 -12 6 -27 11 -42l143 -417c5 -14 9 -21 18 -24v-12h-105v12c8 3 14 8 14 17c0 16 -35 102 -40 124h-197c-9 -32 -37 -107 -37 -118s4 -23 15 -26v-9z
M239 459l-74 -246h155l-79 246h-2z" />
    <glyph glyph-name="B" unicode="B" horiz-adv-x="556" 
d="M98 48v430c0 29 -7 34 -21 36v12h182c152 0 199 -60 199 -139c0 -60 -31 -96 -86 -119v-2c59 -16 97 -60 97 -118c0 -100 -76 -148 -190 -148h-200v12c12 2 19 7 19 36zM172 238v-176h87c104 0 136 30 136 96c0 56 -56 80 -140 80h-83zM172 464v-164h91
c78 0 121 22 121 85c0 53 -37 79 -103 79h-109z" />
    <glyph glyph-name="C" unicode="C" 
d="M455 469l-61 -87l-10 5c1 6 2 11 2 16c0 24 -50 67 -121 67c-95 0 -153 -82 -153 -207s58 -207 159 -207c64 0 123 49 123 72c0 8 -2 17 -7 25l15 6l68 -94l-11 -7c-5 5 -10 8 -18 8c-10 0 -69 -72 -168 -72c-152 0 -235 117 -235 269s85 269 227 269
c102 0 163 -63 171 -63c5 0 8 2 11 4z" />
    <glyph glyph-name="D" unicode="D" horiz-adv-x="556" 
d="M163 464v-402h61c126 0 201 38 201 203c0 163 -64 199 -186 199h-76zM89 48v430c0 29 -7 34 -19 36v12h180c167 -1 249 -95 249 -257c0 -201 -96 -269 -288 -269h-141v12c12 2 19 7 19 36z" />
    <glyph glyph-name="E" unicode="E" 
d="M85 48v430c0 29 -7 34 -21 36v12h335c16 0 26 5 28 18h12v-105h-12c-2 20 -16 25 -36 25h-232v-162h167c20 0 34 5 36 23h12v-111h-12c-2 21 -16 26 -36 26h-167v-178h239c20 0 34 5 36 23h12v-103h-12c-2 13 -16 18 -36 18h-334v12c14 2 21 7 21 36z" />
    <glyph glyph-name="F" unicode="F" horiz-adv-x="444" 
d="M85 48v430c0 29 -7 34 -21 36v12h314c16 0 26 5 28 18h12v-105h-12c-2 20 -16 25 -36 25h-211v-170h137c20 0 34 5 36 23h12v-111h-12c-2 21 -16 26 -36 26h-137v-184c0 -29 7 -34 21 -36v-12h-116v12c14 2 21 7 21 36z" />
    <glyph glyph-name="G" unicode="G" horiz-adv-x="556" 
d="M398 94v102h-100c-14 0 -19 -5 -21 -21h-12v99h12c2 -17 9 -22 21 -22h196v-12c-13 -3 -22 -11 -22 -34v-80c0 -16 0 -32 9 -37v-7c-29 -34 -79 -88 -196 -88c-146 0 -235 117 -235 269s89 269 235 269c95 0 145 -56 163 -56c6 0 10 2 14 5l8 -4l-58 -95l-10 6
c3 4 6 11 6 19c0 16 -50 63 -127 63c-99 0 -157 -88 -157 -207c0 -125 58 -207 163 -207c50 0 87 13 111 38z" />
    <glyph glyph-name="H" unicode="H" horiz-adv-x="556" 
d="M393 233h-230v-185c0 -29 7 -34 23 -36v-12h-116v12c12 2 19 7 19 36v430c0 29 -7 34 -19 36v12h116v-12c-16 -2 -23 -7 -23 -36v-183h230v183c0 29 -7 34 -23 36v12h116v-12c-12 -2 -19 -7 -19 -36v-430c0 -29 7 -34 19 -36v-12h-116v12c16 2 23 7 23 36v185z" />
    <glyph glyph-name="I" unicode="I" horiz-adv-x="278" 
d="M207 0h-136v12c24 2 31 7 31 36v430c0 29 -7 34 -31 36v12h136v-12c-24 -2 -31 -7 -31 -36v-430c0 -29 7 -34 31 -36v-12z" />
    <glyph glyph-name="J" unicode="J" horiz-adv-x="389" 
d="M206 526h102v-12c-9 -1 -11 -7 -11 -21v-358c0 -89 -53 -141 -140 -141c-44 0 -74 10 -94 20s-31 20 -39 20c-4 0 -7 -2 -10 -4l-9 2l38 97l8 -4c5 -42 59 -69 97 -69c45 0 75 23 75 71v351c0 29 -7 34 -17 36v12z" />
    <glyph glyph-name="K" unicode="K" 
d="M70 526h107v-12c-10 -3 -14 -7 -14 -36v-193l179 198c7 8 11 13 11 19c0 7 -7 11 -14 12v12h125v-12c-11 -4 -15 -8 -26 -20l-159 -175l183 -290c7 -12 17 -16 32 -17v-12h-129v9c12 3 15 8 15 17c0 8 -9 22 -20 39l-129 204l-68 -74v-147c0 -29 7 -34 20 -36v-12h-113
v12c12 2 19 7 19 36v430c0 29 -7 34 -19 36v12z" />
    <glyph glyph-name="L" unicode="L" horiz-adv-x="444" 
d="M85 48v430c0 29 -7 34 -21 36v12h116v-12c-14 -2 -21 -7 -21 -36v-416h223c20 0 34 5 36 21h12v-101h-12c-2 13 -16 18 -36 18h-318v12c14 2 21 7 21 36z" />
    <glyph glyph-name="M" unicode="M" horiz-adv-x="667" 
d="M430 526h153v-12c-16 -2 -21 -7 -21 -36v-430c0 -29 6 -33 25 -36v-12h-118v12c20 3 23 7 23 36v362h-2l-149 -405h-13l-155 405h-2v-362c0 -29 7 -34 23 -36v-12h-111v12c11 2 18 7 18 36v430c0 29 -7 34 -21 36v12h147v-12c-10 -2 -21 -9 -21 -19s5 -22 13 -42
l114 -287h2l105 297c6 17 11 28 11 35c0 9 -11 14 -21 16v12z" />
    <glyph glyph-name="N" unicode="N" horiz-adv-x="556" 
d="M177 0h-107v12c11 2 18 7 18 36v430c0 29 -7 34 -20 36v12h152v-12c-8 0 -21 -4 -21 -13c0 -12 15 -31 29 -55l170 -292h4v324c0 29 -7 34 -24 36v12h113v-12c-19 0 -23 -3 -23 -19v-447c0 -29 7 -34 28 -36v-12h-128v12c15 3 26 6 26 13c0 11 -18 34 -30 54l-208 357h-2
v-388c0 -29 7 -34 23 -36v-12z" />
    <glyph glyph-name="O" unicode="O" horiz-adv-x="556" 
d="M278 470c-101 0 -159 -82 -159 -207s58 -207 159 -207s159 82 159 207s-58 207 -159 207zM511 263c0 -152 -89 -269 -233 -269s-233 117 -233 269s89 269 233 269s233 -117 233 -269z" />
    <glyph glyph-name="P" unicode="P" 
d="M159 464v-177h107c74 0 109 33 109 89c0 58 -37 88 -97 88h-119zM85 48v430c0 29 -7 34 -21 36v12h216c122 0 169 -72 169 -140c0 -116 -65 -161 -201 -161h-89v-177c0 -29 7 -34 23 -36v-12h-116v12c12 2 19 7 19 36z" />
    <glyph glyph-name="Q" unicode="Q" horiz-adv-x="556" 
d="M312 60l-28 37c-16 21 -41 28 -41 41c0 8 12 9 17 9c28 0 70 -32 108 -61c44 32 69 96 69 177c0 125 -58 207 -159 207s-159 -82 -159 -207s58 -207 159 -207c12 0 23 1 34 4zM463 -2l-60 -64l-7 8c3 4 4 7 4 10c0 5 -15 18 -47 54c-23 -8 -48 -12 -75 -12
c-144 0 -233 117 -233 269s89 269 233 269s233 -117 233 -269c0 -98 -37 -181 -101 -227c23 -29 29 -36 38 -36c4 0 7 1 10 3z" />
    <glyph glyph-name="R" unicode="R" horiz-adv-x="556" 
d="M98 48v430c0 29 -7 34 -31 36v12h220c124 0 188 -65 188 -158c0 -70 -46 -128 -112 -135l95 -174c12 -21 19 -42 40 -47v-12h-118v12c11 2 17 7 17 12c0 7 -8 20 -17 35l-90 167h-118v-178c0 -29 7 -34 27 -36v-12h-130v12c22 2 29 7 29 36zM172 464v-182h127
c68 0 102 34 102 91s-36 91 -112 91h-117z" />
    <glyph glyph-name="S" unicode="S" 
d="M52 32l63 113l10 -4c0 -67 70 -85 128 -85c56 0 124 26 124 90c0 131 -311 60 -311 238c0 98 81 148 183 148c52 0 88 -10 113 -20s40 -18 49 -18c6 0 9 3 12 5l9 -6l-51 -94l-10 5c0 42 -52 66 -119 66c-56 0 -120 -23 -120 -85c0 -105 311 -41 311 -234
c0 -99 -76 -157 -196 -157c-43 0 -82 11 -111 22c-28 11 -47 22 -51 22c-12 0 -18 -6 -21 -10z" />
    <glyph glyph-name="T" unicode="T" horiz-adv-x="444" 
d="M73 526h298c28 0 34 5 36 18h12v-99h-12c-2 14 -12 19 -36 19h-112v-416c0 -29 7 -34 31 -36v-12h-136v12c24 2 31 7 31 36v416h-112c-23 0 -34 -5 -36 -19h-12v99h12c2 -13 8 -18 36 -18z" />
    <glyph glyph-name="U" unicode="U" horiz-adv-x="556" 
d="M372 526h114v-12c-14 -2 -21 -7 -21 -36v-338c0 -82 -69 -146 -187 -146s-187 64 -187 146v338c0 29 -7 34 -21 36v12h114v-12c-14 -2 -19 -7 -19 -36v-295c0 -82 23 -127 113 -127s113 45 113 127v295c0 29 -5 34 -19 36v12z" />
    <glyph glyph-name="V" unicode="V" horiz-adv-x="444" 
d="M11 526h112v-12c-10 -3 -15 -8 -15 -20c0 -6 4 -19 9 -37l110 -365h2l114 386c2 8 3 14 3 20c0 8 -5 15 -26 16v12h112v-10c-10 -2 -16 -7 -23 -29l-121 -406c-7 -25 -11 -39 -11 -47c0 -12 2 -19 10 -22v-12h-124v12c8 3 12 7 12 13c0 8 -15 53 -22 75l-120 386
c-8 24 -12 28 -22 28v12z" />
    <glyph glyph-name="W" unicode="W" horiz-adv-x="667" 
d="M30 526h111v-12c-10 -7 -18 -10 -18 -22c0 -11 3 -21 7 -36l80 -322h2l93 330c3 11 6 20 6 30c0 8 -11 14 -22 20v12h121v-12c-10 -4 -20 -10 -20 -16c0 -8 3 -16 6 -29l89 -335h2l77 314c4 18 11 42 11 48s-6 14 -15 18v12h94v-15c-11 -4 -16 -14 -22 -38l-97 -383
c-8 -31 -13 -47 -13 -57c0 -9 6 -15 15 -21v-12h-111v12c12 4 16 11 16 18c0 8 -3 22 -9 44l-86 322h-2l-87 -315c-5 -17 -11 -38 -11 -48c0 -9 9 -17 22 -21v-12h-123v12c9 7 16 12 16 20c0 9 -4 29 -9 49l-100 400c-4 18 -6 25 -23 30v15z" />
    <glyph glyph-name="X" unicode="X" 
d="M317 526h127v-12c-18 0 -27 -10 -41 -34l-118 -205l147 -240c8 -14 13 -21 26 -23v-12h-125v9c8 3 15 9 15 17c0 7 -1 17 -10 31l-94 148l-86 -146c-6 -11 -11 -19 -11 -27c0 -10 7 -18 14 -20v-12h-120v12c21 0 30 11 45 38l123 215l-134 223c-8 13 -16 23 -34 26v12
h137v-12c-13 -4 -20 -10 -20 -17s3 -14 6 -20l85 -143l84 145c3 6 6 11 6 17c0 12 -12 18 -22 18v12z" />
    <glyph glyph-name="Y" unicode="Y" horiz-adv-x="444" 
d="M256 244v-196c0 -29 7 -34 31 -36v-12h-136v12c24 2 31 7 31 36v189l-121 212c-14 24 -27 54 -54 65v12h123v-10c-10 -2 -16 -6 -16 -14c0 -9 5 -16 9 -24l100 -177l102 183c4 7 5 12 5 15c0 10 -10 15 -19 15v12h115v-12c-13 -3 -19 -11 -26 -22z" />
    <glyph glyph-name="Z" unicode="Z" horiz-adv-x="444" 
d="M399 501l-252 -439h199c20 0 34 5 36 23h12v-103h-12c-2 13 -12 18 -36 18h-303v17l257 447h-212c-20 0 -34 -5 -36 -23h-12v103h12c2 -13 12 -18 36 -18h311v-25z" />
    <glyph glyph-name="bracketleft" unicode="[" horiz-adv-x="389" 
d="M94 526h224v-38h-154v-540h156v-38h-226v616z" />
    <glyph glyph-name="backslash" unicode="\" horiz-adv-x="278" 
d="M-66 532h70l340 -538h-70z" />
    <glyph glyph-name="bracketright" unicode="]" horiz-adv-x="389" 
d="M71 526h224v-616h-226v38h156v540h-154v38z" />
    <glyph glyph-name="asciicircum" unicode="^" horiz-adv-x="600" 
d="M165 161h-74l183 365h52l183 -365h-74l-135 271z" />
    <glyph glyph-name="underscore" unicode="_" 
d="M500 -125h-500v50h500v-50z" />
    <glyph glyph-name="quoteleft" unicode="&#x2018;" horiz-adv-x="278" 
d="M201 532v-28c-71 -27 -76 -77 -76 -103c5 2 10 3 15 3c26 0 54 -11 54 -41c0 -28 -19 -53 -48 -53c-43 0 -69 26 -69 70c0 69 54 142 124 152z" />
    <glyph glyph-name="a" unicode="a" horiz-adv-x="444" 
d="M121 0h-93v12c18 4 23 16 28 33l106 327c4 15 11 32 11 39c0 9 -6 14 -12 17v12h126v-12c-5 -2 -8 -8 -8 -18c0 -7 4 -17 10 -37l105 -334c3 -12 8 -23 22 -27v-12h-92v12c6 1 11 9 11 15c0 4 -3 13 -6 24l-22 69h-172l-21 -69c-3 -11 -6 -20 -6 -27c0 -5 6 -11 13 -12
v-12zM222 396l-70 -228h139l-67 228h-2z" />
    <glyph glyph-name="b" unicode="b" 
d="M94 48v344c0 29 -7 34 -22 36v12h180c112 0 164 -46 164 -115c0 -45 -32 -89 -77 -97v-2c48 -14 85 -48 85 -101c0 -88 -70 -125 -158 -125h-192v12c13 2 20 7 20 36zM156 202v-154h102c74 0 102 33 102 76c0 52 -28 78 -102 78h-102zM156 392v-146h98
c74 0 104 30 104 78c0 46 -38 68 -104 68h-98z" />
    <glyph glyph-name="c" unicode="c" horiz-adv-x="444" 
d="M395 396l7 -5l-49 -76l-9 3c4 46 -46 80 -94 80c-78 0 -136 -64 -136 -178c0 -118 50 -178 132 -178c55 0 97 46 97 71c0 2 0 6 -1 10l9 3l58 -74l-7 -5c-4 3 -8 4 -13 4c-26 0 -58 -57 -143 -57c-112 0 -194 68 -194 226c0 122 69 226 194 226c82 0 116 -57 135 -57
c5 0 9 4 14 7z" />
    <glyph glyph-name="d" unicode="d" 
d="M153 392v-344h71c102 3 156 32 156 173c0 119 -40 171 -147 171h-80zM91 48v344c0 29 -7 34 -24 36v12h187c127 0 188 -88 188 -218c0 -178 -91 -222 -218 -222h-155v12c15 2 22 7 22 36z" />
    <glyph glyph-name="e" unicode="e" horiz-adv-x="444" 
d="M98 48v344c0 29 -7 34 -18 36v12h259c21 0 29 6 32 18h12v-90h-12c-3 18 -11 24 -28 24h-183v-144h118c17 0 25 6 28 26h12v-98h-12c-3 18 -11 24 -28 24h-118v-152h192c17 0 25 6 28 26h12v-92h-12c-2 13 -9 18 -38 18h-262v12c11 2 18 7 18 36z" />
    <glyph glyph-name="f" unicode="f" horiz-adv-x="389" 
d="M86 48v344c0 29 -7 34 -18 36v12h267c22 0 25 6 28 18h12v-90h-12c-3 18 -11 24 -28 24h-187v-144h116c17 0 25 6 28 26h12v-98h-12c-3 18 -11 24 -28 24h-116v-152c0 -29 7 -34 22 -36v-12h-102v12c11 2 18 7 18 36z" />
    <glyph glyph-name="g" unicode="g" 
d="M352 78v90h-83c-16 0 -25 -13 -27 -25l-2 -1h-10v101h12c3 -15 10 -23 27 -23h153l2 -2v-11c-12 -2 -14 -5 -14 -23v-79c0 -16 8 -17 8 -25c0 -14 -58 -86 -168 -86c-125 0 -194 104 -194 226s69 226 194 226c31 0 55 -6 82 -18c25 -10 35 -22 51 -22c7 0 13 2 19 5l8 -5
l-51 -83l-9 5c2 7 3 11 3 22c0 23 -54 48 -99 48c-85 0 -140 -78 -140 -184c0 -100 71 -172 139 -172c46 0 76 13 99 36z" />
    <glyph glyph-name="h" unicode="h" 
d="M147 248h206v144c0 29 -7 34 -18 36v12h98v-12c-11 -2 -18 -7 -18 -36v-344c0 -29 7 -34 18 -36v-12h-98v12c11 2 18 7 18 36v152h-206v-152c0 -29 7 -34 18 -36v-12h-98v12c11 2 18 7 18 36v344c0 29 -7 34 -18 36v12h98v-12c-11 -2 -18 -7 -18 -36v-144z" />
    <glyph glyph-name="i" unicode="i" horiz-adv-x="278" 
d="M188 0h-98v12c11 2 18 7 18 36v344c0 29 -7 34 -18 36v12h98v-12c-11 -2 -18 -7 -18 -36v-344c0 -29 7 -34 18 -36v-12z" />
    <glyph glyph-name="j" unicode="j" horiz-adv-x="333" 
d="M182 114v278c0 29 -7 34 -22 36v12h102v-12c-11 -2 -18 -7 -18 -36v-268c0 -77 -29 -130 -119 -130c-24 0 -47 5 -60 12c-16 8 -35 16 -41 16c-8 0 -12 -1 -16 -4l-8 3v2l36 84h2l8 -5v-8c0 -19 33 -52 74 -52c44 0 62 22 62 72z" />
    <glyph glyph-name="k" unicode="k" horiz-adv-x="444" 
d="M85 48v344c0 29 -7 34 -19 36v12h102v-12c-14 -2 -21 -7 -21 -36v-158l136 152c13 15 23 24 23 31s-5 10 -14 11v12h120v-14c-12 1 -24 -5 -32 -14l-134 -150l138 -219c11 -17 16 -28 41 -31v-12h-112v12c7 1 13 5 13 12c0 6 -7 18 -19 35l-104 159l-56 -62v-108
c0 -29 7 -34 20 -36v-12h-101v12c12 2 19 7 19 36z" />
    <glyph glyph-name="l" unicode="l" horiz-adv-x="389" 
d="M85 48v344c0 29 -7 34 -18 36v12h98v-12c-11 -2 -18 -7 -18 -36v-340h192c17 0 25 3 28 16h12v-86h-12c-3 15 -9 18 -28 18h-272v12c11 2 18 7 18 36z" />
    <glyph glyph-name="m" unicode="m" horiz-adv-x="611" 
d="M74 440h137v-12c-8 -3 -15 -4 -15 -16c0 -5 3 -16 9 -31l101 -267h2l98 265c7 19 10 26 10 33c0 8 -3 15 -13 16v12h132v-12c-11 -2 -20 -11 -20 -36v-344c0 -29 7 -34 22 -36v-12h-97v12c16 2 23 7 23 36v340h-2l-145 -388h-21l-146 388h-2v-340c0 -29 7 -34 21 -36v-12
h-92v12c12 2 19 7 19 36v344c0 25 -9 34 -21 36v12z" />
    <glyph glyph-name="n" unicode="n" 
d="M163 0h-99v12c16 2 23 7 23 36v344c0 29 -7 34 -18 36v12h122v-12c-10 -1 -16 -6 -16 -14c0 -7 7 -16 10 -21l169 -275h2v274c0 29 -7 34 -19 36v12h93v-12c-11 -2 -18 -7 -18 -36v-344c0 -29 7 -34 20 -36v-12h-97v12c6 0 14 1 14 8c0 5 -1 10 -15 32l-189 306h-2v-310
c0 -29 7 -34 20 -36v-12z" />
    <glyph glyph-name="o" unicode="o" 
d="M250 -6c-125 0 -194 104 -194 226s69 226 194 226s194 -104 194 -226s-69 -226 -194 -226zM250 42c98 0 136 92 136 178s-38 178 -136 178s-136 -92 -136 -178s38 -178 136 -178z" />
    <glyph glyph-name="p" unicode="p" horiz-adv-x="444" 
d="M96 48v344c0 29 -7 34 -24 36v12h189c94 0 134 -62 134 -126c0 -80 -64 -124 -150 -124h-87v-142c0 -29 7 -34 22 -36v-12h-100v12c9 2 16 7 16 36zM158 392v-154h73c76 0 106 34 106 78c0 48 -30 76 -82 76h-97z" />
    <glyph glyph-name="q" unicode="q" 
d="M419 -26l-69 -57l-7 10c4 7 7 7 7 16s-33 46 -44 60c-16 -6 -35 -9 -56 -9c-125 0 -194 104 -194 226s69 226 194 226s194 -104 194 -226c0 -82 -31 -156 -90 -194c14 -15 28 -48 47 -48c4 0 9 1 14 4zM386 220c0 86 -38 178 -136 178s-136 -92 -136 -178
s38 -178 136 -178c9 0 17 1 25 2c-26 38 -53 50 -53 56c0 3 4 5 11 5c34 0 62 -23 87 -42c47 32 66 96 66 157z" />
    <glyph glyph-name="r" unicode="r" 
d="M157 392v-150h96c66 0 104 26 104 80s-46 70 -104 70h-96zM95 48v344c0 29 -7 34 -18 36v12h186c94 0 152 -49 152 -124c0 -56 -38 -105 -93 -113l87 -164c13 -25 22 -27 34 -27v-12h-112v12c8 1 18 4 18 12c0 6 -3 12 -10 26l-75 140h-107v-142c0 -29 7 -34 22 -36v-12
h-102v12c11 2 18 7 18 36z" />
    <glyph glyph-name="s" unicode="s" horiz-adv-x="444" 
d="M52 28l43 90l11 -5c-1 -4 -3 -9 -3 -12c0 -23 54 -59 114 -59c46 0 105 22 105 90c0 113 -257 32 -257 203c0 65 60 111 154 111c43 0 63 -6 86 -12c16 -5 33 -14 41 -14c7 0 12 4 19 9l8 -5l-43 -88l-9 4c1 2 1 7 1 11c0 31 -73 47 -109 47c-52 0 -90 -30 -90 -64
c0 -112 257 -26 257 -202c0 -91 -78 -138 -162 -138c-40 0 -73 10 -96 20c-24 10 -38 20 -43 20c-6 0 -10 -4 -15 -11z" />
    <glyph glyph-name="t" unicode="t" horiz-adv-x="389" 
d="M225 392v-344c0 -29 7 -34 20 -36v-12h-100v12c11 2 18 7 18 36v344h-94c-17 0 -25 -6 -28 -24h-12v90h12c3 -12 7 -18 28 -18h250c21 0 25 6 28 18h12v-90h-12c-3 18 -11 24 -28 24h-94z" />
    <glyph glyph-name="u" unicode="u" 
d="M63 440h106v-12c-13 -2 -20 -7 -20 -36v-260c0 -46 24 -90 101 -90s101 44 101 90v260c0 29 -7 34 -22 36v12h104v-12c-13 -2 -20 -7 -20 -36v-244c0 -104 -50 -154 -163 -154s-163 50 -163 154v244c0 29 -7 34 -24 36v12z" />
    <glyph glyph-name="v" unicode="v" horiz-adv-x="444" 
d="M301 440h108v-12c-24 0 -29 -11 -35 -32l-99 -341c-3 -10 -7 -20 -7 -28c0 -7 4 -12 11 -15v-12h-112v13c6 2 7 6 7 12c0 4 -6 22 -9 32l-101 321c-9 30 -11 47 -34 50v12h100v-12c-8 -2 -14 -8 -14 -16s6 -22 8 -29l99 -317h2l89 308c5 16 7 24 7 34c0 9 -7 18 -20 20
v12z" />
    <glyph glyph-name="w" unicode="w" horiz-adv-x="611" 
d="M28 440h102v-12c-13 -1 -19 -5 -19 -13s2 -17 5 -27l76 -284h2l62 271c4 16 5 25 5 36s-8 15 -15 17v12h109v-12c-11 -1 -16 -6 -16 -16c0 -6 2 -15 5 -27l72 -281h2l65 277c3 13 5 24 5 34c0 9 -7 13 -18 13v12h100v-12c-18 0 -27 -11 -31 -30l-79 -343
c-3 -13 -5 -20 -5 -25c0 -8 3 -15 11 -18v-12h-98v12c7 0 13 6 13 12c0 8 -3 18 -7 33l-75 289h-2l-65 -293c-2 -8 -5 -20 -5 -27c0 -8 5 -12 13 -14v-12h-98v9c7 2 11 6 11 13c0 9 -5 25 -8 37l-88 335c-7 26 -14 32 -29 34v12z" />
    <glyph glyph-name="x" unicode="x" horiz-adv-x="444" 
d="M146 0h-102v12c22 1 34 30 43 46l99 164l-105 178c-12 20 -19 24 -37 28v12h130v-12c-19 -1 -28 -6 -28 -14s5 -17 12 -30l60 -102l60 95c9 14 16 26 16 34c0 10 -10 15 -23 17v12h125v-12c-16 0 -30 -5 -42 -26l-102 -173l101 -171c12 -19 22 -43 46 -46v-12h-114v12
c9 1 15 4 15 11c0 9 -5 18 -13 32l-69 116l-73 -120c-5 -9 -13 -20 -13 -28c0 -7 7 -9 14 -11v-12z" />
    <glyph glyph-name="y" unicode="y" horiz-adv-x="444" 
d="M189 48v142l-118 205c-9 16 -15 27 -34 33v12h110v-12c-9 -1 -17 -4 -17 -11c0 -9 5 -15 11 -26l81 -142l76 135c6 11 12 19 12 29s-5 14 -17 15v12h104v-12c-18 -6 -20 -9 -30 -26l-116 -211v-143c0 -29 7 -34 18 -36v-12h-98v12c11 2 18 7 18 36z" />
    <glyph glyph-name="z" unicode="z" horiz-adv-x="444" 
d="M65 10l227 382h-184c-17 0 -25 -6 -28 -24h-12v90h12c3 -14 7 -18 28 -18h271v-14l-217 -374h172c17 0 25 6 28 24h12v-94h-12c-3 12 -9 18 -37 18h-260v10z" />
    <glyph glyph-name="braceleft" unicode="{" horiz-adv-x="389" 
d="M149 8v129c0 45 -14 68 -76 81c62 13 76 36 76 81v129c0 69 35 98 138 98v-12c-54 -8 -68 -36 -68 -91v-113c0 -51 -14 -79 -83 -91v-2c69 -12 83 -41 83 -91v-113c0 -55 14 -83 68 -91v-12c-103 0 -138 29 -138 98z" />
    <glyph glyph-name="bar" unicode="|" horiz-adv-x="222" 
d="M80 0v526h62v-526h-62z" />
    <glyph glyph-name="braceright" unicode="}" horiz-adv-x="389" 
d="M240 137v-129c0 -69 -35 -98 -138 -98v12c54 8 68 36 68 91v113c0 50 14 79 83 91v2c-69 12 -83 40 -83 91v113c0 55 -14 83 -68 91v12c103 0 138 -29 138 -98v-129c0 -45 14 -68 76 -81c-62 -13 -76 -36 -76 -81z" />
    <glyph glyph-name="asciitilde" unicode="~" horiz-adv-x="600" 
d="M495 292l36 -54c-30 -42 -63 -86 -125 -86c-40 0 -71 17 -104 34s-67 34 -113 34c-44 0 -68 -37 -84 -72l-36 54c22 42 58 86 125 86c37 0 78 -17 115 -34c38 -17 73 -34 98 -34c40 0 65 37 88 72z" />
    <glyph glyph-name="exclamdown" unicode="&#xa1;" horiz-adv-x="278" 
d="M114 372h56v-12c-11 -3 -13 -12 -13 -23c0 -7 1 -21 2 -34l21 -240c3 -35 6 -52 19 -57v-12h-110v12c15 6 17 22 19 57l17 240c1 13 2 27 2 34c0 11 -2 20 -13 23v12zM138 428c-28 0 -49 22 -49 49s21 49 49 49s49 -22 49 -49s-21 -49 -49 -49z" />
    <glyph glyph-name="cent" unicode="&#xa2;" 
d="M298 432l37 122h37l-38 -131c22 -4 52 -31 63 -31c6 0 11 0 16 4l8 -7l-61 -85l-9 6c2 6 4 10 4 16c0 22 -12 33 -36 42l-88 -301c9 -4 19 -5 36 -5c39 0 94 35 94 58c0 8 -2 15 -5 21l9 6l66 -86l-8 -7c-2 2 -5 4 -10 4c-21 0 -79 -52 -150 -52c-16 0 -33 2 -48 7
l-37 -128h-41l43 140c-65 29 -106 97 -106 184c0 118 63 222 187 225c12 0 24 0 37 -2zM197 82l86 294c-10 2 -19 2 -27 2c-73 0 -118 -69 -118 -157c0 -53 18 -113 59 -139z" />
    <glyph glyph-name="sterling" unicode="&#xa3;" 
d="M51 -6v69c50 28 72 87 72 147c0 15 -1 27 -5 40h-67v42h64c-9 28 -16 59 -16 88c0 98 66 152 156 152c95 0 170 -49 175 -149h-70c-3 57 -39 87 -95 87c-60 0 -92 -35 -92 -94c0 -24 7 -61 14 -84h82v-42h-77c1 -7 1 -13 1 -20c0 -54 -21 -121 -68 -150l2 -2
c19 7 40 13 68 13c24 0 47 -7 69 -14c22 -8 43 -15 60 -15c47 0 63 30 63 79h70v-27c0 -62 -49 -120 -122 -120c-38 0 -68 10 -96 21c-27 10 -52 20 -80 20c-42 0 -69 -35 -108 -41z" />
    <glyph glyph-name="fraction" unicode="&#x2044;" horiz-adv-x="167" 
d="M-98 -6h-69l433 538h68z" />
    <glyph glyph-name="yen" unicode="&#xa5;" 
d="M215 48v138h-144v42h144v10l-24 40h-120v42h96l-73 129c-14 24 -27 54 -53 65v12h122v-10c-10 -4 -16 -6 -16 -19c0 -8 9 -19 18 -35l91 -161l91 162c10 18 16 31 16 36c0 10 -10 15 -19 15v12h115v-12c-13 -3 -19 -11 -26 -22l-99 -172h99v-42h-123l-21 -36v-14h144v-42
h-144v-138c0 -29 7 -34 31 -36v-12h-136v12c24 2 31 7 31 36z" />
    <glyph glyph-name="florin" unicode="&#x192;" 
d="M-1 -165l27 89l12 -3c0 -28 19 -53 57 -53c72 0 90 53 140 396h-102v42h109c17 157 53 226 151 226c24 0 41 -5 54 -9c14 -5 23 -9 28 -9c6 0 10 1 14 6l12 -4l-24 -92h-12c-2 32 -28 52 -61 52c-84 0 -83 -106 -94 -170h102v-42h-110c-49 -343 -73 -452 -205 -452
c-31 0 -70 22 -78 22c-4 0 -6 0 -10 -3z" />
    <glyph glyph-name="section" unicode="&#xa7;" 
d="M401 464l-45 -40c-28 31 -65 56 -108 56c-34 0 -70 -22 -70 -50c0 -105 260 -81 260 -223c0 -66 -47 -97 -107 -96l-2 -2c42 -13 72 -42 72 -89c0 -82 -69 -114 -141 -114c-60 0 -125 30 -169 70l46 47c32 -40 79 -65 131 -65c36 0 67 23 67 61c0 88 -267 73 -267 227
c0 50 51 84 97 84v2c-29 18 -53 49 -53 85c0 69 48 115 140 115c56 0 115 -31 149 -68zM382 197c0 48 -147 105 -198 105c-43 0 -60 -19 -60 -52c0 -61 151 -113 197 -113c38 0 61 20 61 60z" />
    <glyph glyph-name="currency" unicode="&#xa4;" 
d="M434 485l37 -37l-48 -48c32 -37 47 -87 47 -137c0 -49 -15 -99 -47 -136l48 -48l-37 -37l-49 49c-38 -32 -86 -48 -135 -48c-50 0 -98 16 -135 48l-50 -49l-37 37l49 48c-33 37 -47 87 -47 136c0 50 14 100 47 137l-49 48l37 37l50 -50c37 32 85 48 135 48
c49 0 97 -16 135 -48zM250 423c-92 0 -156 -67 -156 -160s64 -160 156 -160c91 0 156 67 156 160s-65 160 -156 160z" />
    <glyph glyph-name="quotesingle" unicode="'" horiz-adv-x="222" 
d="M144 451l-17 -204c-1 -8 -1 -31 -17 -31c-15 0 -15 23 -16 31l-17 204c-2 25 -6 81 33 81c40 0 36 -56 34 -81z" />
    <glyph glyph-name="quotedblleft" unicode="&#x201c;" 
d="M200 532v-28c-71 -27 -76 -77 -76 -103c5 2 10 3 15 3c26 0 54 -11 54 -41c0 -28 -19 -53 -48 -53c-43 0 -69 26 -69 70c0 69 54 142 124 152zM423 532v-28c-71 -27 -76 -77 -76 -103c5 2 10 3 15 3c26 0 54 -11 54 -41c0 -28 -19 -53 -48 -53c-43 0 -69 26 -69 70
c0 69 54 142 124 152z" />
    <glyph glyph-name="guillemotleft" unicode="&#xab;" 
d="M417 367l-122 -147l122 -147h-64l-122 147l122 147h64zM278 367l-122 -147l122 -147h-64l-122 147l122 147h64z" />
    <glyph glyph-name="guilsinglleft" unicode="&#x2039;" horiz-adv-x="333" 
d="M262 367l-122 -147l122 -147h-64l-122 147l122 147h64z" />
    <glyph glyph-name="guilsinglright" unicode="&#x203a;" horiz-adv-x="333" 
d="M193 220l-122 147h64l122 -147l-122 -147h-64z" />
    <glyph glyph-name="fi" unicode="&#xfb01;" horiz-adv-x="667" 
d="M577 0h-98v12c11 2 18 7 18 36v344c0 29 -7 34 -18 36v12h98v-12c-11 -2 -18 -7 -18 -36v-344c0 -29 7 -34 18 -36v-12zM86 48v344c0 29 -7 34 -18 36v12h267c22 0 25 6 28 18h12v-90h-12c-3 18 -11 24 -28 24h-187v-144h116c17 0 25 6 28 26h12v-98h-12
c-3 18 -11 24 -28 24h-116v-152c0 -29 7 -34 22 -36v-12h-102v12c11 2 18 7 18 36z" />
    <glyph glyph-name="fl" unicode="&#xfb02;" horiz-adv-x="778" 
d="M86 48v344c0 29 -7 34 -18 36v12h267c22 0 25 6 28 18h12v-90h-12c-3 18 -11 24 -28 24h-187v-144h116c17 0 25 6 28 26h12v-98h-12c-3 18 -11 24 -28 24h-116v-152c0 -29 7 -34 22 -36v-12h-102v12c11 2 18 7 18 36zM474 48v344c0 29 -7 34 -18 36v12h98v-12
c-11 -2 -18 -7 -18 -36v-340h192c17 0 25 3 28 16h12v-86h-12c-3 15 -9 18 -28 18h-272v12c11 2 18 7 18 36z" />
    <glyph glyph-name="endash" unicode="&#x2013;" 
d="M500 244v-48h-500v48h500z" />
    <glyph glyph-name="dagger" unicode="&#x2020;" 
d="M424 386v-82l-158 26c2 -30 24 -110 24 -134c0 -38 -18 -128 -24 -294h-32c-6 166 -24 256 -24 294c0 24 22 104 24 134l-158 -26v82l158 -26l-26 166h84l-26 -166z" />
    <glyph glyph-name="daggerdbl" unicode="&#x2021;" 
d="M424 386v-82l-158 26l20 -116l-20 -116l158 26v-82l-158 26l26 -166h-84l26 166l-158 -26v82l158 -26l-20 116l20 116l-158 -26v82l158 -26l-26 166h84l-26 -166z" />
    <glyph glyph-name="periodcentered" unicode="&#xb7;" horiz-adv-x="250" 
d="M125 269c28 0 49 -22 49 -49s-21 -49 -49 -49s-49 22 -49 49s21 49 49 49z" />
    <glyph glyph-name="paragraph" unicode="&#xb6;" horiz-adv-x="400" 
d="M181 -115v335c-101 0 -147 65 -147 158c0 104 44 148 156 148h184v-18c-53 -4 -61 -8 -61 -40v-583h-43v614h-45v-614h-44z" />
    <glyph glyph-name="bullet" unicode="&#x2022;" 
d="M118 263c0 73 58 131 132 131s131 -58 131 -131s-57 -132 -131 -132s-132 59 -132 132z" />
    <glyph glyph-name="quotesinglbase" unicode="&#x201a;" horiz-adv-x="278" 
d="M77 -130v28c71 27 76 77 76 103c-5 -2 -10 -3 -15 -3c-26 0 -54 11 -54 41c0 28 19 53 48 53c43 0 69 -26 69 -70c0 -69 -54 -142 -124 -152z" />
    <glyph glyph-name="quotedblbase" unicode="&#x201e;" 
d="M300 -130v28c71 27 76 77 76 103c-5 -2 -10 -3 -15 -3c-26 0 -54 11 -54 41c0 28 19 53 48 53c43 0 69 -26 69 -70c0 -69 -54 -142 -124 -152zM77 -130v28c71 27 76 77 76 103c-5 -2 -10 -3 -15 -3c-26 0 -54 11 -54 41c0 28 19 53 48 53c43 0 69 -26 69 -70
c0 -69 -54 -142 -124 -152z" />
    <glyph glyph-name="quotedblright" unicode="&#x201d;" 
d="M300 310v28c71 27 76 77 76 103c-5 -2 -10 -3 -15 -3c-26 0 -54 11 -54 41c0 28 19 53 48 53c43 0 69 -26 69 -70c0 -69 -54 -142 -124 -152zM77 310v28c71 27 76 77 76 103c-5 -2 -10 -3 -15 -3c-26 0 -54 11 -54 41c0 28 19 53 48 53c43 0 69 -26 69 -70
c0 -69 -54 -142 -124 -152z" />
    <glyph glyph-name="guillemotright" unicode="&#xbb;" 
d="M205 220l-122 147h64l122 -147l-122 -147h-64zM344 220l-122 147h64l122 -147l-122 -147h-64z" />
    <glyph glyph-name="ellipsis" unicode="&#x2026;" horiz-adv-x="1000" 
d="M167 92c28 0 49 -22 49 -49s-21 -49 -49 -49s-49 22 -49 49s21 49 49 49zM500 92c28 0 49 -22 49 -49s-21 -49 -49 -49s-49 22 -49 49s21 49 49 49zM833 92c28 0 49 -22 49 -49s-21 -49 -49 -49s-49 22 -49 49s21 49 49 49z" />
    <glyph glyph-name="perthousand" unicode="&#x2030;" horiz-adv-x="1000" 
d="M537 586l-393 -652h-49l393 652h49zM480 234c81 0 150 -67 150 -150s-69 -150 -150 -150s-150 67 -150 150s69 150 150 150zM480 182c-52 0 -98 -45 -98 -98s46 -98 98 -98s98 45 98 98s-46 98 -98 98zM834 234c81 0 150 -67 150 -150s-69 -150 -150 -150
s-150 67 -150 150s69 150 150 150zM834 182c-52 0 -98 -45 -98 -98s46 -98 98 -98s98 45 98 98s-46 98 -98 98zM152 586c81 0 150 -67 150 -150s-69 -150 -150 -150s-150 67 -150 150s69 150 150 150zM152 534c-52 0 -98 -45 -98 -98s46 -98 98 -98s98 45 98 98
s-46 98 -98 98z" />
    <glyph glyph-name="questiondown" unicode="&#xbf;" horiz-adv-x="444" 
d="M317 120l69 -69l-7 -7c-3 1 -5 2 -8 2c-23 0 -62 -52 -142 -52c-68 0 -132 48 -132 120c0 107 103 143 103 214c0 16 -4 28 -20 30v12h95v-14c-16 -2 -19 -14 -19 -48c0 -65 -89 -114 -89 -183c0 -48 27 -69 74 -69c34 0 71 13 71 44c0 5 0 11 -2 17zM228 434
c-28 0 -49 22 -49 49s21 49 49 49s49 -22 49 -49s-21 -49 -49 -49z" />
    <glyph glyph-name="grave" unicode="`" horiz-adv-x="278" 
d="M150 492l-137 140h77l111 -140h-51z" />
    <glyph glyph-name="acute" unicode="&#xb4;" horiz-adv-x="278" 
d="M265 632l-137 -140h-51l111 140h77z" />
    <glyph glyph-name="circumflex" unicode="&#x2c6;" horiz-adv-x="278" 
d="M-7 492l112 140h67l114 -140h-65l-82 102l-82 -102h-64z" />
    <glyph glyph-name="tilde" unicode="&#x2dc;" horiz-adv-x="278" 
d="M21 506h-38c3 45 36 95 88 95c24 0 49 -11 73 -22s48 -22 69 -22c30 0 39 23 44 49h38c-6 -49 -30 -95 -87 -95c-22 0 -47 11 -72 22c-24 11 -48 22 -69 22c-29 0 -42 -24 -46 -49z" />
    <glyph glyph-name="macron" unicode="&#xaf;" horiz-adv-x="278" 
d="M-8 529v48h295v-48h-295z" />
    <glyph glyph-name="breve" unicode="&#x2d8;" horiz-adv-x="278" 
d="M-5 625h38c9 -59 54 -81 110 -81c54 0 89 30 102 81h38c-12 -91 -71 -127 -158 -127c-72 0 -126 55 -130 127z" />
    <glyph glyph-name="dotaccent" unicode="&#x2d9;" horiz-adv-x="278" 
d="M107 503v102h64v-102h-64z" />
    <glyph glyph-name="dieresis" unicode="&#xa8;" horiz-adv-x="278" 
d="M29 503v102h64v-102h-64zM185 503v102h64v-102h-64z" />
    <glyph glyph-name="ring" unicode="&#x2da;" horiz-adv-x="278" 
d="M139 488c-53 0 -95 42 -95 95c0 52 42 95 95 95s95 -43 95 -95c0 -53 -42 -95 -95 -95zM139 638c-30 0 -55 -24 -55 -55s25 -55 55 -55s55 24 55 55s-25 55 -55 55z" />
    <glyph glyph-name="cedilla" unicode="&#xb8;" horiz-adv-x="278" 
d="M23 -188l15 30c16 -6 42 -14 59 -14c29 0 71 9 71 46c0 29 -25 38 -52 38c-15 0 -31 -2 -42 -7l-15 13l60 82h38l-46 -57l2 -1c5 2 19 6 31 6c45 0 82 -25 82 -77c0 -53 -62 -79 -106 -79c-33 0 -66 6 -97 20z" />
    <glyph glyph-name="hungarumlaut" unicode="&#x2dd;" horiz-adv-x="278" 
d="M196 632l-133 -140h-45l99 140h79zM322 632l-137 -140h-51l111 140h77z" />
    <glyph glyph-name="ogonek" unicode="&#x2db;" horiz-adv-x="278" 
d="M264 -124l14 -29c-38 -24 -95 -55 -142 -55s-95 24 -95 83c0 99 139 128 214 145v-9c-57 -22 -156 -56 -156 -130c0 -32 29 -47 62 -47c31 0 76 27 103 42z" />
    <glyph glyph-name="caron" unicode="&#x2c7;" horiz-adv-x="278" 
d="M105 492l-112 140h64l82 -102l82 102h65l-114 -140h-67z" />
    <glyph glyph-name="emdash" unicode="&#x2014;" horiz-adv-x="1000" 
d="M1000 244v-48h-1000v48h1000z" />
    <glyph glyph-name="AE" unicode="&#xc6;" horiz-adv-x="833" 
d="M224 216h167v228c0 22 -8 36 -19 36c-13 0 -20 -14 -29 -31zM156 1h-131v11c26 10 39 32 49 52l199 388c12 23 20 40 20 48c0 10 -16 13 -29 14v12h457c16 0 26 5 28 18h12v-105h-12c-2 20 -16 25 -36 25h-248v-162h183c20 0 34 5 36 23h12v-111h-12c-2 21 -16 26 -36 26
h-183v-178h255c20 0 34 5 36 23h12v-103h-12c-2 13 -16 18 -36 18h-352v12c16 2 23 7 23 36v106h-198l-40 -79c-11 -22 -16 -31 -16 -41c0 -7 7 -17 19 -22v-11z" />
    <glyph glyph-name="ordfeminine" unicode="&#xaa;" horiz-adv-x="266" 
d="M72 264h-70v8c10 3 13 10 17 20l72 195c3 9 5 19 5 21c0 5 -2 8 -6 10v8h86v-8c-3 -1 -3 -5 -3 -11c0 -1 1 -7 5 -19l71 -200c2 -7 5 -13 14 -16v-8h-70v8c3 1 7 6 7 9s-2 8 -4 15l-13 34h-101l-14 -34c-2 -7 -4 -12 -4 -17c0 -3 4 -6 8 -7v-8zM131 482l-39 -112h80
l-39 112h-2z" />
    <glyph glyph-name="Lslash" unicode="&#x141;" horiz-adv-x="444" 
d="M278 366v-66l-119 -52v-186h223c20 0 34 5 36 21h12v-101h-12c-2 13 -16 18 -36 18h-318v12c14 2 21 7 21 36v168l-59 -26v66l59 26v196c0 29 -7 34 -21 36v12h116v-12c-14 -2 -21 -7 -21 -36v-164z" />
    <glyph glyph-name="Oslash" unicode="&#xd8;" horiz-adv-x="556" 
d="M163 110l184 344c-20 11 -43 16 -69 16c-101 0 -159 -82 -159 -207c0 -64 15 -116 44 -153zM491 618l-72 -135c59 -48 92 -127 92 -220c0 -152 -89 -269 -233 -269c-40 0 -76 9 -106 26l-63 -118h-57l78 147c-55 49 -85 125 -85 214c0 152 89 269 233 269
c37 0 71 -8 99 -22l57 108h57zM387 423l-185 -346c21 -14 47 -21 76 -21c101 0 159 82 159 207c0 69 -18 125 -50 160z" />
    <glyph glyph-name="OE" unicode="&#x152;" horiz-adv-x="833" 
d="M401 185v146c0 112 -22 139 -109 139c-130 0 -182 -82 -182 -207c0 -121 50 -207 179 -207c86 0 112 35 112 129zM730 0h-469c-140 0 -225 88 -225 264c0 184 89 262 219 262h476c16 0 26 5 28 18h12v-105h-12c-2 20 -16 25 -36 25h-248v-162h183c20 0 34 5 36 23h12
v-111h-12c-2 21 -16 26 -36 26h-183v-178h255c20 0 34 5 36 23h12v-103h-12c-2 13 -16 18 -36 18z" />
    <glyph glyph-name="ordmasculine" unicode="&#xba;" horiz-adv-x="300" 
d="M150 532c84 0 126 -61 126 -136s-42 -136 -126 -136c-83 0 -126 61 -126 136s43 136 126 136zM150 304c56 -2 72 45 72 92c0 48 -16 92 -72 92c-55 0 -72 -44 -72 -92c0 -47 17 -93 72 -92z" />
    <glyph glyph-name="ae" unicode="&#xe6;" horiz-adv-x="722" 
d="M250 440h354c21 0 29 6 32 18h12v-90h-12c-3 18 -11 24 -28 24h-180v-144h115c17 0 25 6 28 26h12v-98h-12c-3 18 -11 24 -28 24h-115v-152h189c17 0 25 6 28 26h12v-92h-12c-2 13 -9 18 -38 18h-261v12c13 2 20 7 20 36v108h-167l-56 -102c-8 -13 -15 -25 -15 -32
s6 -9 18 -10v-12h-104v12c25 3 28 25 43 51l173 307c7 12 18 27 18 40s-14 17 -26 18v12zM366 204v164c0 24 -5 34 -17 34c-14 0 -19 -9 -26 -21l-95 -177h138z" />
    <glyph glyph-name="dotlessi" unicode="&#x131;" horiz-adv-x="278" 
d="M188 0h-98v12c11 2 18 7 18 36v344c0 29 -7 34 -18 36v12h98v-12c-11 -2 -18 -7 -18 -36v-344c0 -29 7 -34 18 -36v-12z" />
    <glyph glyph-name="lslash" unicode="&#x142;" horiz-adv-x="389" 
d="M147 214v-162h192c17 0 25 3 28 16h12v-86h-12c-3 15 -9 18 -28 18h-272v12c11 2 18 7 18 36v144l-45 -16v52l45 16v148c0 29 -7 34 -18 36v12h98v-12c-11 -2 -18 -7 -18 -36v-126l105 38v-52z" />
    <glyph glyph-name="oslash" unicode="&#xf8;" 
d="M347 351l-158 -293c17 -11 37 -16 61 -16c98 0 136 92 136 178c0 48 -12 98 -39 131zM155 86l159 294c-17 12 -39 18 -64 18c-98 0 -136 -92 -136 -178c0 -49 12 -100 41 -134zM56 -100l73 138c-48 42 -73 109 -73 182c0 122 69 226 194 226c34 0 64 -8 88 -20l57 106h49
l-71 -133c46 -40 71 -106 71 -179c0 -122 -69 -226 -194 -226c-32 0 -61 7 -85 20l-61 -114h-48z" />
    <glyph glyph-name="oe" unicode="&#x153;" horiz-adv-x="722" 
d="M237 440h367c21 0 29 6 32 18h12v-90h-12c-3 18 -11 24 -28 24h-184v-144h119c17 0 25 6 28 26h12v-98h-12c-3 18 -11 24 -28 24h-119v-152h193c17 0 25 6 28 26h12v-92h-12c-2 13 -9 18 -38 18h-358c-112 0 -182 50 -182 200c0 156 42 240 170 240zM362 133v174
c0 70 -13 83 -98 83c-90 0 -135 -26 -135 -181c0 -99 23 -162 133 -162c80 0 100 17 100 86z" />
    <glyph glyph-name="germandbls" unicode="&#xdf;" horiz-adv-x="888" 
d="M52 28l43 90l11 -5c-1 -4 -3 -9 -3 -12c0 -23 54 -59 114 -59c46 0 105 22 105 90c0 113 -257 32 -257 203c0 65 60 111 154 111c43 0 63 -6 86 -12c16 -5 33 -14 41 -14c7 0 12 4 19 9l8 -5l-43 -88l-9 4c1 2 1 7 1 11c0 31 -73 47 -109 47c-52 0 -90 -30 -90 -64
c0 -112 257 -26 257 -202c0 -91 -78 -138 -162 -138c-40 0 -73 10 -96 20c-24 10 -38 20 -43 20c-6 0 -10 -4 -15 -11zM496 28l43 90l11 -5c-1 -4 -3 -9 -3 -12c0 -23 54 -59 114 -59c46 0 105 22 105 90c0 113 -257 32 -257 203c0 65 60 111 154 111c43 0 63 -6 86 -12
c16 -5 33 -14 41 -14c7 0 12 4 19 9l8 -5l-43 -88l-9 4c1 2 1 7 1 11c0 31 -73 47 -109 47c-52 0 -90 -30 -90 -64c0 -112 257 -26 257 -202c0 -91 -78 -138 -162 -138c-40 0 -73 10 -96 20c-24 10 -38 20 -43 20c-6 0 -10 -4 -15 -11z" />
    <glyph glyph-name="onesuperior" unicode="&#xb9;" horiz-adv-x="300" 
d="M117 529h87v-12c-9 -1 -14 -4 -14 -21v-250c0 -18 5 -21 14 -21v-12h-90v12c9 0 14 3 14 21v201c-6 -7 -29 -6 -31 -23h-12v66h11c1 -6 8 -8 14 -8c9 0 21 9 21 24c0 6 -5 9 -14 11v12z" />
    <glyph glyph-name="logicalnot" unicode="&#xac;" horiz-adv-x="600" 
d="M458 104v170h-378v62h440v-232h-62z" />
    <glyph glyph-name="mu" unicode="&#x3bc;" 
d="M87 -140v532c0 29 -7 34 -24 36v12h106v-12c-13 -2 -20 -7 -20 -36v-260c0 -46 24 -90 101 -90s101 44 101 90v260c0 29 -7 34 -22 36v12h104v-12c-13 -2 -20 -7 -20 -36v-244c0 -104 -50 -154 -163 -154c-42 0 -76 7 -101 21v-155c0 -29 7 -34 18 -36v-12h-98v12
c11 2 18 7 18 36z" />
    <glyph glyph-name="trademark" unicode="&#x2122;" horiz-adv-x="750" 
d="M192 506v-226c0 -28 -1 -31 37 -34v-20h-150v20c39 3 39 6 39 34v226h-33c-30 0 -43 -22 -49 -47h-18v67h273v-67h-18c-6 25 -18 47 -48 47h-33zM499 226l-102 213l1 -1h-2v-140c0 -38 2 -50 39 -52v-20h-100v20c36 2 37 14 37 52v170c-10 23 -29 38 -51 38v20h108
l102 -210l110 210h91v-20c-35 -1 -39 -11 -39 -34v-194c0 -28 -1 -31 38 -34v-18h-149v20c38 3 37 6 37 34v159h-2l-107 -213h-11z" />
    <glyph glyph-name="Eth" unicode="&#xd0;" horiz-adv-x="556" 
d="M163 464v-169h112v-62h-112v-171h61c126 0 201 38 201 203c0 163 -64 199 -186 199h-76zM89 48v185h-54v62h54v183c0 29 -7 34 -19 36v12h180c167 -1 249 -95 249 -257c0 -201 -96 -269 -288 -269h-141v12c12 2 19 7 19 36z" />
    <glyph glyph-name="onehalf" unicode="&#xbd;" horiz-adv-x="750" 
d="M156 -6h-69l433 538h68zM114 529h87v-12c-9 -1 -14 -4 -14 -21v-250c0 -18 5 -21 14 -21v-12h-90v12c9 0 14 3 14 21v201c-6 -7 -29 -6 -31 -23h-12v66h11c1 -6 8 -8 14 -8c9 0 21 9 21 24c0 6 -5 9 -14 11v12zM499 205l-58 54l6 4c2 0 5 -1 7 -1c7 0 12 6 22 18
c20 22 51 39 93 39c62 0 107 -32 107 -86c0 -86 -126 -118 -161 -183h141c10 0 17 1 21 17h12v-77h-12c-3 9 -11 10 -21 10h-184c-10 0 -17 0 -19 -10h-12v15c0 114 173 162 173 220c0 26 -18 44 -46 44c-41 0 -66 -20 -66 -46c0 -5 1 -10 2 -15z" />
    <glyph glyph-name="plusminus" unicode="&#xb1;" horiz-adv-x="600" 
d="M269 299v141h62v-141h189v-62h-189v-141h-62v141h-189v62h189zM80 0v62h440v-62h-440z" />
    <glyph glyph-name="Thorn" unicode="&#xde;" 
d="M159 360v-177h107c74 0 109 33 109 89c0 58 -37 88 -97 88h-119zM85 48v430c0 29 -7 34 -21 36v12h116v-12c-14 -2 -21 -7 -21 -36v-56h121c122 0 169 -72 169 -140c0 -116 -65 -161 -201 -161h-89v-73c0 -29 7 -34 23 -36v-12h-116v12c12 2 19 7 19 36z" />
    <glyph glyph-name="onequarter" unicode="&#xbc;" horiz-adv-x="750" 
d="M590 239l-86 -132h88v132h-2zM564 316h99v-12c-4 -1 -15 -4 -15 -21v-178h15c15 0 23 1 23 13h12v-72h-12c-1 12 -6 13 -23 13h-15v-25c0 -18 11 -21 20 -22v-12h-85v12c5 1 9 4 9 22v25h-124c-12 0 -19 -2 -21 -13h-12v50l126 182c7 10 11 16 11 20s-4 6 -8 6v12z
M192 -6h-69l433 538h68zM114 529h87v-12c-9 -1 -14 -4 -14 -21v-250c0 -18 5 -21 14 -21v-12h-90v12c9 0 14 3 14 21v201c-6 -7 -29 -6 -31 -23h-12v66h11c1 -6 8 -8 14 -8c9 0 21 9 21 24c0 6 -5 9 -14 11v12z" />
    <glyph glyph-name="divide" unicode="&#xf7;" horiz-adv-x="600" 
d="M520 189h-440v62h440v-62zM244 401c0 31 25 56 56 56s56 -25 56 -56s-25 -56 -56 -56s-56 25 -56 56zM244 39c0 31 25 56 56 56s56 -25 56 -56s-25 -56 -56 -56s-56 25 -56 56z" />
    <glyph glyph-name="brokenbar" unicode="&#xa6;" horiz-adv-x="222" 
d="M80 0v198h62v-198h-62zM80 328v198h62v-198h-62z" />
    <glyph glyph-name="degree" unicode="&#xb0;" horiz-adv-x="400" 
d="M103 389c0 -54 44 -101 97 -101s97 47 97 101s-44 101 -97 101s-97 -47 -97 -101zM57 389c0 80 63 143 143 143s143 -63 143 -143s-63 -143 -143 -143s-143 63 -143 143z" />
    <glyph glyph-name="thorn" unicode="&#xfe;" horiz-adv-x="444" 
d="M96 48v344c0 29 -7 34 -24 36v12h102v-12c-9 -2 -16 -7 -16 -36v-36h103c94 0 134 -62 134 -126c0 -80 -64 -124 -150 -124h-87v-58c0 -29 7 -34 16 -36v-12h-102v12c17 2 24 7 24 36zM158 308v-154h73c76 0 106 34 106 78c0 48 -30 76 -82 76h-97z" />
    <glyph glyph-name="threequarters" unicode="&#xbe;" horiz-adv-x="750" 
d="M590 239l-86 -132h88v132h-2zM564 316h99v-12c-4 -1 -15 -4 -15 -21v-178h15c15 0 23 1 23 13h12v-72h-12c-1 12 -6 13 -23 13h-15v-25c0 -18 11 -21 20 -22v-12h-85v12c5 1 9 4 9 22v25h-124c-12 0 -19 -2 -21 -13h-12v50l126 182c7 10 11 16 11 20s-4 6 -8 6v12z
M216 -6h-69l433 538h68zM108 431l-57 46l8 10c2 -1 3 -1 5 -1c3 0 6 0 8 2c29 22 57 44 106 44c57 0 112 -29 112 -85c0 -28 -15 -52 -43 -66c34 -11 53 -38 53 -75c0 -55 -50 -97 -128 -97c-66 0 -92 30 -105 30c-5 0 -10 -2 -13 -6l-14 4l39 75l13 -4c-1 -3 -1 -6 -1 -9
c-4 -22 39 -40 83 -40c50 0 64 19 64 45c0 32 -10 51 -56 51c-22 0 -38 -2 -41 -12h-12v74h12c3 -9 22 -12 36 -12c33 0 51 15 51 43c0 20 -14 34 -50 34c-38 0 -65 -19 -65 -31c0 -4 1 -9 2 -12z" />
    <glyph glyph-name="twosuperior" unicode="&#xb2;" horiz-adv-x="300" 
d="M87 418l-58 54l6 4c2 0 5 -1 7 -1c7 0 12 6 22 18c20 22 51 39 93 39c62 0 107 -32 107 -86c0 -86 -126 -118 -161 -183h141c10 0 17 1 21 17h12v-77h-12c-3 9 -11 10 -21 10h-184c-10 0 -17 0 -19 -10h-12v15c0 114 173 162 173 220c0 26 -18 44 -46 44
c-41 0 -66 -20 -66 -46c0 -5 1 -10 2 -15z" />
    <glyph glyph-name="registered" unicode="&#xae;" horiz-adv-x="600" 
d="M174 392v20h149c47 0 87 -23 87 -74c0 -35 -23 -67 -57 -78l44 -63c16 -22 32 -48 46 -63v-9h-64c-24 0 -46 69 -82 125h-25v-73c0 -26 -1 -30 34 -32v-20h-132v20c34 2 34 6 34 32v183c0 26 0 30 -34 32zM272 388v-114h24c35 0 44 28 44 61c0 44 -17 53 -43 53h-25z
M300 -6c-151 0 -264 117 -264 268c0 152 113 270 264 270c152 0 264 -118 264 -270c0 -151 -112 -268 -264 -268zM300 36c118 0 206 102 206 226c0 125 -87 228 -206 228c-118 0 -206 -104 -206 -228s88 -226 206 -226z" />
    <glyph glyph-name="minus" unicode="&#x2212;" horiz-adv-x="600" 
d="M520 189h-440v62h440v-62z" />
    <glyph glyph-name="eth" unicode="&#xf0;" 
d="M249 248v-48h-101v-152h71c102 3 156 32 156 173c0 119 -40 171 -147 171h-80v-144h101zM41 200v48h45v144c0 29 -7 34 -24 36v12h187c127 0 188 -88 188 -218c0 -178 -91 -222 -218 -222h-155v12c15 2 22 7 22 36v152h-45z" />
    <glyph glyph-name="multiply" unicode="&#xd7;" horiz-adv-x="600" 
d="M299 176l-175 -176l-44 44l177 176l-177 176l44 44l175 -176l177 176l44 -44l-177 -176l177 -176l-44 -44z" />
    <glyph glyph-name="threesuperior" unicode="&#xb3;" horiz-adv-x="300" 
d="M82 431l-57 46l8 10c2 -1 3 -1 5 -1c3 0 6 0 8 2c29 22 57 44 106 44c57 0 112 -29 112 -85c0 -28 -15 -52 -43 -66c34 -11 53 -38 53 -75c0 -55 -50 -97 -128 -97c-66 0 -92 30 -105 30c-5 0 -10 -2 -13 -6l-14 4l39 75l13 -4c-1 -3 -1 -6 -1 -9c-4 -22 39 -40 83 -40
c50 0 64 19 64 45c0 32 -10 51 -56 51c-22 0 -38 -2 -41 -12h-12v74h12c3 -9 22 -12 36 -12c33 0 51 15 51 43c0 20 -14 34 -50 34c-38 0 -65 -19 -65 -31c0 -4 1 -9 2 -12z" />
    <glyph glyph-name="copyright" unicode="&#xa9;" horiz-adv-x="600" 
d="M300 -6c-151 0 -264 117 -264 268c0 152 113 270 264 270c152 0 264 -118 264 -270c0 -151 -112 -268 -264 -268zM300 36c118 0 206 102 206 226c0 125 -87 228 -206 228c-118 0 -206 -104 -206 -228s88 -226 206 -226zM413 203h15l-11 -60c-1 -9 -8 -12 -22 -17
c-13 -3 -45 -14 -80 -14c-99 0 -165 55 -165 159c0 69 42 155 170 155c39 0 59 -8 79 -15c13 -4 17 -10 17 -16v-58h-16c-8 30 -29 65 -80 65c-57 0 -85 -52 -86 -127c-1 -80 23 -139 87 -139c44 0 74 27 92 67z" />
    <glyph glyph-name="Aacute" unicode="&#xc1;" 
d="M123 0h-96v8c5 4 10 8 12 14l139 431c5 15 11 30 11 42c0 11 -5 18 -15 19v12h139v-12c-9 -2 -12 -10 -12 -19c0 -12 6 -27 11 -42l143 -417c5 -14 9 -21 18 -24v-12h-105v12c8 3 14 8 14 17c0 16 -35 102 -40 124h-197c-9 -32 -37 -107 -37 -118s4 -23 15 -26v-9z
M239 459l-74 -246h155l-79 246h-2zM376 699l-137 -140h-51l111 140h77z" />
    <glyph glyph-name="Acircumflex" unicode="&#xc2;" 
d="M123 0h-96v8c5 4 10 8 12 14l139 431c5 15 11 30 11 42c0 11 -5 18 -15 19v12h139v-12c-9 -2 -12 -10 -12 -19c0 -12 6 -27 11 -42l143 -417c5 -14 9 -21 18 -24v-12h-105v12c8 3 14 8 14 17c0 16 -35 102 -40 124h-197c-9 -32 -37 -107 -37 -118s4 -23 15 -26v-9z
M239 459l-74 -246h155l-79 246h-2zM104 559l112 140h67l114 -140h-65l-82 102l-82 -102h-64z" />
    <glyph glyph-name="Adieresis" unicode="&#xc4;" 
d="M123 0h-96v8c5 4 10 8 12 14l139 431c5 15 11 30 11 42c0 11 -5 18 -15 19v12h139v-12c-9 -2 -12 -10 -12 -19c0 -12 6 -27 11 -42l143 -417c5 -14 9 -21 18 -24v-12h-105v12c8 3 14 8 14 17c0 16 -35 102 -40 124h-197c-9 -32 -37 -107 -37 -118s4 -23 15 -26v-9z
M239 459l-74 -246h155l-79 246h-2zM140 570v102h64v-102h-64zM296 570v102h64v-102h-64z" />
    <glyph glyph-name="Agrave" unicode="&#xc0;" 
d="M123 0h-96v8c5 4 10 8 12 14l139 431c5 15 11 30 11 42c0 11 -5 18 -15 19v12h139v-12c-9 -2 -12 -10 -12 -19c0 -12 6 -27 11 -42l143 -417c5 -14 9 -21 18 -24v-12h-105v12c8 3 14 8 14 17c0 16 -35 102 -40 124h-197c-9 -32 -37 -107 -37 -118s4 -23 15 -26v-9z
M239 459l-74 -246h155l-79 246h-2zM261 559l-137 140h77l111 -140h-51z" />
    <glyph glyph-name="Aring" unicode="&#xc5;" 
d="M123 0h-96v8c5 4 10 8 12 14l139 431c5 15 11 30 11 42c0 11 -5 18 -15 19v12h139v-12c-9 -2 -12 -10 -12 -19c0 -12 6 -27 11 -42l143 -417c5 -14 9 -21 18 -24v-12h-105v12c8 3 14 8 14 17c0 16 -35 102 -40 124h-197c-9 -32 -37 -107 -37 -118s4 -23 15 -26v-9z
M239 459l-74 -246h155l-79 246h-2zM250 555c-53 0 -95 42 -95 95c0 52 42 95 95 95s95 -43 95 -95c0 -53 -42 -95 -95 -95zM250 705c-30 0 -55 -24 -55 -55s25 -55 55 -55s55 24 55 55s-25 55 -55 55z" />
    <glyph glyph-name="Atilde" unicode="&#xc3;" 
d="M123 0h-96v8c5 4 10 8 12 14l139 431c5 15 11 30 11 42c0 11 -5 18 -15 19v12h139v-12c-9 -2 -12 -10 -12 -19c0 -12 6 -27 11 -42l143 -417c5 -14 9 -21 18 -24v-12h-105v12c8 3 14 8 14 17c0 16 -35 102 -40 124h-197c-9 -32 -37 -107 -37 -118s4 -23 15 -26v-9z
M239 459l-74 -246h155l-79 246h-2zM132 573h-38c3 45 36 95 88 95c24 0 49 -11 73 -22s48 -22 69 -22c30 0 39 23 44 49h38c-6 -49 -30 -95 -87 -95c-22 0 -47 11 -72 22c-24 11 -48 22 -69 22c-29 0 -42 -24 -46 -49z" />
    <glyph glyph-name="Ccedilla" unicode="&#xc7;" 
d="M455 469l-61 -87l-10 5c1 6 2 11 2 16c0 24 -50 67 -121 67c-95 0 -153 -82 -153 -207s58 -207 159 -207c64 0 123 49 123 72c0 8 -2 17 -7 25l15 6l68 -94l-11 -7c-5 5 -10 8 -18 8c-10 0 -69 -72 -168 -72c-152 0 -235 117 -235 269s85 269 227 269
c102 0 163 -63 171 -63c5 0 8 2 11 4zM146 -188l15 30c16 -6 42 -14 59 -14c29 0 71 9 71 46c0 29 -25 38 -52 38c-15 0 -31 -2 -42 -7l-15 13l60 82h38l-46 -57l2 -1c5 2 19 6 31 6c45 0 82 -25 82 -77c0 -53 -62 -79 -106 -79c-33 0 -66 6 -97 20z" />
    <glyph glyph-name="Eacute" unicode="&#xc9;" 
d="M85 48v430c0 29 -7 34 -21 36v12h335c16 0 26 5 28 18h12v-105h-12c-2 20 -16 25 -36 25h-232v-162h167c20 0 34 5 36 23h12v-111h-12c-2 21 -16 26 -36 26h-167v-178h239c20 0 34 5 36 23h12v-103h-12c-2 13 -16 18 -36 18h-334v12c14 2 21 7 21 36zM376 699l-137 -140
h-51l111 140h77z" />
    <glyph glyph-name="Ecircumflex" unicode="&#xca;" 
d="M85 48v430c0 29 -7 34 -21 36v12h335c16 0 26 5 28 18h12v-105h-12c-2 20 -16 25 -36 25h-232v-162h167c20 0 34 5 36 23h12v-111h-12c-2 21 -16 26 -36 26h-167v-178h239c20 0 34 5 36 23h12v-103h-12c-2 13 -16 18 -36 18h-334v12c14 2 21 7 21 36zM104 559l112 140h67
l114 -140h-65l-82 102l-82 -102h-64z" />
    <glyph glyph-name="Edieresis" unicode="&#xcb;" 
d="M85 48v430c0 29 -7 34 -21 36v12h335c16 0 26 5 28 18h12v-105h-12c-2 20 -16 25 -36 25h-232v-162h167c20 0 34 5 36 23h12v-111h-12c-2 21 -16 26 -36 26h-167v-178h239c20 0 34 5 36 23h12v-103h-12c-2 13 -16 18 -36 18h-334v12c14 2 21 7 21 36zM140 570v102h64
v-102h-64zM296 570v102h64v-102h-64z" />
    <glyph glyph-name="Egrave" unicode="&#xc8;" 
d="M85 48v430c0 29 -7 34 -21 36v12h335c16 0 26 5 28 18h12v-105h-12c-2 20 -16 25 -36 25h-232v-162h167c20 0 34 5 36 23h12v-111h-12c-2 21 -16 26 -36 26h-167v-178h239c20 0 34 5 36 23h12v-103h-12c-2 13 -16 18 -36 18h-334v12c14 2 21 7 21 36zM261 559l-137 140
h77l111 -140h-51z" />
    <glyph glyph-name="Iacute" unicode="&#xcd;" horiz-adv-x="278" 
d="M207 0h-136v12c24 2 31 7 31 36v430c0 29 -7 34 -31 36v12h136v-12c-24 -2 -31 -7 -31 -36v-430c0 -29 7 -34 31 -36v-12zM265 699l-137 -140h-51l111 140h77z" />
    <glyph glyph-name="Icircumflex" unicode="&#xce;" horiz-adv-x="278" 
d="M207 0h-136v12c24 2 31 7 31 36v430c0 29 -7 34 -31 36v12h136v-12c-24 -2 -31 -7 -31 -36v-430c0 -29 7 -34 31 -36v-12zM-7 559l112 140h67l114 -140h-65l-82 102l-82 -102h-64z" />
    <glyph glyph-name="Idieresis" unicode="&#xcf;" horiz-adv-x="278" 
d="M207 0h-136v12c24 2 31 7 31 36v430c0 29 -7 34 -31 36v12h136v-12c-24 -2 -31 -7 -31 -36v-430c0 -29 7 -34 31 -36v-12zM29 570v102h64v-102h-64zM185 570v102h64v-102h-64z" />
    <glyph glyph-name="Igrave" unicode="&#xcc;" horiz-adv-x="278" 
d="M207 0h-136v12c24 2 31 7 31 36v430c0 29 -7 34 -31 36v12h136v-12c-24 -2 -31 -7 -31 -36v-430c0 -29 7 -34 31 -36v-12zM150 559l-137 140h77l111 -140h-51z" />
    <glyph glyph-name="Ntilde" unicode="&#xd1;" horiz-adv-x="556" 
d="M177 0h-107v12c11 2 18 7 18 36v430c0 29 -7 34 -20 36v12h152v-12c-8 0 -21 -4 -21 -13c0 -12 15 -31 29 -55l170 -292h4v324c0 29 -7 34 -24 36v12h113v-12c-19 0 -23 -3 -23 -19v-447c0 -29 7 -34 28 -36v-12h-128v12c15 3 26 6 26 13c0 11 -18 34 -30 54l-208 357h-2
v-388c0 -29 7 -34 23 -36v-12zM160 573h-38c3 45 36 95 88 95c24 0 49 -11 73 -22s48 -22 69 -22c30 0 39 23 44 49h38c-6 -49 -30 -95 -87 -95c-22 0 -47 11 -72 22c-24 11 -48 22 -69 22c-29 0 -42 -24 -46 -49z" />
    <glyph glyph-name="Oacute" unicode="&#xd3;" horiz-adv-x="556" 
d="M278 470c-101 0 -159 -82 -159 -207s58 -207 159 -207s159 82 159 207s-58 207 -159 207zM511 263c0 -152 -89 -269 -233 -269s-233 117 -233 269s89 269 233 269s233 -117 233 -269zM404 699l-137 -140h-51l111 140h77z" />
    <glyph glyph-name="Ocircumflex" unicode="&#xd4;" horiz-adv-x="556" 
d="M278 470c-101 0 -159 -82 -159 -207s58 -207 159 -207s159 82 159 207s-58 207 -159 207zM511 263c0 -152 -89 -269 -233 -269s-233 117 -233 269s89 269 233 269s233 -117 233 -269zM132 559l112 140h67l114 -140h-65l-82 102l-82 -102h-64z" />
    <glyph glyph-name="Odieresis" unicode="&#xd6;" horiz-adv-x="556" 
d="M278 470c-101 0 -159 -82 -159 -207s58 -207 159 -207s159 82 159 207s-58 207 -159 207zM511 263c0 -152 -89 -269 -233 -269s-233 117 -233 269s89 269 233 269s233 -117 233 -269zM168 570v102h64v-102h-64zM324 570v102h64v-102h-64z" />
    <glyph glyph-name="Ograve" unicode="&#xd2;" horiz-adv-x="556" 
d="M278 470c-101 0 -159 -82 -159 -207s58 -207 159 -207s159 82 159 207s-58 207 -159 207zM511 263c0 -152 -89 -269 -233 -269s-233 117 -233 269s89 269 233 269s233 -117 233 -269zM289 559l-137 140h77l111 -140h-51z" />
    <glyph glyph-name="Otilde" unicode="&#xd5;" horiz-adv-x="556" 
d="M278 470c-101 0 -159 -82 -159 -207s58 -207 159 -207s159 82 159 207s-58 207 -159 207zM511 263c0 -152 -89 -269 -233 -269s-233 117 -233 269s89 269 233 269s233 -117 233 -269zM160 573h-38c3 45 36 95 88 95c24 0 49 -11 73 -22s48 -22 69 -22c30 0 39 23 44 49
h38c-6 -49 -30 -95 -87 -95c-22 0 -47 11 -72 22c-24 11 -48 22 -69 22c-29 0 -42 -24 -46 -49z" />
    <glyph glyph-name="Scaron" unicode="&#x160;" 
d="M52 32l63 113l10 -4c0 -67 70 -85 128 -85c56 0 124 26 124 90c0 131 -311 60 -311 238c0 98 81 148 183 148c52 0 88 -10 113 -20s40 -18 49 -18c6 0 9 3 12 5l9 -6l-51 -94l-10 5c0 42 -52 66 -119 66c-56 0 -120 -23 -120 -85c0 -105 311 -41 311 -234
c0 -99 -76 -157 -196 -157c-43 0 -82 11 -111 22c-28 11 -47 22 -51 22c-12 0 -18 -6 -21 -10zM216 559l-112 140h64l82 -102l82 102h65l-114 -140h-67z" />
    <glyph glyph-name="Uacute" unicode="&#xda;" horiz-adv-x="556" 
d="M372 526h114v-12c-14 -2 -21 -7 -21 -36v-338c0 -82 -69 -146 -187 -146s-187 64 -187 146v338c0 29 -7 34 -21 36v12h114v-12c-14 -2 -19 -7 -19 -36v-295c0 -82 23 -127 113 -127s113 45 113 127v295c0 29 -5 34 -19 36v12zM404 699l-137 -140h-51l111 140h77z" />
    <glyph glyph-name="Ucircumflex" unicode="&#xdb;" horiz-adv-x="556" 
d="M372 526h114v-12c-14 -2 -21 -7 -21 -36v-338c0 -82 -69 -146 -187 -146s-187 64 -187 146v338c0 29 -7 34 -21 36v12h114v-12c-14 -2 -19 -7 -19 -36v-295c0 -82 23 -127 113 -127s113 45 113 127v295c0 29 -5 34 -19 36v12zM132 559l112 140h67l114 -140h-65l-82 102
l-82 -102h-64z" />
    <glyph glyph-name="Udieresis" unicode="&#xdc;" horiz-adv-x="556" 
d="M372 526h114v-12c-14 -2 -21 -7 -21 -36v-338c0 -82 -69 -146 -187 -146s-187 64 -187 146v338c0 29 -7 34 -21 36v12h114v-12c-14 -2 -19 -7 -19 -36v-295c0 -82 23 -127 113 -127s113 45 113 127v295c0 29 -5 34 -19 36v12zM168 570v102h64v-102h-64zM324 570v102h64
v-102h-64z" />
    <glyph glyph-name="Ugrave" unicode="&#xd9;" horiz-adv-x="556" 
d="M372 526h114v-12c-14 -2 -21 -7 -21 -36v-338c0 -82 -69 -146 -187 -146s-187 64 -187 146v338c0 29 -7 34 -21 36v12h114v-12c-14 -2 -19 -7 -19 -36v-295c0 -82 23 -127 113 -127s113 45 113 127v295c0 29 -5 34 -19 36v12zM289 559l-137 140h77l111 -140h-51z" />
    <glyph glyph-name="Yacute" unicode="&#xdd;" horiz-adv-x="444" 
d="M256 244v-196c0 -29 7 -34 31 -36v-12h-136v12c24 2 31 7 31 36v189l-121 212c-14 24 -27 54 -54 65v12h123v-10c-10 -2 -16 -6 -16 -14c0 -9 5 -16 9 -24l100 -177l102 183c4 7 5 12 5 15c0 10 -10 15 -19 15v12h115v-12c-13 -3 -19 -11 -26 -22zM348 699l-137 -140h-51
l111 140h77z" />
    <glyph glyph-name="Ydieresis" unicode="&#x178;" horiz-adv-x="444" 
d="M256 244v-196c0 -29 7 -34 31 -36v-12h-136v12c24 2 31 7 31 36v189l-121 212c-14 24 -27 54 -54 65v12h123v-10c-10 -2 -16 -6 -16 -14c0 -9 5 -16 9 -24l100 -177l102 183c4 7 5 12 5 15c0 10 -10 15 -19 15v12h115v-12c-13 -3 -19 -11 -26 -22zM112 570v102h64v-102
h-64zM268 570v102h64v-102h-64z" />
    <glyph glyph-name="Zcaron" unicode="&#x17d;" horiz-adv-x="444" 
d="M399 501l-252 -439h199c20 0 34 5 36 23h12v-103h-12c-2 13 -12 18 -36 18h-303v17l257 447h-212c-20 0 -34 -5 -36 -23h-12v103h12c2 -13 12 -18 36 -18h311v-25zM188 559l-112 140h64l82 -102l82 102h65l-114 -140h-67z" />
    <glyph glyph-name="aacute" unicode="&#xe1;" horiz-adv-x="444" 
d="M121 0h-93v12c18 4 23 16 28 33l106 327c4 15 11 32 11 39c0 9 -6 14 -12 17v12h126v-12c-5 -2 -8 -8 -8 -18c0 -7 4 -17 10 -37l105 -334c3 -12 8 -23 22 -27v-12h-92v12c6 1 11 9 11 15c0 4 -3 13 -6 24l-22 69h-172l-21 -69c-3 -11 -6 -20 -6 -27c0 -5 6 -11 13 -12
v-12zM222 396l-70 -228h139l-67 228h-2zM348 632l-137 -140h-51l111 140h77z" />
    <glyph glyph-name="acircumflex" unicode="&#xe2;" horiz-adv-x="444" 
d="M121 0h-93v12c18 4 23 16 28 33l106 327c4 15 11 32 11 39c0 9 -6 14 -12 17v12h126v-12c-5 -2 -8 -8 -8 -18c0 -7 4 -17 10 -37l105 -334c3 -12 8 -23 22 -27v-12h-92v12c6 1 11 9 11 15c0 4 -3 13 -6 24l-22 69h-172l-21 -69c-3 -11 -6 -20 -6 -27c0 -5 6 -11 13 -12
v-12zM222 396l-70 -228h139l-67 228h-2zM76 492l112 140h67l114 -140h-65l-82 102l-82 -102h-64z" />
    <glyph glyph-name="adieresis" unicode="&#xe4;" horiz-adv-x="444" 
d="M121 0h-93v12c18 4 23 16 28 33l106 327c4 15 11 32 11 39c0 9 -6 14 -12 17v12h126v-12c-5 -2 -8 -8 -8 -18c0 -7 4 -17 10 -37l105 -334c3 -12 8 -23 22 -27v-12h-92v12c6 1 11 9 11 15c0 4 -3 13 -6 24l-22 69h-172l-21 -69c-3 -11 -6 -20 -6 -27c0 -5 6 -11 13 -12
v-12zM222 396l-70 -228h139l-67 228h-2zM112 503v102h64v-102h-64zM268 503v102h64v-102h-64z" />
    <glyph glyph-name="agrave" unicode="&#xe0;" horiz-adv-x="444" 
d="M121 0h-93v12c18 4 23 16 28 33l106 327c4 15 11 32 11 39c0 9 -6 14 -12 17v12h126v-12c-5 -2 -8 -8 -8 -18c0 -7 4 -17 10 -37l105 -334c3 -12 8 -23 22 -27v-12h-92v12c6 1 11 9 11 15c0 4 -3 13 -6 24l-22 69h-172l-21 -69c-3 -11 -6 -20 -6 -27c0 -5 6 -11 13 -12
v-12zM222 396l-70 -228h139l-67 228h-2zM233 492l-137 140h77l111 -140h-51z" />
    <glyph glyph-name="aring" unicode="&#xe5;" horiz-adv-x="444" 
d="M121 0h-93v12c18 4 23 16 28 33l106 327c4 15 11 32 11 39c0 9 -6 14 -12 17v12h126v-12c-5 -2 -8 -8 -8 -18c0 -7 4 -17 10 -37l105 -334c3 -12 8 -23 22 -27v-12h-92v12c6 1 11 9 11 15c0 4 -3 13 -6 24l-22 69h-172l-21 -69c-3 -11 -6 -20 -6 -27c0 -5 6 -11 13 -12
v-12zM222 396l-70 -228h139l-67 228h-2zM222 488c-53 0 -95 42 -95 95c0 52 42 95 95 95s95 -43 95 -95c0 -53 -42 -95 -95 -95zM222 638c-30 0 -55 -24 -55 -55s25 -55 55 -55s55 24 55 55s-25 55 -55 55z" />
    <glyph glyph-name="atilde" unicode="&#xe3;" horiz-adv-x="444" 
d="M121 0h-93v12c18 4 23 16 28 33l106 327c4 15 11 32 11 39c0 9 -6 14 -12 17v12h126v-12c-5 -2 -8 -8 -8 -18c0 -7 4 -17 10 -37l105 -334c3 -12 8 -23 22 -27v-12h-92v12c6 1 11 9 11 15c0 4 -3 13 -6 24l-22 69h-172l-21 -69c-3 -11 -6 -20 -6 -27c0 -5 6 -11 13 -12
v-12zM222 396l-70 -228h139l-67 228h-2zM104 506h-38c3 45 36 95 88 95c24 0 49 -11 73 -22s48 -22 69 -22c30 0 39 23 44 49h38c-6 -49 -30 -95 -87 -95c-22 0 -47 11 -72 22c-24 11 -48 22 -69 22c-29 0 -42 -24 -46 -49z" />
    <glyph glyph-name="ccedilla" unicode="&#xe7;" horiz-adv-x="444" 
d="M395 396l7 -5l-49 -76l-9 3c4 46 -46 80 -94 80c-78 0 -136 -64 -136 -178c0 -118 50 -178 132 -178c55 0 97 46 97 71c0 2 0 6 -1 10l9 3l58 -74l-7 -5c-4 3 -8 4 -13 4c-26 0 -58 -57 -143 -57c-112 0 -194 68 -194 226c0 122 69 226 194 226c82 0 116 -57 135 -57
c5 0 9 4 14 7zM118 -188l15 30c16 -6 42 -14 59 -14c29 0 71 9 71 46c0 29 -25 38 -52 38c-15 0 -31 -2 -42 -7l-15 13l60 82h38l-46 -57l2 -1c5 2 19 6 31 6c45 0 82 -25 82 -77c0 -53 -62 -79 -106 -79c-33 0 -66 6 -97 20z" />
    <glyph glyph-name="eacute" unicode="&#xe9;" horiz-adv-x="444" 
d="M98 48v344c0 29 -7 34 -18 36v12h259c21 0 29 6 32 18h12v-90h-12c-3 18 -11 24 -28 24h-183v-144h118c17 0 25 6 28 26h12v-98h-12c-3 18 -11 24 -28 24h-118v-152h192c17 0 25 6 28 26h12v-92h-12c-2 13 -9 18 -38 18h-262v12c11 2 18 7 18 36zM348 632l-137 -140h-51
l111 140h77z" />
    <glyph glyph-name="ecircumflex" unicode="&#xea;" horiz-adv-x="444" 
d="M98 48v344c0 29 -7 34 -18 36v12h259c21 0 29 6 32 18h12v-90h-12c-3 18 -11 24 -28 24h-183v-144h118c17 0 25 6 28 26h12v-98h-12c-3 18 -11 24 -28 24h-118v-152h192c17 0 25 6 28 26h12v-92h-12c-2 13 -9 18 -38 18h-262v12c11 2 18 7 18 36zM76 492l112 140h67
l114 -140h-65l-82 102l-82 -102h-64z" />
    <glyph glyph-name="edieresis" unicode="&#xeb;" horiz-adv-x="444" 
d="M98 48v344c0 29 -7 34 -18 36v12h259c21 0 29 6 32 18h12v-90h-12c-3 18 -11 24 -28 24h-183v-144h118c17 0 25 6 28 26h12v-98h-12c-3 18 -11 24 -28 24h-118v-152h192c17 0 25 6 28 26h12v-92h-12c-2 13 -9 18 -38 18h-262v12c11 2 18 7 18 36zM112 503v102h64v-102
h-64zM268 503v102h64v-102h-64z" />
    <glyph glyph-name="egrave" unicode="&#xe8;" horiz-adv-x="444" 
d="M98 48v344c0 29 -7 34 -18 36v12h259c21 0 29 6 32 18h12v-90h-12c-3 18 -11 24 -28 24h-183v-144h118c17 0 25 6 28 26h12v-98h-12c-3 18 -11 24 -28 24h-118v-152h192c17 0 25 6 28 26h12v-92h-12c-2 13 -9 18 -38 18h-262v12c11 2 18 7 18 36zM233 492l-137 140h77
l111 -140h-51z" />
    <glyph glyph-name="iacute" unicode="&#xed;" horiz-adv-x="278" 
d="M188 0h-98v12c11 2 18 7 18 36v344c0 29 -7 34 -18 36v12h98v-12c-11 -2 -18 -7 -18 -36v-344c0 -29 7 -34 18 -36v-12zM265 632l-137 -140h-51l111 140h77z" />
    <glyph glyph-name="icircumflex" unicode="&#xee;" horiz-adv-x="278" 
d="M188 0h-98v12c11 2 18 7 18 36v344c0 29 -7 34 -18 36v12h98v-12c-11 -2 -18 -7 -18 -36v-344c0 -29 7 -34 18 -36v-12zM-7 492l112 140h67l114 -140h-65l-82 102l-82 -102h-64z" />
    <glyph glyph-name="idieresis" unicode="&#xef;" horiz-adv-x="278" 
d="M188 0h-98v12c11 2 18 7 18 36v344c0 29 -7 34 -18 36v12h98v-12c-11 -2 -18 -7 -18 -36v-344c0 -29 7 -34 18 -36v-12zM29 503v102h64v-102h-64zM185 503v102h64v-102h-64z" />
    <glyph glyph-name="igrave" unicode="&#xec;" horiz-adv-x="278" 
d="M188 0h-98v12c11 2 18 7 18 36v344c0 29 -7 34 -18 36v12h98v-12c-11 -2 -18 -7 -18 -36v-344c0 -29 7 -34 18 -36v-12zM150 492l-137 140h77l111 -140h-51z" />
    <glyph glyph-name="ntilde" unicode="&#xf1;" 
d="M163 0h-99v12c16 2 23 7 23 36v344c0 29 -7 34 -18 36v12h122v-12c-10 -1 -16 -6 -16 -14c0 -7 7 -16 10 -21l169 -275h2v274c0 29 -7 34 -19 36v12h93v-12c-11 -2 -18 -7 -18 -36v-344c0 -29 7 -34 20 -36v-12h-97v12c6 0 14 1 14 8c0 5 -1 10 -15 32l-189 306h-2v-310
c0 -29 7 -34 20 -36v-12zM132 506h-38c3 45 36 95 88 95c24 0 49 -11 73 -22s48 -22 69 -22c30 0 39 23 44 49h38c-6 -49 -30 -95 -87 -95c-22 0 -47 11 -72 22c-24 11 -48 22 -69 22c-29 0 -42 -24 -46 -49z" />
    <glyph glyph-name="oacute" unicode="&#xf3;" 
d="M250 -6c-125 0 -194 104 -194 226s69 226 194 226s194 -104 194 -226s-69 -226 -194 -226zM250 42c98 0 136 92 136 178s-38 178 -136 178s-136 -92 -136 -178s38 -178 136 -178zM376 632l-137 -140h-51l111 140h77z" />
    <glyph glyph-name="ocircumflex" unicode="&#xf4;" 
d="M250 -6c-125 0 -194 104 -194 226s69 226 194 226s194 -104 194 -226s-69 -226 -194 -226zM250 42c98 0 136 92 136 178s-38 178 -136 178s-136 -92 -136 -178s38 -178 136 -178zM104 492l112 140h67l114 -140h-65l-82 102l-82 -102h-64z" />
    <glyph glyph-name="odieresis" unicode="&#xf6;" 
d="M250 -6c-125 0 -194 104 -194 226s69 226 194 226s194 -104 194 -226s-69 -226 -194 -226zM250 42c98 0 136 92 136 178s-38 178 -136 178s-136 -92 -136 -178s38 -178 136 -178zM140 503v102h64v-102h-64zM296 503v102h64v-102h-64z" />
    <glyph glyph-name="ograve" unicode="&#xf2;" 
d="M250 -6c-125 0 -194 104 -194 226s69 226 194 226s194 -104 194 -226s-69 -226 -194 -226zM250 42c98 0 136 92 136 178s-38 178 -136 178s-136 -92 -136 -178s38 -178 136 -178zM261 492l-137 140h77l111 -140h-51z" />
    <glyph glyph-name="otilde" unicode="&#xf5;" 
d="M250 -6c-125 0 -194 104 -194 226s69 226 194 226s194 -104 194 -226s-69 -226 -194 -226zM250 42c98 0 136 92 136 178s-38 178 -136 178s-136 -92 -136 -178s38 -178 136 -178zM132 506h-38c3 45 36 95 88 95c24 0 49 -11 73 -22s48 -22 69 -22c30 0 39 23 44 49h38
c-6 -49 -30 -95 -87 -95c-22 0 -47 11 -72 22c-24 11 -48 22 -69 22c-29 0 -42 -24 -46 -49z" />
    <glyph glyph-name="scaron" unicode="&#x161;" horiz-adv-x="444" 
d="M52 28l43 90l11 -5c-1 -4 -3 -9 -3 -12c0 -23 54 -59 114 -59c46 0 105 22 105 90c0 113 -257 32 -257 203c0 65 60 111 154 111c43 0 63 -6 86 -12c16 -5 33 -14 41 -14c7 0 12 4 19 9l8 -5l-43 -88l-9 4c1 2 1 7 1 11c0 31 -73 47 -109 47c-52 0 -90 -30 -90 -64
c0 -112 257 -26 257 -202c0 -91 -78 -138 -162 -138c-40 0 -73 10 -96 20c-24 10 -38 20 -43 20c-6 0 -10 -4 -15 -11zM188 492l-112 140h64l82 -102l82 102h65l-114 -140h-67z" />
    <glyph glyph-name="uacute" unicode="&#xfa;" 
d="M63 440h106v-12c-13 -2 -20 -7 -20 -36v-260c0 -46 24 -90 101 -90s101 44 101 90v260c0 29 -7 34 -22 36v12h104v-12c-13 -2 -20 -7 -20 -36v-244c0 -104 -50 -154 -163 -154s-163 50 -163 154v244c0 29 -7 34 -24 36v12zM376 632l-137 -140h-51l111 140h77z" />
    <glyph glyph-name="ucircumflex" unicode="&#xfb;" 
d="M63 440h106v-12c-13 -2 -20 -7 -20 -36v-260c0 -46 24 -90 101 -90s101 44 101 90v260c0 29 -7 34 -22 36v12h104v-12c-13 -2 -20 -7 -20 -36v-244c0 -104 -50 -154 -163 -154s-163 50 -163 154v244c0 29 -7 34 -24 36v12zM104 492l112 140h67l114 -140h-65l-82 102
l-82 -102h-64z" />
    <glyph glyph-name="udieresis" unicode="&#xfc;" 
d="M63 440h106v-12c-13 -2 -20 -7 -20 -36v-260c0 -46 24 -90 101 -90s101 44 101 90v260c0 29 -7 34 -22 36v12h104v-12c-13 -2 -20 -7 -20 -36v-244c0 -104 -50 -154 -163 -154s-163 50 -163 154v244c0 29 -7 34 -24 36v12zM140 503v102h64v-102h-64zM296 503v102h64v-102
h-64z" />
    <glyph glyph-name="ugrave" unicode="&#xf9;" 
d="M63 440h106v-12c-13 -2 -20 -7 -20 -36v-260c0 -46 24 -90 101 -90s101 44 101 90v260c0 29 -7 34 -22 36v12h104v-12c-13 -2 -20 -7 -20 -36v-244c0 -104 -50 -154 -163 -154s-163 50 -163 154v244c0 29 -7 34 -24 36v12zM261 492l-137 140h77l111 -140h-51z" />
    <glyph glyph-name="yacute" unicode="&#xfd;" horiz-adv-x="444" 
d="M189 48v142l-118 205c-9 16 -15 27 -34 33v12h110v-12c-9 -1 -17 -4 -17 -11c0 -9 5 -15 11 -26l81 -142l76 135c6 11 12 19 12 29s-5 14 -17 15v12h104v-12c-18 -6 -20 -9 -30 -26l-116 -211v-143c0 -29 7 -34 18 -36v-12h-98v12c11 2 18 7 18 36zM348 632l-137 -140
h-51l111 140h77z" />
    <glyph glyph-name="ydieresis" unicode="&#xff;" horiz-adv-x="444" 
d="M189 48v142l-118 205c-9 16 -15 27 -34 33v12h110v-12c-9 -1 -17 -4 -17 -11c0 -9 5 -15 11 -26l81 -142l76 135c6 11 12 19 12 29s-5 14 -17 15v12h104v-12c-18 -6 -20 -9 -30 -26l-116 -211v-143c0 -29 7 -34 18 -36v-12h-98v12c11 2 18 7 18 36zM112 503v102h64v-102
h-64zM268 503v102h64v-102h-64z" />
    <glyph glyph-name="zcaron" unicode="&#x17e;" horiz-adv-x="444" 
d="M65 10l227 382h-184c-17 0 -25 -6 -28 -24h-12v90h12c3 -14 7 -18 28 -18h271v-14l-217 -374h172c17 0 25 6 28 24h12v-94h-12c-3 12 -9 18 -37 18h-260v10zM188 492l-112 140h64l82 -102l82 102h65l-114 -140h-67z" />
  </font>
</defs>
</svg>
